<svg width="143" height="36" viewBox="0 0 143 36" fill="none" xmlns="http://www.w3.org/2000/svg">
<path fill-rule="evenodd" clip-rule="evenodd" d="M61.5106 18.0183C61.5106 14.0004 62.1734 10.666 63.4989 8.01502C64.8658 5.36406 66.854 3.37584 69.4635 2.05035C72.0731 0.683451 75.2832 0 79.094 0C80.4194 0 81.7449 0.0621324 83.0704 0.186397C84.4373 0.269239 85.7421 0.414213 86.9847 0.621319C88.2274 0.787004 89.3457 1.01482 90.3399 1.30477L88.9108 9.75472C87.9167 9.54761 86.9226 9.38192 85.9285 9.25766C84.9344 9.1334 83.961 9.02984 83.0083 8.947C82.0556 8.86416 81.1236 8.82274 80.2123 8.82274C78.4312 8.82274 76.9193 9.15411 75.6767 9.81685C74.4755 10.4382 73.5642 11.4116 72.9429 12.737C72.363 14.0211 72.0731 15.678 72.0731 17.7076C72.0731 19.6544 72.3837 21.2698 73.005 22.5539C73.6678 23.7965 74.6205 24.7492 75.8631 25.412C77.1472 26.0333 78.659 26.3439 80.3987 26.3439C81.3929 26.3439 82.3662 26.3025 83.3189 26.2197C84.313 26.1368 85.3072 26.0126 86.3013 25.8469C87.2954 25.6812 88.3309 25.4948 89.4079 25.2877L90.9612 33.3649C89.1801 33.8619 87.1504 34.2554 84.8722 34.5454C82.5941 34.8767 80.3573 35.0424 78.162 35.0424C72.6115 35.0424 68.4487 33.6548 65.6735 30.8796C62.8982 28.0629 61.5106 23.7758 61.5106 18.0183ZM30.771 0.067077C30.0568 0.144237 29.3842 0.287982 28.7532 0.498313C27.7566 0.788985 26.7808 1.26652 25.8257 1.93091C24.8706 2.59531 23.8118 3.46732 22.6491 4.54696V0.622886H13.4306V34.507H23.5834V11.7722C24.8706 10.8587 26.0749 10.2358 27.196 9.90364C28.3172 9.52992 29.4176 9.34306 30.4972 9.34306C31.1201 9.34306 31.8052 9.40534 32.5527 9.52992C33.1296 9.59402 33.7065 9.68285 34.2833 9.79642L30.771 0.067077ZM60.5568 18.0397C60.5568 13.8242 61.2576 10.3257 62.6593 7.5443C63.731 5.48206 65.1639 3.80208 66.9581 2.50436L67.6047 0.685163L56.8913 0.560591L50.102 25.7245L42.3784 0H31.576L43.9979 34.507H55.5833L60.6305 20.3069C60.5813 19.577 60.5568 18.8213 60.5568 18.0397ZM0 29.6682C0 27.8351 0.416527 26.4811 1.24958 25.6063C2.12429 24.6897 3.56131 24.2315 5.56064 24.2315C7.60162 24.2315 9.03864 24.6897 9.87169 25.6063C10.7464 26.4811 11.1838 27.8351 11.1838 29.6682C11.1838 31.4596 10.7464 32.8136 9.87169 33.7301C9.03864 34.605 7.60162 35.0424 5.56064 35.0424C3.56131 35.0424 2.12429 34.605 1.24958 33.7301C0.416527 32.8136 0 31.4596 0 29.6682ZM108.654 15.1801H105.702V35.0424H108.654V23.8497C109.066 23.635 109.46 23.456 109.835 23.3129C110.211 23.1518 110.596 23.0266 110.99 22.9371C111.401 22.8476 111.813 22.8029 112.224 22.8029C113.012 22.8029 113.602 23.0087 113.996 23.4203C114.389 23.8139 114.586 24.4134 114.586 25.2186V35.0424H117.512V24.3597C117.512 23.4829 117.351 22.7492 117.029 22.1587C116.725 21.5503 116.268 21.094 115.66 20.7898C115.052 20.4677 114.309 20.3067 113.432 20.3067C112.842 20.3067 112.278 20.3693 111.741 20.4946C111.222 20.6019 110.712 20.763 110.211 20.9777C109.71 21.1924 109.191 21.4609 108.654 21.783V15.1801ZM92.679 23.7423C92.1422 24.8697 91.8738 26.3012 91.8738 28.0369C91.8738 30.5063 92.4374 32.3404 93.5648 33.5393C94.6921 34.7203 96.3652 35.3108 98.584 35.3108C99.425 35.3108 100.293 35.2482 101.188 35.1229C102.1 34.9977 102.896 34.8456 103.576 34.6666L103.147 32.3315C102.718 32.4209 102.27 32.5015 101.805 32.573C101.358 32.6446 100.91 32.6983 100.463 32.7341C100.033 32.7699 99.6129 32.7878 99.2014 32.7878C98.2888 32.7878 97.5104 32.6178 96.8662 32.2778C96.222 31.9199 95.7299 31.392 95.3899 30.6942C95.0499 29.9784 94.88 29.0837 94.88 28.0101C94.88 26.8291 95.041 25.8628 95.3631 25.1112C95.7031 24.3597 96.1862 23.796 96.8125 23.4203C97.4567 23.0445 98.244 22.8566 99.1745 22.8566C99.5682 22.8566 99.9708 22.8745 100.382 22.9103C100.812 22.9461 101.241 22.9997 101.671 23.0713C102.1 23.125 102.512 23.1966 102.905 23.286L103.335 20.8704C102.923 20.7451 102.467 20.6467 101.966 20.5751C101.465 20.4856 100.946 20.423 100.409 20.3872C99.8903 20.3335 99.3803 20.3067 98.8793 20.3067C97.3762 20.3067 96.0967 20.593 95.041 21.1656C94.0032 21.7382 93.2158 22.5971 92.679 23.7423ZM119.575 31.4189C119.575 30.5421 119.745 29.8263 120.085 29.2716C120.443 28.699 120.98 28.2516 121.696 27.9295C122.412 27.5896 123.306 27.3301 124.38 27.1512C125.454 26.9543 126.697 26.8022 128.111 26.6949V25.0307C128.111 24.2971 127.851 23.7423 127.332 23.3666C126.831 22.9908 126.089 22.8029 125.105 22.8029C124.747 22.8029 124.335 22.8208 123.87 22.8566C123.423 22.8924 122.948 22.955 122.447 23.0445C121.946 23.1339 121.436 23.2592 120.917 23.4203L120.434 21.0851C121.204 20.8346 122.018 20.6467 122.877 20.5214C123.736 20.3783 124.541 20.3067 125.292 20.3067C126.599 20.3067 127.672 20.4856 128.513 20.8435C129.372 21.1835 130.008 21.7024 130.419 22.4003C130.849 23.0982 131.063 23.966 131.063 25.0039V31.392C131.063 31.9289 131.144 32.2957 131.305 32.4925C131.466 32.6715 131.672 32.7609 131.922 32.7609C132.012 32.7609 132.119 32.752 132.244 32.7341C132.37 32.7162 132.495 32.6804 132.62 32.6267L132.888 34.774C132.602 34.935 132.289 35.0603 131.949 35.1498C131.609 35.2571 131.242 35.3108 130.849 35.3108C130.169 35.3108 129.623 35.1587 129.211 34.8545C128.818 34.5324 128.549 34.0493 128.406 33.4051C127.959 33.7451 127.476 34.0672 126.957 34.3714C126.456 34.6577 125.901 34.8814 125.292 35.0424C124.702 35.2213 124.049 35.3108 123.333 35.3108C122.76 35.3108 122.242 35.2213 121.776 35.0424C121.329 34.8814 120.935 34.6398 120.595 34.3177C120.273 33.9777 120.023 33.5662 119.844 33.083C119.665 32.5999 119.575 32.0452 119.575 31.4189ZM122.528 31.2041C122.528 31.902 122.698 32.4209 123.038 32.7609C123.378 33.1009 123.834 33.2709 124.407 33.2709C124.836 33.2709 125.275 33.2083 125.722 33.083C126.169 32.9399 126.599 32.752 127.01 32.5194C127.44 32.2688 127.807 31.9736 128.111 31.6336V28.359C127.252 28.4306 126.482 28.52 125.802 28.6274C125.122 28.7348 124.532 28.8958 124.031 29.1105C123.548 29.3074 123.172 29.5758 122.904 29.9158C122.653 30.2558 122.528 30.6852 122.528 31.2041ZM136.934 34.8008C137.542 35.1408 138.303 35.3108 139.215 35.3108C139.77 35.3108 140.37 35.2571 141.014 35.1498C141.658 35.0603 142.32 34.8993 143 34.6666L142.597 32.4388C142.168 32.5462 141.747 32.6446 141.336 32.7341C140.942 32.8057 140.557 32.8414 140.182 32.8414C139.43 32.8414 138.884 32.6446 138.544 32.2509C138.204 31.8573 138.034 31.222 138.034 30.3452V22.7492H142.49V20.5751H138.034V17.2737H135.511L135.136 20.5751L132.774 20.8167V22.7492H135.136V30.56C135.136 31.6336 135.279 32.5283 135.565 33.2441C135.869 33.9419 136.326 34.4608 136.934 34.8008Z" fill="#0B0C12"/>
</svg>
