<svg width="830" height="56" viewBox="0 0 830 56" fill="none" xmlns="http://www.w3.org/2000/svg">
<rect x="1" y="1" width="827" height="54" rx="10" fill="#9B30F9"/>
<path d="M71.3457 24.3916L67.8652 35H65.0615L69.8164 22.2031H71.6006L71.3457 24.3916ZM74.2373 35L70.748 24.3916L70.4668 22.2031H72.2686L77.0498 35H74.2373ZM74.0791 30.2363V32.3018H67.3203V30.2363H74.0791ZM82.0068 33.1982C82.3174 33.1982 82.5928 33.1396 82.833 33.0225C83.0732 32.8994 83.2607 32.7295 83.3955 32.5127C83.5361 32.29 83.6094 32.0293 83.6152 31.7305H85.9971C85.9912 32.3984 85.8125 32.9932 85.4609 33.5146C85.1094 34.0303 84.6377 34.4375 84.0459 34.7363C83.4541 35.0293 82.792 35.1758 82.0596 35.1758C81.3213 35.1758 80.6768 35.0527 80.126 34.8066C79.5811 34.5605 79.127 34.2207 78.7637 33.7871C78.4004 33.3477 78.1279 32.8379 77.9463 32.2578C77.7646 31.6719 77.6738 31.0449 77.6738 30.377V30.1221C77.6738 29.4482 77.7646 28.8213 77.9463 28.2412C78.1279 27.6553 78.4004 27.1455 78.7637 26.7119C79.127 26.2725 79.5811 25.9297 80.126 25.6836C80.6709 25.4375 81.3096 25.3145 82.042 25.3145C82.8213 25.3145 83.5039 25.4639 84.0898 25.7627C84.6816 26.0615 85.1445 26.4893 85.4785 27.0459C85.8184 27.5967 85.9912 28.25 85.9971 29.0059H83.6152C83.6094 28.6895 83.542 28.4023 83.4131 28.1445C83.29 27.8867 83.1084 27.6816 82.8682 27.5293C82.6338 27.3711 82.3438 27.292 81.998 27.292C81.6289 27.292 81.3271 27.3711 81.0928 27.5293C80.8584 27.6816 80.6768 27.8926 80.5479 28.1621C80.4189 28.4258 80.3281 28.7275 80.2754 29.0674C80.2285 29.4014 80.2051 29.7529 80.2051 30.1221V30.377C80.2051 30.7461 80.2285 31.1006 80.2754 31.4404C80.3223 31.7803 80.4102 32.082 80.5391 32.3457C80.6738 32.6094 80.8584 32.8174 81.0928 32.9697C81.3271 33.1221 81.6318 33.1982 82.0068 33.1982ZM91.8418 35.1758C91.1035 35.1758 90.4414 35.0586 89.8555 34.8242C89.2695 34.584 88.7715 34.2529 88.3613 33.8311C87.957 33.4092 87.6465 32.9199 87.4297 32.3633C87.2129 31.8008 87.1045 31.2031 87.1045 30.5703V30.2188C87.1045 29.498 87.207 28.8389 87.4121 28.2412C87.6172 27.6436 87.9102 27.125 88.291 26.6855C88.6777 26.2461 89.1465 25.9092 89.6973 25.6748C90.248 25.4346 90.8691 25.3145 91.5605 25.3145C92.2344 25.3145 92.832 25.4258 93.3535 25.6484C93.875 25.8711 94.3115 26.1875 94.6631 26.5977C95.0205 27.0078 95.29 27.5 95.4717 28.0742C95.6533 28.6426 95.7441 29.2754 95.7441 29.9727V31.0273H88.1855V29.3398H93.2568V29.1465C93.2568 28.7949 93.1924 28.4814 93.0635 28.2061C92.9404 27.9248 92.7529 27.7021 92.501 27.5381C92.249 27.374 91.9268 27.292 91.5342 27.292C91.2002 27.292 90.9131 27.3652 90.6729 27.5117C90.4326 27.6582 90.2363 27.8633 90.084 28.127C89.9375 28.3906 89.8262 28.7012 89.75 29.0586C89.6797 29.4102 89.6445 29.7969 89.6445 30.2188V30.5703C89.6445 30.9512 89.6973 31.3027 89.8027 31.625C89.9141 31.9473 90.0693 32.2256 90.2686 32.46C90.4736 32.6943 90.7197 32.876 91.0068 33.0049C91.2998 33.1338 91.6309 33.1982 92 33.1982C92.457 33.1982 92.8818 33.1104 93.2744 32.9346C93.6729 32.7529 94.0156 32.4805 94.3027 32.1172L95.5332 33.4531C95.334 33.7402 95.0615 34.0156 94.7158 34.2793C94.376 34.543 93.9658 34.7598 93.4854 34.9297C93.0049 35.0938 92.457 35.1758 91.8418 35.1758ZM102.327 32.3721C102.327 32.1904 102.274 32.0264 102.169 31.8799C102.063 31.7334 101.867 31.5986 101.58 31.4756C101.299 31.3467 100.892 31.2295 100.358 31.124C99.8779 31.0186 99.4297 30.8867 99.0137 30.7285C98.6035 30.5645 98.2461 30.3682 97.9414 30.1396C97.6426 29.9111 97.4082 29.6416 97.2383 29.3311C97.0684 29.0146 96.9834 28.6543 96.9834 28.25C96.9834 27.8516 97.0684 27.4766 97.2383 27.125C97.4141 26.7734 97.6631 26.4629 97.9854 26.1934C98.3135 25.918 98.7119 25.7041 99.1807 25.5518C99.6553 25.3936 100.188 25.3145 100.78 25.3145C101.606 25.3145 102.315 25.4463 102.907 25.71C103.505 25.9736 103.962 26.3369 104.278 26.7998C104.601 27.2568 104.762 27.7783 104.762 28.3643H102.23C102.23 28.1182 102.178 27.8984 102.072 27.7051C101.973 27.5059 101.814 27.3506 101.598 27.2393C101.387 27.1221 101.111 27.0635 100.771 27.0635C100.49 27.0635 100.247 27.1133 100.042 27.2129C99.8369 27.3066 99.6787 27.4355 99.5674 27.5996C99.4619 27.7578 99.4092 27.9336 99.4092 28.127C99.4092 28.2734 99.4385 28.4053 99.4971 28.5225C99.5615 28.6338 99.6641 28.7363 99.8047 28.8301C99.9453 28.9238 100.127 29.0117 100.35 29.0938C100.578 29.1699 100.859 29.2402 101.193 29.3047C101.879 29.4453 102.491 29.6299 103.03 29.8584C103.569 30.0811 103.997 30.3857 104.313 30.7725C104.63 31.1533 104.788 31.6543 104.788 32.2754C104.788 32.6973 104.694 33.084 104.507 33.4355C104.319 33.7871 104.05 34.0947 103.698 34.3584C103.347 34.6162 102.925 34.8184 102.433 34.9648C101.946 35.1055 101.398 35.1758 100.789 35.1758C99.9043 35.1758 99.1543 35.0176 98.5391 34.7012C97.9297 34.3848 97.4668 33.9834 97.1504 33.4971C96.8398 33.0049 96.6846 32.501 96.6846 31.9854H99.084C99.0957 32.3311 99.1836 32.6094 99.3477 32.8203C99.5176 33.0312 99.7314 33.1836 99.9893 33.2773C100.253 33.3711 100.537 33.418 100.842 33.418C101.17 33.418 101.442 33.374 101.659 33.2861C101.876 33.1924 102.04 33.0693 102.151 32.917C102.269 32.7588 102.327 32.5771 102.327 32.3721ZM111.573 32.3721C111.573 32.1904 111.521 32.0264 111.415 31.8799C111.31 31.7334 111.113 31.5986 110.826 31.4756C110.545 31.3467 110.138 31.2295 109.604 31.124C109.124 31.0186 108.676 30.8867 108.26 30.7285C107.85 30.5645 107.492 30.3682 107.188 30.1396C106.889 29.9111 106.654 29.6416 106.484 29.3311C106.314 29.0146 106.229 28.6543 106.229 28.25C106.229 27.8516 106.314 27.4766 106.484 27.125C106.66 26.7734 106.909 26.4629 107.231 26.1934C107.56 25.918 107.958 25.7041 108.427 25.5518C108.901 25.3936 109.435 25.3145 110.026 25.3145C110.853 25.3145 111.562 25.4463 112.153 25.71C112.751 25.9736 113.208 26.3369 113.524 26.7998C113.847 27.2568 114.008 27.7783 114.008 28.3643H111.477C111.477 28.1182 111.424 27.8984 111.318 27.7051C111.219 27.5059 111.061 27.3506 110.844 27.2393C110.633 27.1221 110.357 27.0635 110.018 27.0635C109.736 27.0635 109.493 27.1133 109.288 27.2129C109.083 27.3066 108.925 27.4355 108.813 27.5996C108.708 27.7578 108.655 27.9336 108.655 28.127C108.655 28.2734 108.685 28.4053 108.743 28.5225C108.808 28.6338 108.91 28.7363 109.051 28.8301C109.191 28.9238 109.373 29.0117 109.596 29.0938C109.824 29.1699 110.105 29.2402 110.439 29.3047C111.125 29.4453 111.737 29.6299 112.276 29.8584C112.815 30.0811 113.243 30.3857 113.56 30.7725C113.876 31.1533 114.034 31.6543 114.034 32.2754C114.034 32.6973 113.94 33.084 113.753 33.4355C113.565 33.7871 113.296 34.0947 112.944 34.3584C112.593 34.6162 112.171 34.8184 111.679 34.9648C111.192 35.1055 110.645 35.1758 110.035 35.1758C109.15 35.1758 108.4 35.0176 107.785 34.7012C107.176 34.3848 106.713 33.9834 106.396 33.4971C106.086 33.0049 105.931 32.501 105.931 31.9854H108.33C108.342 32.3311 108.43 32.6094 108.594 32.8203C108.764 33.0312 108.978 33.1836 109.235 33.2773C109.499 33.3711 109.783 33.418 110.088 33.418C110.416 33.418 110.688 33.374 110.905 33.2861C111.122 33.1924 111.286 33.0693 111.397 32.917C111.515 32.7588 111.573 32.5771 111.573 32.3721ZM120.811 32.8555V28.6191C120.811 28.3145 120.761 28.0537 120.661 27.8369C120.562 27.6143 120.406 27.4414 120.195 27.3184C119.99 27.1953 119.724 27.1338 119.396 27.1338C119.114 27.1338 118.871 27.1836 118.666 27.2832C118.461 27.377 118.303 27.5146 118.191 27.6963C118.08 27.8721 118.024 28.0801 118.024 28.3203H115.493C115.493 27.916 115.587 27.5322 115.774 27.1689C115.962 26.8057 116.234 26.4863 116.592 26.2109C116.949 25.9297 117.374 25.71 117.866 25.5518C118.364 25.3936 118.921 25.3145 119.536 25.3145C120.274 25.3145 120.931 25.4375 121.505 25.6836C122.079 25.9297 122.53 26.2988 122.858 26.791C123.192 27.2832 123.359 27.8984 123.359 28.6367V32.7061C123.359 33.2275 123.392 33.6553 123.456 33.9893C123.521 34.3174 123.614 34.6045 123.737 34.8506V35H121.18C121.057 34.7422 120.963 34.4199 120.898 34.0332C120.84 33.6406 120.811 33.248 120.811 32.8555ZM121.145 29.208L121.162 30.6406H119.747C119.413 30.6406 119.123 30.6787 118.877 30.7549C118.631 30.8311 118.429 30.9395 118.271 31.0801C118.112 31.2148 117.995 31.373 117.919 31.5547C117.849 31.7363 117.813 31.9355 117.813 32.1523C117.813 32.3691 117.863 32.5654 117.963 32.7412C118.062 32.9111 118.206 33.0459 118.394 33.1455C118.581 33.2393 118.801 33.2861 119.053 33.2861C119.434 33.2861 119.765 33.21 120.046 33.0576C120.327 32.9053 120.544 32.7178 120.696 32.4951C120.854 32.2725 120.937 32.0615 120.942 31.8623L121.61 32.9346C121.517 33.1748 121.388 33.4238 121.224 33.6816C121.065 33.9395 120.863 34.1826 120.617 34.4111C120.371 34.6338 120.075 34.8184 119.729 34.9648C119.384 35.1055 118.974 35.1758 118.499 35.1758C117.896 35.1758 117.348 35.0557 116.855 34.8154C116.369 34.5693 115.982 34.2324 115.695 33.8047C115.414 33.3711 115.273 32.8789 115.273 32.3281C115.273 31.8301 115.367 31.3877 115.555 31.001C115.742 30.6143 116.018 30.2891 116.381 30.0254C116.75 29.7559 117.21 29.5537 117.761 29.4189C118.312 29.2783 118.95 29.208 119.677 29.208H121.145ZM127.842 27.5645V35H125.311V25.4902H127.692L127.842 27.5645ZM130.707 25.4287L130.663 27.7754C130.54 27.7578 130.391 27.7432 130.215 27.7314C130.045 27.7139 129.89 27.7051 129.749 27.7051C129.392 27.7051 129.081 27.752 128.817 27.8457C128.56 27.9336 128.343 28.0654 128.167 28.2412C127.997 28.417 127.868 28.6309 127.78 28.8828C127.698 29.1348 127.651 29.4219 127.64 29.7441L127.13 29.5859C127.13 28.9707 127.191 28.4053 127.314 27.8896C127.438 27.3682 127.616 26.9141 127.851 26.5273C128.091 26.1406 128.384 25.8418 128.729 25.6309C129.075 25.4199 129.471 25.3145 129.916 25.3145C130.057 25.3145 130.2 25.3262 130.347 25.3496C130.493 25.3672 130.613 25.3936 130.707 25.4287ZM138.916 27.3184V38.6562H136.385V25.4902H138.731L138.916 27.3184ZM144.937 30.1396V30.3242C144.937 31.0156 144.854 31.6572 144.69 32.249C144.532 32.8408 144.298 33.3564 143.987 33.7959C143.677 34.2295 143.29 34.5693 142.827 34.8154C142.37 35.0557 141.843 35.1758 141.245 35.1758C140.665 35.1758 140.161 35.0586 139.733 34.8242C139.306 34.5898 138.945 34.2617 138.652 33.8398C138.365 33.4121 138.134 32.917 137.958 32.3545C137.782 31.792 137.647 31.1885 137.554 30.5439V30.0605C137.647 29.3691 137.782 28.7363 137.958 28.1621C138.134 27.582 138.365 27.0811 138.652 26.6592C138.945 26.2314 139.303 25.9004 139.725 25.666C140.152 25.4316 140.653 25.3145 141.228 25.3145C141.831 25.3145 142.361 25.4287 142.818 25.6572C143.281 25.8857 143.668 26.2139 143.979 26.6416C144.295 27.0693 144.532 27.5791 144.69 28.1709C144.854 28.7627 144.937 29.4189 144.937 30.1396ZM142.396 30.3242V30.1396C142.396 29.7354 142.361 29.3633 142.291 29.0234C142.227 28.6777 142.121 28.376 141.975 28.1182C141.834 27.8604 141.646 27.6611 141.412 27.5205C141.184 27.374 140.905 27.3008 140.577 27.3008C140.231 27.3008 139.936 27.3564 139.689 27.4678C139.449 27.5791 139.253 27.7402 139.101 27.9512C138.948 28.1621 138.834 28.4141 138.758 28.707C138.682 29 138.635 29.3311 138.617 29.7002V30.9219C138.646 31.3555 138.729 31.7451 138.863 32.0908C138.998 32.4307 139.206 32.7002 139.487 32.8994C139.769 33.0986 140.138 33.1982 140.595 33.1982C140.929 33.1982 141.21 33.125 141.438 32.9785C141.667 32.8262 141.852 32.6182 141.992 32.3545C142.139 32.0908 142.241 31.7861 142.3 31.4404C142.364 31.0947 142.396 30.7227 142.396 30.3242ZM151.643 32.8555V28.6191C151.643 28.3145 151.593 28.0537 151.493 27.8369C151.394 27.6143 151.238 27.4414 151.027 27.3184C150.822 27.1953 150.556 27.1338 150.228 27.1338C149.946 27.1338 149.703 27.1836 149.498 27.2832C149.293 27.377 149.135 27.5146 149.023 27.6963C148.912 27.8721 148.856 28.0801 148.856 28.3203H146.325C146.325 27.916 146.419 27.5322 146.606 27.1689C146.794 26.8057 147.066 26.4863 147.424 26.2109C147.781 25.9297 148.206 25.71 148.698 25.5518C149.196 25.3936 149.753 25.3145 150.368 25.3145C151.106 25.3145 151.763 25.4375 152.337 25.6836C152.911 25.9297 153.362 26.2988 153.69 26.791C154.024 27.2832 154.191 27.8984 154.191 28.6367V32.7061C154.191 33.2275 154.224 33.6553 154.288 33.9893C154.353 34.3174 154.446 34.6045 154.569 34.8506V35H152.012C151.889 34.7422 151.795 34.4199 151.73 34.0332C151.672 33.6406 151.643 33.248 151.643 32.8555ZM151.977 29.208L151.994 30.6406H150.579C150.245 30.6406 149.955 30.6787 149.709 30.7549C149.463 30.8311 149.261 30.9395 149.103 31.0801C148.944 31.2148 148.827 31.373 148.751 31.5547C148.681 31.7363 148.646 31.9355 148.646 32.1523C148.646 32.3691 148.695 32.5654 148.795 32.7412C148.895 32.9111 149.038 33.0459 149.226 33.1455C149.413 33.2393 149.633 33.2861 149.885 33.2861C150.266 33.2861 150.597 33.21 150.878 33.0576C151.159 32.9053 151.376 32.7178 151.528 32.4951C151.687 32.2725 151.769 32.0615 151.774 31.8623L152.442 32.9346C152.349 33.1748 152.22 33.4238 152.056 33.6816C151.897 33.9395 151.695 34.1826 151.449 34.4111C151.203 34.6338 150.907 34.8184 150.562 34.9648C150.216 35.1055 149.806 35.1758 149.331 35.1758C148.728 35.1758 148.18 35.0557 147.688 34.8154C147.201 34.5693 146.814 34.2324 146.527 33.8047C146.246 33.3711 146.105 32.8789 146.105 32.3281C146.105 31.8301 146.199 31.3877 146.387 31.001C146.574 30.6143 146.85 30.2891 147.213 30.0254C147.582 29.7559 148.042 29.5537 148.593 29.4189C149.144 29.2783 149.782 29.208 150.509 29.208H151.977ZM149.155 24.207L150.878 21.5H153.629L151.212 24.207H149.155ZM162.163 25.4902H164.457V34.6836C164.457 35.5508 164.264 36.2861 163.877 36.8896C163.496 37.499 162.963 37.959 162.277 38.2695C161.592 38.5859 160.795 38.7441 159.887 38.7441C159.488 38.7441 159.066 38.6914 158.621 38.5859C158.182 38.4805 157.76 38.3164 157.355 38.0938C156.957 37.8711 156.623 37.5898 156.354 37.25L157.47 35.7559C157.763 36.0957 158.103 36.3594 158.489 36.5469C158.876 36.7402 159.304 36.8369 159.772 36.8369C160.229 36.8369 160.616 36.752 160.933 36.582C161.249 36.418 161.492 36.1748 161.662 35.8525C161.832 35.5361 161.917 35.1523 161.917 34.7012V27.6875L162.163 25.4902ZM155.765 30.3594V30.1748C155.765 29.4482 155.853 28.7891 156.028 28.1973C156.21 27.5996 156.465 27.0869 156.793 26.6592C157.127 26.2314 157.531 25.9004 158.006 25.666C158.48 25.4316 159.017 25.3145 159.614 25.3145C160.247 25.3145 160.777 25.4316 161.205 25.666C161.633 25.9004 161.984 26.2344 162.26 26.668C162.535 27.0957 162.749 27.6025 162.901 28.1885C163.06 28.7686 163.183 29.4043 163.271 30.0957V30.5C163.183 31.1621 163.051 31.7773 162.875 32.3457C162.699 32.9141 162.468 33.4121 162.181 33.8398C161.894 34.2617 161.536 34.5898 161.108 34.8242C160.687 35.0586 160.183 35.1758 159.597 35.1758C159.011 35.1758 158.48 35.0557 158.006 34.8154C157.537 34.5752 157.136 34.2383 156.802 33.8047C156.468 33.3711 156.21 32.8613 156.028 32.2754C155.853 31.6895 155.765 31.0508 155.765 30.3594ZM158.296 30.1748V30.3594C158.296 30.752 158.334 31.1182 158.41 31.458C158.486 31.7979 158.604 32.0996 158.762 32.3633C158.926 32.6211 159.128 32.8232 159.368 32.9697C159.614 33.1104 159.904 33.1807 160.238 33.1807C160.701 33.1807 161.079 33.084 161.372 32.8906C161.665 32.6914 161.885 32.4189 162.031 32.0732C162.178 31.7275 162.263 31.3291 162.286 30.8779V29.7266C162.274 29.3574 162.225 29.0264 162.137 28.7334C162.049 28.4346 161.926 28.1797 161.768 27.9688C161.609 27.7578 161.404 27.5938 161.152 27.4766C160.9 27.3594 160.602 27.3008 160.256 27.3008C159.922 27.3008 159.632 27.377 159.386 27.5293C159.146 27.6758 158.943 27.8779 158.779 28.1357C158.621 28.3936 158.501 28.6982 158.419 29.0498C158.337 29.3955 158.296 29.7705 158.296 30.1748ZM169.098 25.4902V35H166.558V25.4902H169.098ZM166.399 23.0117C166.399 22.6426 166.528 22.3379 166.786 22.0977C167.044 21.8574 167.39 21.7373 167.823 21.7373C168.251 21.7373 168.594 21.8574 168.852 22.0977C169.115 22.3379 169.247 22.6426 169.247 23.0117C169.247 23.3809 169.115 23.6855 168.852 23.9258C168.594 24.166 168.251 24.2861 167.823 24.2861C167.39 24.2861 167.044 24.166 166.786 23.9258C166.528 23.6855 166.399 23.3809 166.399 23.0117ZM173.668 27.5205V35H171.137V25.4902H173.51L173.668 27.5205ZM173.299 29.9111H172.613C172.613 29.208 172.704 28.5752 172.886 28.0127C173.067 27.4443 173.322 26.9609 173.65 26.5625C173.979 26.1582 174.368 25.8506 174.819 25.6396C175.276 25.4229 175.786 25.3145 176.349 25.3145C176.794 25.3145 177.201 25.3789 177.57 25.5078C177.939 25.6367 178.256 25.8418 178.52 26.123C178.789 26.4043 178.994 26.7764 179.135 27.2393C179.281 27.7021 179.354 28.2676 179.354 28.9355V35H176.806V28.9268C176.806 28.5049 176.747 28.1768 176.63 27.9424C176.513 27.708 176.34 27.5439 176.111 27.4502C175.889 27.3506 175.613 27.3008 175.285 27.3008C174.945 27.3008 174.649 27.3682 174.397 27.5029C174.151 27.6377 173.946 27.8252 173.782 28.0654C173.624 28.2998 173.504 28.5752 173.422 28.8916C173.34 29.208 173.299 29.5479 173.299 29.9111ZM186.412 32.8555V28.6191C186.412 28.3145 186.362 28.0537 186.263 27.8369C186.163 27.6143 186.008 27.4414 185.797 27.3184C185.592 27.1953 185.325 27.1338 184.997 27.1338C184.716 27.1338 184.473 27.1836 184.268 27.2832C184.062 27.377 183.904 27.5146 183.793 27.6963C183.682 27.8721 183.626 28.0801 183.626 28.3203H181.095C181.095 27.916 181.188 27.5322 181.376 27.1689C181.563 26.8057 181.836 26.4863 182.193 26.2109C182.551 25.9297 182.976 25.71 183.468 25.5518C183.966 25.3936 184.522 25.3145 185.138 25.3145C185.876 25.3145 186.532 25.4375 187.106 25.6836C187.681 25.9297 188.132 26.2988 188.46 26.791C188.794 27.2832 188.961 27.8984 188.961 28.6367V32.7061C188.961 33.2275 188.993 33.6553 189.058 33.9893C189.122 34.3174 189.216 34.6045 189.339 34.8506V35H186.781C186.658 34.7422 186.564 34.4199 186.5 34.0332C186.441 33.6406 186.412 33.248 186.412 32.8555ZM186.746 29.208L186.764 30.6406H185.349C185.015 30.6406 184.725 30.6787 184.479 30.7549C184.232 30.8311 184.03 30.9395 183.872 31.0801C183.714 31.2148 183.597 31.373 183.521 31.5547C183.45 31.7363 183.415 31.9355 183.415 32.1523C183.415 32.3691 183.465 32.5654 183.564 32.7412C183.664 32.9111 183.808 33.0459 183.995 33.1455C184.183 33.2393 184.402 33.2861 184.654 33.2861C185.035 33.2861 185.366 33.21 185.647 33.0576C185.929 32.9053 186.146 32.7178 186.298 32.4951C186.456 32.2725 186.538 32.0615 186.544 31.8623L187.212 32.9346C187.118 33.1748 186.989 33.4238 186.825 33.6816C186.667 33.9395 186.465 34.1826 186.219 34.4111C185.973 34.6338 185.677 34.8184 185.331 34.9648C184.985 35.1055 184.575 35.1758 184.101 35.1758C183.497 35.1758 182.949 35.0557 182.457 34.8154C181.971 34.5693 181.584 34.2324 181.297 33.8047C181.016 33.3711 180.875 32.8789 180.875 32.3281C180.875 31.8301 180.969 31.3877 181.156 31.001C181.344 30.6143 181.619 30.2891 181.982 30.0254C182.352 29.7559 182.812 29.5537 183.362 29.4189C183.913 29.2783 184.552 29.208 185.278 29.208H186.746ZM201.011 32.9258V21.5H203.56V35H201.266L201.011 32.9258ZM194.999 30.3594V30.1748C194.999 29.4482 195.081 28.7891 195.245 28.1973C195.409 27.5996 195.649 27.0869 195.966 26.6592C196.282 26.2314 196.672 25.9004 197.135 25.666C197.598 25.4316 198.125 25.3145 198.717 25.3145C199.273 25.3145 199.76 25.4316 200.176 25.666C200.598 25.9004 200.955 26.2344 201.248 26.668C201.547 27.0957 201.787 27.6025 201.969 28.1885C202.15 28.7686 202.282 29.4043 202.364 30.0957V30.5C202.282 31.1621 202.15 31.7773 201.969 32.3457C201.787 32.9141 201.547 33.4121 201.248 33.8398C200.955 34.2617 200.598 34.5898 200.176 34.8242C199.754 35.0586 199.262 35.1758 198.699 35.1758C198.107 35.1758 197.58 35.0557 197.117 34.8154C196.66 34.5752 196.273 34.2383 195.957 33.8047C195.646 33.3711 195.409 32.8613 195.245 32.2754C195.081 31.6895 194.999 31.0508 194.999 30.3594ZM197.53 30.1748V30.3594C197.53 30.752 197.56 31.1182 197.618 31.458C197.683 31.7979 197.785 32.0996 197.926 32.3633C198.072 32.6211 198.26 32.8232 198.488 32.9697C198.723 33.1104 199.007 33.1807 199.341 33.1807C199.774 33.1807 200.132 33.084 200.413 32.8906C200.694 32.6914 200.908 32.4189 201.055 32.0732C201.207 31.7275 201.295 31.3291 201.318 30.8779V29.7266C201.301 29.3574 201.248 29.0264 201.16 28.7334C201.078 28.4346 200.955 28.1797 200.791 27.9688C200.633 27.7578 200.434 27.5938 200.193 27.4766C199.959 27.3594 199.681 27.3008 199.358 27.3008C199.03 27.3008 198.749 27.377 198.515 27.5293C198.28 27.6758 198.09 27.8779 197.943 28.1357C197.803 28.3936 197.697 28.6982 197.627 29.0498C197.562 29.3955 197.53 29.7705 197.53 30.1748ZM205.133 30.3418V30.1572C205.133 29.46 205.232 28.8184 205.432 28.2324C205.631 27.6406 205.921 27.1279 206.302 26.6943C206.683 26.2607 207.151 25.9238 207.708 25.6836C208.265 25.4375 208.903 25.3145 209.624 25.3145C210.345 25.3145 210.986 25.4375 211.549 25.6836C212.111 25.9238 212.583 26.2607 212.964 26.6943C213.351 27.1279 213.644 27.6406 213.843 28.2324C214.042 28.8184 214.142 29.46 214.142 30.1572V30.3418C214.142 31.0332 214.042 31.6748 213.843 32.2666C213.644 32.8525 213.351 33.3652 212.964 33.8047C212.583 34.2383 212.114 34.5752 211.558 34.8154C211.001 35.0557 210.362 35.1758 209.642 35.1758C208.921 35.1758 208.279 35.0557 207.717 34.8154C207.16 34.5752 206.688 34.2383 206.302 33.8047C205.921 33.3652 205.631 32.8525 205.432 32.2666C205.232 31.6748 205.133 31.0332 205.133 30.3418ZM207.664 30.1572V30.3418C207.664 30.7402 207.699 31.1123 207.77 31.458C207.84 31.8037 207.951 32.1084 208.104 32.3721C208.262 32.6299 208.467 32.832 208.719 32.9785C208.971 33.125 209.278 33.1982 209.642 33.1982C209.993 33.1982 210.295 33.125 210.547 32.9785C210.799 32.832 211.001 32.6299 211.153 32.3721C211.306 32.1084 211.417 31.8037 211.487 31.458C211.563 31.1123 211.602 30.7402 211.602 30.3418V30.1572C211.602 29.7705 211.563 29.4072 211.487 29.0674C211.417 28.7217 211.303 28.417 211.145 28.1533C210.992 27.8838 210.79 27.6729 210.538 27.5205C210.286 27.3682 209.981 27.292 209.624 27.292C209.267 27.292 208.962 27.3682 208.71 27.5205C208.464 27.6729 208.262 27.8838 208.104 28.1533C207.951 28.417 207.84 28.7217 207.77 29.0674C207.699 29.4072 207.664 29.7705 207.664 30.1572ZM224.108 33.1982C224.419 33.1982 224.694 33.1396 224.935 33.0225C225.175 32.8994 225.362 32.7295 225.497 32.5127C225.638 32.29 225.711 32.0293 225.717 31.7305H228.099C228.093 32.3984 227.914 32.9932 227.562 33.5146C227.211 34.0303 226.739 34.4375 226.147 34.7363C225.556 35.0293 224.894 35.1758 224.161 35.1758C223.423 35.1758 222.778 35.0527 222.228 34.8066C221.683 34.5605 221.229 34.2207 220.865 33.7871C220.502 33.3477 220.229 32.8379 220.048 32.2578C219.866 31.6719 219.775 31.0449 219.775 30.377V30.1221C219.775 29.4482 219.866 28.8213 220.048 28.2412C220.229 27.6553 220.502 27.1455 220.865 26.7119C221.229 26.2725 221.683 25.9297 222.228 25.6836C222.772 25.4375 223.411 25.3145 224.144 25.3145C224.923 25.3145 225.605 25.4639 226.191 25.7627C226.783 26.0615 227.246 26.4893 227.58 27.0459C227.92 27.5967 228.093 28.25 228.099 29.0059H225.717C225.711 28.6895 225.644 28.4023 225.515 28.1445C225.392 27.8867 225.21 27.6816 224.97 27.5293C224.735 27.3711 224.445 27.292 224.1 27.292C223.73 27.292 223.429 27.3711 223.194 27.5293C222.96 27.6816 222.778 27.8926 222.649 28.1621C222.521 28.4258 222.43 28.7275 222.377 29.0674C222.33 29.4014 222.307 29.7529 222.307 30.1221V30.377C222.307 30.7461 222.33 31.1006 222.377 31.4404C222.424 31.7803 222.512 32.082 222.641 32.3457C222.775 32.6094 222.96 32.8174 223.194 32.9697C223.429 33.1221 223.733 33.1982 224.108 33.1982ZM235.191 32.7236V25.4902H237.723V35H235.341L235.191 32.7236ZM235.473 30.7725L236.22 30.7549C236.22 31.3877 236.146 31.9766 236 32.5215C235.854 33.0605 235.634 33.5293 235.341 33.9277C235.048 34.3203 234.679 34.6279 234.233 34.8506C233.788 35.0674 233.264 35.1758 232.66 35.1758C232.197 35.1758 231.77 35.1113 231.377 34.9824C230.99 34.8477 230.656 34.6396 230.375 34.3584C230.1 34.0713 229.883 33.7051 229.725 33.2598C229.572 32.8086 229.496 32.2666 229.496 31.6338V25.4902H232.027V31.6514C232.027 31.9326 232.06 32.1699 232.124 32.3633C232.194 32.5566 232.291 32.7148 232.414 32.8379C232.537 32.9609 232.681 33.0488 232.845 33.1016C233.015 33.1543 233.202 33.1807 233.407 33.1807C233.929 33.1807 234.339 33.0752 234.638 32.8643C234.942 32.6533 235.156 32.3662 235.279 32.0029C235.408 31.6338 235.473 31.2236 235.473 30.7725ZM242.188 27.5645V35H239.656V25.4902H242.038L242.188 27.5645ZM245.053 25.4287L245.009 27.7754C244.886 27.7578 244.736 27.7432 244.561 27.7314C244.391 27.7139 244.235 27.7051 244.095 27.7051C243.737 27.7051 243.427 27.752 243.163 27.8457C242.905 27.9336 242.688 28.0654 242.513 28.2412C242.343 28.417 242.214 28.6309 242.126 28.8828C242.044 29.1348 241.997 29.4219 241.985 29.7441L241.476 29.5859C241.476 28.9707 241.537 28.4053 241.66 27.8896C241.783 27.3682 241.962 26.9141 242.196 26.5273C242.437 26.1406 242.729 25.8418 243.075 25.6309C243.421 25.4199 243.816 25.3145 244.262 25.3145C244.402 25.3145 244.546 25.3262 244.692 25.3496C244.839 25.3672 244.959 25.3936 245.053 25.4287ZM251.39 32.3721C251.39 32.1904 251.337 32.0264 251.231 31.8799C251.126 31.7334 250.93 31.5986 250.643 31.4756C250.361 31.3467 249.954 31.2295 249.421 31.124C248.94 31.0186 248.492 30.8867 248.076 30.7285C247.666 30.5645 247.309 30.3682 247.004 30.1396C246.705 29.9111 246.471 29.6416 246.301 29.3311C246.131 29.0146 246.046 28.6543 246.046 28.25C246.046 27.8516 246.131 27.4766 246.301 27.125C246.477 26.7734 246.726 26.4629 247.048 26.1934C247.376 25.918 247.774 25.7041 248.243 25.5518C248.718 25.3936 249.251 25.3145 249.843 25.3145C250.669 25.3145 251.378 25.4463 251.97 25.71C252.567 25.9736 253.024 26.3369 253.341 26.7998C253.663 27.2568 253.824 27.7783 253.824 28.3643H251.293C251.293 28.1182 251.24 27.8984 251.135 27.7051C251.035 27.5059 250.877 27.3506 250.66 27.2393C250.449 27.1221 250.174 27.0635 249.834 27.0635C249.553 27.0635 249.31 27.1133 249.104 27.2129C248.899 27.3066 248.741 27.4355 248.63 27.5996C248.524 27.7578 248.472 27.9336 248.472 28.127C248.472 28.2734 248.501 28.4053 248.56 28.5225C248.624 28.6338 248.727 28.7363 248.867 28.8301C249.008 28.9238 249.189 29.0117 249.412 29.0938C249.641 29.1699 249.922 29.2402 250.256 29.3047C250.941 29.4453 251.554 29.6299 252.093 29.8584C252.632 30.0811 253.06 30.3857 253.376 30.7725C253.692 31.1533 253.851 31.6543 253.851 32.2754C253.851 32.6973 253.757 33.084 253.569 33.4355C253.382 33.7871 253.112 34.0947 252.761 34.3584C252.409 34.6162 251.987 34.8184 251.495 34.9648C251.009 35.1055 250.461 35.1758 249.852 35.1758C248.967 35.1758 248.217 35.0176 247.602 34.7012C246.992 34.3848 246.529 33.9834 246.213 33.4971C245.902 33.0049 245.747 32.501 245.747 31.9854H248.146C248.158 32.3311 248.246 32.6094 248.41 32.8203C248.58 33.0312 248.794 33.1836 249.052 33.2773C249.315 33.3711 249.6 33.418 249.904 33.418C250.232 33.418 250.505 33.374 250.722 33.2861C250.938 33.1924 251.103 33.0693 251.214 32.917C251.331 32.7588 251.39 32.5771 251.39 32.3721ZM255.09 30.3418V30.1572C255.09 29.46 255.189 28.8184 255.389 28.2324C255.588 27.6406 255.878 27.1279 256.259 26.6943C256.64 26.2607 257.108 25.9238 257.665 25.6836C258.222 25.4375 258.86 25.3145 259.581 25.3145C260.302 25.3145 260.943 25.4375 261.506 25.6836C262.068 25.9238 262.54 26.2607 262.921 26.6943C263.308 27.1279 263.601 27.6406 263.8 28.2324C263.999 28.8184 264.099 29.46 264.099 30.1572V30.3418C264.099 31.0332 263.999 31.6748 263.8 32.2666C263.601 32.8525 263.308 33.3652 262.921 33.8047C262.54 34.2383 262.071 34.5752 261.515 34.8154C260.958 35.0557 260.319 35.1758 259.599 35.1758C258.878 35.1758 258.236 35.0557 257.674 34.8154C257.117 34.5752 256.646 34.2383 256.259 33.8047C255.878 33.3652 255.588 32.8525 255.389 32.2666C255.189 31.6748 255.09 31.0332 255.09 30.3418ZM257.621 30.1572V30.3418C257.621 30.7402 257.656 31.1123 257.727 31.458C257.797 31.8037 257.908 32.1084 258.061 32.3721C258.219 32.6299 258.424 32.832 258.676 32.9785C258.928 33.125 259.235 33.1982 259.599 33.1982C259.95 33.1982 260.252 33.125 260.504 32.9785C260.756 32.832 260.958 32.6299 261.11 32.3721C261.263 32.1084 261.374 31.8037 261.444 31.458C261.521 31.1123 261.559 30.7402 261.559 30.3418V30.1572C261.559 29.7705 261.521 29.4072 261.444 29.0674C261.374 28.7217 261.26 28.417 261.102 28.1533C260.949 27.8838 260.747 27.6729 260.495 27.5205C260.243 27.3682 259.938 27.292 259.581 27.292C259.224 27.292 258.919 27.3682 258.667 27.5205C258.421 27.6729 258.219 27.8838 258.061 28.1533C257.908 28.417 257.797 28.7217 257.727 29.0674C257.656 29.4072 257.621 29.7705 257.621 30.1572Z" fill="white"/>
<path d="M770.573 30.7561C771.566 30.5366 772.558 29.9878 773.054 28.7805H768.513V27.6098H775V28.1585H774.695C774.313 30.0244 772.939 31.9268 769.887 32L769.238 31.378C769.238 31.378 768.398 31.7439 768.322 31.8171C766.223 31.2317 765.002 29.3659 765.002 27.5366C764.926 24.939 766.986 23 769.543 23C771.07 23 772.138 23.439 773.054 24.2439L772.291 25.2317C771.909 24.8293 770.917 24.1707 769.581 24.1707C767.75 24.1707 766.223 25.561 766.223 27.5366C766.223 29.1829 767.482 30.4634 768.933 30.7927L770.573 30.7561V30.7561Z" fill="white"/>
<path d="M749.556 32C747.037 32 745 29.9878 745 27.5C745 24.9756 747.037 23 749.556 23C752.111 23 754.111 25.0122 754.111 27.5366C754.111 29.9878 752.074 32 749.556 32ZM749.556 24.1707C748.185 24.1707 747.111 24.9024 746.593 26.1098C746.407 26.5488 746.296 27.0244 746.296 27.5C746.296 27.9756 746.407 28.4512 746.593 28.8902C747.148 30.0976 748.222 30.8293 749.556 30.8293C751 30.8293 752.111 30.0244 752.63 28.6707C752.778 28.3049 752.852 27.9024 752.852 27.5C752.852 25.7073 751.481 24.1707 749.556 24.1707V24.1707ZM759.556 28.4146C759.296 28.5244 759 28.561 758.704 28.561L761.148 31.7805H759.556L756.667 27.7561H756.63V31.7805H755.37V23.1463H758.074C758.889 23.1463 759.778 23.2927 760.407 23.878C760.963 24.4268 761.222 25.1951 761.222 25.9268C761.222 27.0976 760.704 28.0488 759.556 28.4146ZM758 24.3171H756.667V27.6463H757.556C758.704 27.6463 759.963 27.3171 759.963 25.9634C759.963 24.8293 759.037 24.3171 758 24.3171V24.3171ZM762.407 31.8171V23.1463H763.704V31.8171H762.407V31.8171ZM785.259 31.8171V24.5H785.222L782.259 31.8171H781.481L778.519 24.5H778.481V31.8171H777.222V23.1463H779.222L781.852 29.7683L784.481 23.1463H786.481V31.8171H785.259V31.8171ZM787.963 31.8171V23.1463H789.259V31.8171H787.963V31.8171ZM796.889 30.5732C795.926 31.5244 794.778 31.8171 793.481 31.8171H790.667V23.1463H793.519C794.926 23.1463 796.259 23.5854 797.111 24.7561C797.667 25.5244 798 26.5488 798 27.5366C798 28.5244 797.63 29.8415 796.889 30.5732V30.5732ZM796.481 26.1829C795.963 24.939 794.889 24.3171 793.519 24.3171H791.963V30.6829H793.481C795.481 30.6829 796.704 29.5488 796.704 27.5366C796.741 27.061 796.63 26.622 796.481 26.1829ZM774.185 23.1463L768.185 31.7805C768.63 31.9268 769.111 32 769.63 32H769.815L774.444 24.7927H774.481V31.8171H775.778V23.1463H774.185Z" fill="black"/>
<path d="M48 29V35C48 35.5304 47.7893 36.0391 47.4142 36.4142C47.0391 36.7893 46.5304 37 46 37H35C34.4696 37 33.9609 36.7893 33.5858 36.4142C33.2107 36.0391 33 35.5304 33 35V24C33 23.4696 33.2107 22.9609 33.5858 22.5858C33.9609 22.2107 34.4696 22 35 22H41" stroke="white" stroke-width="2" stroke-linecap="round" stroke-linejoin="round"/>
<path d="M45 19H51V25" stroke="white" stroke-width="2" stroke-linecap="round" stroke-linejoin="round"/>
<path d="M40 30L51 19" stroke="white" stroke-width="2" stroke-linecap="round" stroke-linejoin="round"/>
</svg>
