<svg width="830" height="56" viewBox="0 0 830 56" fill="none" xmlns="http://www.w3.org/2000/svg">
<rect x="1" y="1" width="827" height="54" rx="10" fill="#21262D"/>
<rect x="1.5" y="1.5" width="826" height="53" rx="9.5" stroke="#F0F6FC" stroke-opacity="0.1"/>
<path d="M71.2227 23.3369L66.9863 35H65.2549L70.1328 22.2031H71.249L71.2227 23.3369ZM74.7734 35L70.5283 23.3369L70.502 22.2031H71.6182L76.5137 35H74.7734ZM74.5537 30.2627V31.6514H67.3643V30.2627H74.5537ZM81.7871 33.8398C82.1738 33.8398 82.5312 33.7607 82.8594 33.6025C83.1875 33.4443 83.457 33.2275 83.668 32.9521C83.8789 32.6709 83.999 32.3516 84.0283 31.9941H85.5752C85.5459 32.5566 85.3555 33.0811 85.0039 33.5674C84.6582 34.0479 84.2041 34.4375 83.6416 34.7363C83.0791 35.0293 82.4609 35.1758 81.7871 35.1758C81.0723 35.1758 80.4482 35.0498 79.915 34.7979C79.3877 34.5459 78.9482 34.2002 78.5967 33.7607C78.251 33.3213 77.9902 32.8174 77.8145 32.249C77.6445 31.6748 77.5596 31.0684 77.5596 30.4297V30.0605C77.5596 29.4219 77.6445 28.8184 77.8145 28.25C77.9902 27.6758 78.251 27.1689 78.5967 26.7295C78.9482 26.29 79.3877 25.9443 79.915 25.6924C80.4482 25.4404 81.0723 25.3145 81.7871 25.3145C82.5312 25.3145 83.1816 25.4668 83.7383 25.7715C84.2949 26.0703 84.7314 26.4805 85.0479 27.002C85.3701 27.5176 85.5459 28.1035 85.5752 28.7598H84.0283C83.999 28.3672 83.8877 28.0127 83.6943 27.6963C83.5068 27.3799 83.249 27.1279 82.9209 26.9404C82.5986 26.7471 82.2207 26.6504 81.7871 26.6504C81.2891 26.6504 80.8701 26.75 80.5303 26.9492C80.1963 27.1426 79.9297 27.4062 79.7305 27.7402C79.5371 28.0684 79.3965 28.4346 79.3086 28.8389C79.2266 29.2373 79.1855 29.6445 79.1855 30.0605V30.4297C79.1855 30.8457 79.2266 31.2559 79.3086 31.6602C79.3906 32.0645 79.5283 32.4307 79.7217 32.7588C79.9209 33.0869 80.1875 33.3506 80.5215 33.5498C80.8613 33.7432 81.2832 33.8398 81.7871 33.8398ZM91.3496 35.1758C90.6875 35.1758 90.0869 35.0645 89.5479 34.8418C89.0146 34.6133 88.5547 34.2939 88.168 33.8838C87.7871 33.4736 87.4941 32.9873 87.2891 32.4248C87.084 31.8623 86.9814 31.2471 86.9814 30.5791V30.21C86.9814 29.4365 87.0957 28.748 87.3242 28.1445C87.5527 27.5352 87.8633 27.0195 88.2559 26.5977C88.6484 26.1758 89.0938 25.8564 89.5918 25.6396C90.0898 25.4229 90.6055 25.3145 91.1387 25.3145C91.8184 25.3145 92.4043 25.4316 92.8965 25.666C93.3945 25.9004 93.8018 26.2285 94.1182 26.6504C94.4346 27.0664 94.6689 27.5586 94.8213 28.127C94.9736 28.6895 95.0498 29.3047 95.0498 29.9727V30.7021H87.9482V29.375H93.4238V29.252C93.4004 28.8301 93.3125 28.4199 93.1602 28.0215C93.0137 27.623 92.7793 27.2949 92.457 27.0371C92.1348 26.7793 91.6953 26.6504 91.1387 26.6504C90.7695 26.6504 90.4297 26.7295 90.1191 26.8877C89.8086 27.04 89.542 27.2686 89.3193 27.5732C89.0967 27.8779 88.9238 28.25 88.8008 28.6895C88.6777 29.1289 88.6162 29.6357 88.6162 30.21V30.5791C88.6162 31.0303 88.6777 31.4551 88.8008 31.8535C88.9297 32.2461 89.1143 32.5918 89.3545 32.8906C89.6006 33.1895 89.8965 33.4238 90.2422 33.5938C90.5938 33.7637 90.9922 33.8486 91.4375 33.8486C92.0117 33.8486 92.498 33.7314 92.8965 33.4971C93.2949 33.2627 93.6436 32.9492 93.9424 32.5566L94.9268 33.3389C94.7217 33.6494 94.4609 33.9453 94.1445 34.2266C93.8281 34.5078 93.4385 34.7363 92.9756 34.9121C92.5186 35.0879 91.9766 35.1758 91.3496 35.1758ZM102.485 32.4775C102.485 32.2432 102.433 32.0264 102.327 31.8271C102.228 31.6221 102.02 31.4375 101.703 31.2734C101.393 31.1035 100.924 30.957 100.297 30.834C99.7695 30.7227 99.292 30.5908 98.8643 30.4385C98.4424 30.2861 98.082 30.1016 97.7832 29.8848C97.4902 29.668 97.2646 29.4131 97.1064 29.1201C96.9482 28.8271 96.8691 28.4844 96.8691 28.0918C96.8691 27.7168 96.9512 27.3623 97.1152 27.0283C97.2852 26.6943 97.5225 26.3984 97.8271 26.1406C98.1377 25.8828 98.5098 25.6807 98.9434 25.5342C99.377 25.3877 99.8604 25.3145 100.394 25.3145C101.155 25.3145 101.806 25.4492 102.345 25.7188C102.884 25.9883 103.297 26.3486 103.584 26.7998C103.871 27.2451 104.015 27.7402 104.015 28.2852H102.389C102.389 28.0215 102.31 27.7666 102.151 27.5205C101.999 27.2686 101.773 27.0605 101.475 26.8965C101.182 26.7324 100.821 26.6504 100.394 26.6504C99.9424 26.6504 99.5762 26.7207 99.2949 26.8613C99.0195 26.9961 98.8174 27.1689 98.6885 27.3799C98.5654 27.5908 98.5039 27.8135 98.5039 28.0479C98.5039 28.2236 98.5332 28.3818 98.5918 28.5225C98.6562 28.6572 98.7676 28.7832 98.9258 28.9004C99.084 29.0117 99.3066 29.1172 99.5938 29.2168C99.8809 29.3164 100.247 29.416 100.692 29.5156C101.472 29.6914 102.113 29.9023 102.617 30.1484C103.121 30.3945 103.496 30.6963 103.742 31.0537C103.988 31.4111 104.111 31.8447 104.111 32.3545C104.111 32.7705 104.023 33.1514 103.848 33.4971C103.678 33.8428 103.429 34.1416 103.101 34.3936C102.778 34.6396 102.392 34.833 101.94 34.9736C101.495 35.1084 100.994 35.1758 100.438 35.1758C99.5996 35.1758 98.8906 35.0264 98.3105 34.7275C97.7305 34.4287 97.291 34.042 96.9922 33.5674C96.6934 33.0928 96.5439 32.5918 96.5439 32.0645H98.1787C98.2021 32.5098 98.3311 32.8643 98.5654 33.1279C98.7998 33.3857 99.0869 33.5703 99.4268 33.6816C99.7666 33.7871 100.104 33.8398 100.438 33.8398C100.883 33.8398 101.255 33.7812 101.554 33.6641C101.858 33.5469 102.09 33.3857 102.248 33.1807C102.406 32.9756 102.485 32.7412 102.485 32.4775ZM111.784 32.4775C111.784 32.2432 111.731 32.0264 111.626 31.8271C111.526 31.6221 111.318 31.4375 111.002 31.2734C110.691 31.1035 110.223 30.957 109.596 30.834C109.068 30.7227 108.591 30.5908 108.163 30.4385C107.741 30.2861 107.381 30.1016 107.082 29.8848C106.789 29.668 106.563 29.4131 106.405 29.1201C106.247 28.8271 106.168 28.4844 106.168 28.0918C106.168 27.7168 106.25 27.3623 106.414 27.0283C106.584 26.6943 106.821 26.3984 107.126 26.1406C107.437 25.8828 107.809 25.6807 108.242 25.5342C108.676 25.3877 109.159 25.3145 109.692 25.3145C110.454 25.3145 111.104 25.4492 111.644 25.7188C112.183 25.9883 112.596 26.3486 112.883 26.7998C113.17 27.2451 113.313 27.7402 113.313 28.2852H111.688C111.688 28.0215 111.608 27.7666 111.45 27.5205C111.298 27.2686 111.072 27.0605 110.773 26.8965C110.48 26.7324 110.12 26.6504 109.692 26.6504C109.241 26.6504 108.875 26.7207 108.594 26.8613C108.318 26.9961 108.116 27.1689 107.987 27.3799C107.864 27.5908 107.803 27.8135 107.803 28.0479C107.803 28.2236 107.832 28.3818 107.891 28.5225C107.955 28.6572 108.066 28.7832 108.225 28.9004C108.383 29.0117 108.605 29.1172 108.893 29.2168C109.18 29.3164 109.546 29.416 109.991 29.5156C110.771 29.6914 111.412 29.9023 111.916 30.1484C112.42 30.3945 112.795 30.6963 113.041 31.0537C113.287 31.4111 113.41 31.8447 113.41 32.3545C113.41 32.7705 113.322 33.1514 113.146 33.4971C112.977 33.8428 112.728 34.1416 112.399 34.3936C112.077 34.6396 111.69 34.833 111.239 34.9736C110.794 35.1084 110.293 35.1758 109.736 35.1758C108.898 35.1758 108.189 35.0264 107.609 34.7275C107.029 34.4287 106.59 34.042 106.291 33.5674C105.992 33.0928 105.843 32.5918 105.843 32.0645H107.478C107.501 32.5098 107.63 32.8643 107.864 33.1279C108.099 33.3857 108.386 33.5703 108.726 33.6816C109.065 33.7871 109.402 33.8398 109.736 33.8398C110.182 33.8398 110.554 33.7812 110.853 33.6641C111.157 33.5469 111.389 33.3857 111.547 33.1807C111.705 32.9756 111.784 32.7412 111.784 32.4775ZM121.153 33.374V28.4785C121.153 28.1035 121.077 27.7783 120.925 27.5029C120.778 27.2217 120.556 27.0049 120.257 26.8525C119.958 26.7002 119.589 26.624 119.149 26.624C118.739 26.624 118.379 26.6943 118.068 26.835C117.764 26.9756 117.523 27.1602 117.348 27.3887C117.178 27.6172 117.093 27.8633 117.093 28.127H115.467C115.467 27.7871 115.555 27.4502 115.73 27.1162C115.906 26.7822 116.158 26.4805 116.486 26.2109C116.82 25.9355 117.219 25.7188 117.682 25.5605C118.15 25.3965 118.672 25.3145 119.246 25.3145C119.938 25.3145 120.547 25.4316 121.074 25.666C121.607 25.9004 122.023 26.2549 122.322 26.7295C122.627 27.1982 122.779 27.7871 122.779 28.4961V32.9258C122.779 33.2422 122.806 33.5791 122.858 33.9365C122.917 34.2939 123.002 34.6016 123.113 34.8594V35H121.417C121.335 34.8125 121.271 34.5635 121.224 34.2529C121.177 33.9365 121.153 33.6436 121.153 33.374ZM121.435 29.2344L121.452 30.377H119.809C119.346 30.377 118.933 30.415 118.569 30.4912C118.206 30.5615 117.901 30.6699 117.655 30.8164C117.409 30.9629 117.222 31.1475 117.093 31.3701C116.964 31.5869 116.899 31.8418 116.899 32.1348C116.899 32.4336 116.967 32.7061 117.102 32.9521C117.236 33.1982 117.438 33.3945 117.708 33.541C117.983 33.6816 118.32 33.752 118.719 33.752C119.217 33.752 119.656 33.6465 120.037 33.4355C120.418 33.2246 120.72 32.9668 120.942 32.6621C121.171 32.3574 121.294 32.0615 121.312 31.7744L122.006 32.5566C121.965 32.8027 121.854 33.0752 121.672 33.374C121.49 33.6729 121.247 33.96 120.942 34.2354C120.644 34.5049 120.286 34.7305 119.87 34.9121C119.46 35.0879 118.997 35.1758 118.481 35.1758C117.837 35.1758 117.271 35.0498 116.785 34.7979C116.305 34.5459 115.93 34.209 115.66 33.7871C115.396 33.3594 115.265 32.8818 115.265 32.3545C115.265 31.8447 115.364 31.3965 115.563 31.0098C115.763 30.6172 116.05 30.292 116.425 30.0342C116.8 29.7705 117.251 29.5713 117.778 29.4365C118.306 29.3018 118.895 29.2344 119.545 29.2344H121.435ZM126.963 26.9844V35H125.337V25.4902H126.919L126.963 26.9844ZM129.934 25.4375L129.925 26.9492C129.79 26.9199 129.661 26.9023 129.538 26.8965C129.421 26.8848 129.286 26.8789 129.134 26.8789C128.759 26.8789 128.428 26.9375 128.141 27.0547C127.854 27.1719 127.61 27.3359 127.411 27.5469C127.212 27.7578 127.054 28.0098 126.937 28.3027C126.825 28.5898 126.752 28.9062 126.717 29.252L126.26 29.5156C126.26 28.9414 126.315 28.4023 126.427 27.8984C126.544 27.3945 126.723 26.9492 126.963 26.5625C127.203 26.1699 127.508 25.8652 127.877 25.6484C128.252 25.4258 128.697 25.3145 129.213 25.3145C129.33 25.3145 129.465 25.3291 129.617 25.3584C129.77 25.3818 129.875 25.4082 129.934 25.4375ZM137.527 27.3184V38.6562H135.893V25.4902H137.387L137.527 27.3184ZM143.935 30.166V30.3506C143.935 31.042 143.853 31.6836 143.688 32.2754C143.524 32.8613 143.284 33.3711 142.968 33.8047C142.657 34.2383 142.273 34.5752 141.816 34.8154C141.359 35.0557 140.835 35.1758 140.243 35.1758C139.64 35.1758 139.106 35.0762 138.644 34.877C138.181 34.6777 137.788 34.3877 137.466 34.0068C137.144 33.626 136.886 33.1689 136.692 32.6357C136.505 32.1025 136.376 31.502 136.306 30.834V29.8496C136.376 29.1465 136.508 28.5166 136.701 27.96C136.895 27.4033 137.149 26.9287 137.466 26.5361C137.788 26.1377 138.178 25.8359 138.635 25.6309C139.092 25.4199 139.619 25.3145 140.217 25.3145C140.814 25.3145 141.345 25.4316 141.808 25.666C142.271 25.8945 142.66 26.2227 142.977 26.6504C143.293 27.0781 143.53 27.5908 143.688 28.1885C143.853 28.7803 143.935 29.4395 143.935 30.166ZM142.3 30.3506V30.166C142.3 29.6914 142.25 29.2461 142.15 28.8301C142.051 28.4082 141.896 28.0391 141.685 27.7227C141.479 27.4004 141.216 27.1484 140.894 26.9668C140.571 26.7793 140.188 26.6855 139.742 26.6855C139.332 26.6855 138.975 26.7559 138.67 26.8965C138.371 27.0371 138.116 27.2275 137.905 27.4678C137.694 27.7021 137.521 27.9717 137.387 28.2764C137.258 28.5752 137.161 28.8857 137.097 29.208V31.4844C137.214 31.8945 137.378 32.2812 137.589 32.6445C137.8 33.002 138.081 33.292 138.433 33.5146C138.784 33.7314 139.227 33.8398 139.76 33.8398C140.199 33.8398 140.577 33.749 140.894 33.5674C141.216 33.3799 141.479 33.125 141.685 32.8027C141.896 32.4805 142.051 32.1113 142.15 31.6953C142.25 31.2734 142.3 30.8252 142.3 30.3506ZM151.616 33.374V28.4785C151.616 28.1035 151.54 27.7783 151.388 27.5029C151.241 27.2217 151.019 27.0049 150.72 26.8525C150.421 26.7002 150.052 26.624 149.612 26.624C149.202 26.624 148.842 26.6943 148.531 26.835C148.227 26.9756 147.986 27.1602 147.811 27.3887C147.641 27.6172 147.556 27.8633 147.556 28.127H145.93C145.93 27.7871 146.018 27.4502 146.193 27.1162C146.369 26.7822 146.621 26.4805 146.949 26.2109C147.283 25.9355 147.682 25.7188 148.145 25.5605C148.613 25.3965 149.135 25.3145 149.709 25.3145C150.4 25.3145 151.01 25.4316 151.537 25.666C152.07 25.9004 152.486 26.2549 152.785 26.7295C153.09 27.1982 153.242 27.7871 153.242 28.4961V32.9258C153.242 33.2422 153.269 33.5791 153.321 33.9365C153.38 34.2939 153.465 34.6016 153.576 34.8594V35H151.88C151.798 34.8125 151.733 34.5635 151.687 34.2529C151.64 33.9365 151.616 33.6436 151.616 33.374ZM151.897 29.2344L151.915 30.377H150.271C149.809 30.377 149.396 30.415 149.032 30.4912C148.669 30.5615 148.364 30.6699 148.118 30.8164C147.872 30.9629 147.685 31.1475 147.556 31.3701C147.427 31.5869 147.362 31.8418 147.362 32.1348C147.362 32.4336 147.43 32.7061 147.564 32.9521C147.699 33.1982 147.901 33.3945 148.171 33.541C148.446 33.6816 148.783 33.752 149.182 33.752C149.68 33.752 150.119 33.6465 150.5 33.4355C150.881 33.2246 151.183 32.9668 151.405 32.6621C151.634 32.3574 151.757 32.0615 151.774 31.7744L152.469 32.5566C152.428 32.8027 152.316 33.0752 152.135 33.374C151.953 33.6729 151.71 33.96 151.405 34.2354C151.106 34.5049 150.749 34.7305 150.333 34.9121C149.923 35.0879 149.46 35.1758 148.944 35.1758C148.3 35.1758 147.734 35.0498 147.248 34.7979C146.768 34.5459 146.393 34.209 146.123 33.7871C145.859 33.3594 145.728 32.8818 145.728 32.3545C145.728 31.8447 145.827 31.3965 146.026 31.0098C146.226 30.6172 146.513 30.292 146.888 30.0342C147.263 29.7705 147.714 29.5713 148.241 29.4365C148.769 29.3018 149.357 29.2344 150.008 29.2344H151.897ZM148.988 24.084L150.693 21.5H152.653L150.298 24.084H148.988ZM161.961 25.4902H163.438V34.7979C163.438 35.6357 163.268 36.3506 162.928 36.9424C162.588 37.5342 162.113 37.9824 161.504 38.2871C160.9 38.5977 160.203 38.7529 159.412 38.7529C159.084 38.7529 158.697 38.7002 158.252 38.5947C157.812 38.4951 157.379 38.3223 156.951 38.0762C156.529 37.8359 156.175 37.5107 155.888 37.1006L156.74 36.1338C157.139 36.6143 157.555 36.9482 157.988 37.1357C158.428 37.3232 158.861 37.417 159.289 37.417C159.805 37.417 160.25 37.3203 160.625 37.127C161 36.9336 161.29 36.6465 161.495 36.2656C161.706 35.8906 161.812 35.4277 161.812 34.877V27.582L161.961 25.4902ZM155.413 30.3506V30.166C155.413 29.4395 155.498 28.7803 155.668 28.1885C155.844 27.5908 156.093 27.0781 156.415 26.6504C156.743 26.2227 157.139 25.8945 157.602 25.666C158.064 25.4316 158.586 25.3145 159.166 25.3145C159.764 25.3145 160.285 25.4199 160.73 25.6309C161.182 25.8359 161.562 26.1377 161.873 26.5361C162.189 26.9287 162.438 27.4033 162.62 27.96C162.802 28.5166 162.928 29.1465 162.998 29.8496V30.6582C162.934 31.3555 162.808 31.9824 162.62 32.5391C162.438 33.0957 162.189 33.5703 161.873 33.9629C161.562 34.3555 161.182 34.6572 160.73 34.8682C160.279 35.0732 159.752 35.1758 159.148 35.1758C158.58 35.1758 158.064 35.0557 157.602 34.8154C157.145 34.5752 156.752 34.2383 156.424 33.8047C156.096 33.3711 155.844 32.8613 155.668 32.2754C155.498 31.6836 155.413 31.042 155.413 30.3506ZM157.039 30.166V30.3506C157.039 30.8252 157.086 31.2705 157.18 31.6865C157.279 32.1025 157.429 32.4688 157.628 32.7852C157.833 33.1016 158.094 33.3506 158.41 33.5322C158.727 33.708 159.104 33.7959 159.544 33.7959C160.083 33.7959 160.528 33.6816 160.88 33.4531C161.231 33.2246 161.51 32.9229 161.715 32.5479C161.926 32.1729 162.09 31.7656 162.207 31.3262V29.208C162.143 28.8857 162.043 28.5752 161.908 28.2764C161.779 27.9717 161.609 27.7021 161.398 27.4678C161.193 27.2275 160.938 27.0371 160.634 26.8965C160.329 26.7559 159.972 26.6855 159.562 26.6855C159.116 26.6855 158.732 26.7793 158.41 26.9668C158.094 27.1484 157.833 27.4004 157.628 27.7227C157.429 28.0391 157.279 28.4082 157.18 28.8301C157.086 29.2461 157.039 29.6914 157.039 30.166ZM167.674 25.4902V35H166.039V25.4902H167.674ZM165.916 22.9678C165.916 22.7041 165.995 22.4814 166.153 22.2998C166.317 22.1182 166.558 22.0273 166.874 22.0273C167.185 22.0273 167.422 22.1182 167.586 22.2998C167.756 22.4814 167.841 22.7041 167.841 22.9678C167.841 23.2197 167.756 23.4365 167.586 23.6182C167.422 23.7939 167.185 23.8818 166.874 23.8818C166.558 23.8818 166.317 23.7939 166.153 23.6182C165.995 23.4365 165.916 23.2197 165.916 22.9678ZM171.91 27.5205V35H170.284V25.4902H171.822L171.91 27.5205ZM171.523 29.8848L170.847 29.8584C170.853 29.208 170.949 28.6074 171.137 28.0566C171.324 27.5 171.588 27.0166 171.928 26.6064C172.268 26.1963 172.672 25.8799 173.141 25.6572C173.615 25.4287 174.14 25.3145 174.714 25.3145C175.183 25.3145 175.604 25.3789 175.979 25.5078C176.354 25.6309 176.674 25.8301 176.938 26.1055C177.207 26.3809 177.412 26.7383 177.553 27.1777C177.693 27.6113 177.764 28.1416 177.764 28.7686V35H176.129V28.751C176.129 28.2529 176.056 27.8545 175.909 27.5557C175.763 27.251 175.549 27.0312 175.268 26.8965C174.986 26.7559 174.641 26.6855 174.23 26.6855C173.826 26.6855 173.457 26.7705 173.123 26.9404C172.795 27.1104 172.511 27.3447 172.271 27.6436C172.036 27.9424 171.852 28.2852 171.717 28.6719C171.588 29.0527 171.523 29.457 171.523 29.8848ZM185.841 33.374V28.4785C185.841 28.1035 185.765 27.7783 185.612 27.5029C185.466 27.2217 185.243 27.0049 184.944 26.8525C184.646 26.7002 184.276 26.624 183.837 26.624C183.427 26.624 183.066 26.6943 182.756 26.835C182.451 26.9756 182.211 27.1602 182.035 27.3887C181.865 27.6172 181.78 27.8633 181.78 28.127H180.154C180.154 27.7871 180.242 27.4502 180.418 27.1162C180.594 26.7822 180.846 26.4805 181.174 26.2109C181.508 25.9355 181.906 25.7188 182.369 25.5605C182.838 25.3965 183.359 25.3145 183.934 25.3145C184.625 25.3145 185.234 25.4316 185.762 25.666C186.295 25.9004 186.711 26.2549 187.01 26.7295C187.314 27.1982 187.467 27.7871 187.467 28.4961V32.9258C187.467 33.2422 187.493 33.5791 187.546 33.9365C187.604 34.2939 187.689 34.6016 187.801 34.8594V35H186.104C186.022 34.8125 185.958 34.5635 185.911 34.2529C185.864 33.9365 185.841 33.6436 185.841 33.374ZM186.122 29.2344L186.14 30.377H184.496C184.033 30.377 183.62 30.415 183.257 30.4912C182.894 30.5615 182.589 30.6699 182.343 30.8164C182.097 30.9629 181.909 31.1475 181.78 31.3701C181.651 31.5869 181.587 31.8418 181.587 32.1348C181.587 32.4336 181.654 32.7061 181.789 32.9521C181.924 33.1982 182.126 33.3945 182.396 33.541C182.671 33.6816 183.008 33.752 183.406 33.752C183.904 33.752 184.344 33.6465 184.725 33.4355C185.105 33.2246 185.407 32.9668 185.63 32.6621C185.858 32.3574 185.981 32.0615 185.999 31.7744L186.693 32.5566C186.652 32.8027 186.541 33.0752 186.359 33.374C186.178 33.6729 185.935 33.96 185.63 34.2354C185.331 34.5049 184.974 34.7305 184.558 34.9121C184.147 35.0879 183.685 35.1758 183.169 35.1758C182.524 35.1758 181.959 35.0498 181.473 34.7979C180.992 34.5459 180.617 34.209 180.348 33.7871C180.084 33.3594 179.952 32.8818 179.952 32.3545C179.952 31.8447 180.052 31.3965 180.251 31.0098C180.45 30.6172 180.737 30.292 181.112 30.0342C181.487 29.7705 181.938 29.5713 182.466 29.4365C182.993 29.3018 183.582 29.2344 184.232 29.2344H186.122ZM200.483 33.1543V21.5H202.118V35H200.624L200.483 33.1543ZM194.085 30.3506V30.166C194.085 29.4395 194.173 28.7803 194.349 28.1885C194.53 27.5908 194.785 27.0781 195.113 26.6504C195.447 26.2227 195.843 25.8945 196.3 25.666C196.763 25.4316 197.278 25.3145 197.847 25.3145C198.444 25.3145 198.966 25.4199 199.411 25.6309C199.862 25.8359 200.243 26.1377 200.554 26.5361C200.87 26.9287 201.119 27.4033 201.301 27.96C201.482 28.5166 201.608 29.1465 201.679 29.8496V30.6582C201.614 31.3555 201.488 31.9824 201.301 32.5391C201.119 33.0957 200.87 33.5703 200.554 33.9629C200.243 34.3555 199.862 34.6572 199.411 34.8682C198.96 35.0732 198.433 35.1758 197.829 35.1758C197.272 35.1758 196.763 35.0557 196.3 34.8154C195.843 34.5752 195.447 34.2383 195.113 33.8047C194.785 33.3711 194.53 32.8613 194.349 32.2754C194.173 31.6836 194.085 31.042 194.085 30.3506ZM195.72 30.166V30.3506C195.72 30.8252 195.767 31.2705 195.86 31.6865C195.96 32.1025 196.112 32.4688 196.317 32.7852C196.522 33.1016 196.783 33.3506 197.1 33.5322C197.416 33.708 197.794 33.7959 198.233 33.7959C198.772 33.7959 199.215 33.6816 199.561 33.4531C199.912 33.2246 200.193 32.9229 200.404 32.5479C200.615 32.1729 200.779 31.7656 200.896 31.3262V29.208C200.826 28.8857 200.724 28.5752 200.589 28.2764C200.46 27.9717 200.29 27.7021 200.079 27.4678C199.874 27.2275 199.619 27.0371 199.314 26.8965C199.016 26.7559 198.661 26.6855 198.251 26.6855C197.806 26.6855 197.422 26.7793 197.1 26.9668C196.783 27.1484 196.522 27.4004 196.317 27.7227C196.112 28.0391 195.96 28.4082 195.86 28.8301C195.767 29.2461 195.72 29.6914 195.72 30.166ZM204.219 30.3506V30.1484C204.219 29.4629 204.318 28.8271 204.518 28.2412C204.717 27.6494 205.004 27.1367 205.379 26.7031C205.754 26.2637 206.208 25.9238 206.741 25.6836C207.274 25.4375 207.872 25.3145 208.534 25.3145C209.202 25.3145 209.803 25.4375 210.336 25.6836C210.875 25.9238 211.332 26.2637 211.707 26.7031C212.088 27.1367 212.378 27.6494 212.577 28.2412C212.776 28.8271 212.876 29.4629 212.876 30.1484V30.3506C212.876 31.0361 212.776 31.6719 212.577 32.2578C212.378 32.8438 212.088 33.3564 211.707 33.7959C211.332 34.2295 210.878 34.5693 210.345 34.8154C209.817 35.0557 209.22 35.1758 208.552 35.1758C207.884 35.1758 207.283 35.0557 206.75 34.8154C206.217 34.5693 205.76 34.2295 205.379 33.7959C205.004 33.3564 204.717 32.8438 204.518 32.2578C204.318 31.6719 204.219 31.0361 204.219 30.3506ZM205.845 30.1484V30.3506C205.845 30.8252 205.9 31.2734 206.012 31.6953C206.123 32.1113 206.29 32.4805 206.513 32.8027C206.741 33.125 207.025 33.3799 207.365 33.5674C207.705 33.749 208.101 33.8398 208.552 33.8398C208.997 33.8398 209.387 33.749 209.721 33.5674C210.061 33.3799 210.342 33.125 210.564 32.8027C210.787 32.4805 210.954 32.1113 211.065 31.6953C211.183 31.2734 211.241 30.8252 211.241 30.3506V30.1484C211.241 29.6797 211.183 29.2373 211.065 28.8213C210.954 28.3994 210.784 28.0273 210.556 27.7051C210.333 27.377 210.052 27.1191 209.712 26.9316C209.378 26.7441 208.985 26.6504 208.534 26.6504C208.089 26.6504 207.696 26.7441 207.356 26.9316C207.022 27.1191 206.741 27.377 206.513 27.7051C206.29 28.0273 206.123 28.3994 206.012 28.8213C205.9 29.2373 205.845 29.6797 205.845 30.1484ZM225.374 33.1543V21.5H227.009V35H225.515L225.374 33.1543ZM218.976 30.3506V30.166C218.976 29.4395 219.063 28.7803 219.239 28.1885C219.421 27.5908 219.676 27.0781 220.004 26.6504C220.338 26.2227 220.733 25.8945 221.19 25.666C221.653 25.4316 222.169 25.3145 222.737 25.3145C223.335 25.3145 223.856 25.4199 224.302 25.6309C224.753 25.8359 225.134 26.1377 225.444 26.5361C225.761 26.9287 226.01 27.4033 226.191 27.96C226.373 28.5166 226.499 29.1465 226.569 29.8496V30.6582C226.505 31.3555 226.379 31.9824 226.191 32.5391C226.01 33.0957 225.761 33.5703 225.444 33.9629C225.134 34.3555 224.753 34.6572 224.302 34.8682C223.851 35.0732 223.323 35.1758 222.72 35.1758C222.163 35.1758 221.653 35.0557 221.19 34.8154C220.733 34.5752 220.338 34.2383 220.004 33.8047C219.676 33.3711 219.421 32.8613 219.239 32.2754C219.063 31.6836 218.976 31.042 218.976 30.3506ZM220.61 30.166V30.3506C220.61 30.8252 220.657 31.2705 220.751 31.6865C220.851 32.1025 221.003 32.4688 221.208 32.7852C221.413 33.1016 221.674 33.3506 221.99 33.5322C222.307 33.708 222.685 33.7959 223.124 33.7959C223.663 33.7959 224.105 33.6816 224.451 33.4531C224.803 33.2246 225.084 32.9229 225.295 32.5479C225.506 32.1729 225.67 31.7656 225.787 31.3262V29.208C225.717 28.8857 225.614 28.5752 225.479 28.2764C225.351 27.9717 225.181 27.7021 224.97 27.4678C224.765 27.2275 224.51 27.0371 224.205 26.8965C223.906 26.7559 223.552 26.6855 223.142 26.6855C222.696 26.6855 222.312 26.7793 221.99 26.9668C221.674 27.1484 221.413 27.4004 221.208 27.7227C221.003 28.0391 220.851 28.4082 220.751 28.8301C220.657 29.2461 220.61 29.6914 220.61 30.166ZM233.486 35.1758C232.824 35.1758 232.224 35.0645 231.685 34.8418C231.151 34.6133 230.691 34.2939 230.305 33.8838C229.924 33.4736 229.631 32.9873 229.426 32.4248C229.221 31.8623 229.118 31.2471 229.118 30.5791V30.21C229.118 29.4365 229.232 28.748 229.461 28.1445C229.689 27.5352 230 27.0195 230.393 26.5977C230.785 26.1758 231.23 25.8564 231.729 25.6396C232.227 25.4229 232.742 25.3145 233.275 25.3145C233.955 25.3145 234.541 25.4316 235.033 25.666C235.531 25.9004 235.938 26.2285 236.255 26.6504C236.571 27.0664 236.806 27.5586 236.958 28.127C237.11 28.6895 237.187 29.3047 237.187 29.9727V30.7021H230.085V29.375H235.561V29.252C235.537 28.8301 235.449 28.4199 235.297 28.0215C235.15 27.623 234.916 27.2949 234.594 27.0371C234.271 26.7793 233.832 26.6504 233.275 26.6504C232.906 26.6504 232.566 26.7295 232.256 26.8877C231.945 27.04 231.679 27.2686 231.456 27.5732C231.233 27.8779 231.061 28.25 230.938 28.6895C230.814 29.1289 230.753 29.6357 230.753 30.21V30.5791C230.753 31.0303 230.814 31.4551 230.938 31.8535C231.066 32.2461 231.251 32.5918 231.491 32.8906C231.737 33.1895 232.033 33.4238 232.379 33.5938C232.73 33.7637 233.129 33.8486 233.574 33.8486C234.148 33.8486 234.635 33.7314 235.033 33.4971C235.432 33.2627 235.78 32.9492 236.079 32.5566L237.063 33.3389C236.858 33.6494 236.598 33.9453 236.281 34.2266C235.965 34.5078 235.575 34.7363 235.112 34.9121C234.655 35.0879 234.113 35.1758 233.486 35.1758ZM244.622 32.4775C244.622 32.2432 244.569 32.0264 244.464 31.8271C244.364 31.6221 244.156 31.4375 243.84 31.2734C243.529 31.1035 243.061 30.957 242.434 30.834C241.906 30.7227 241.429 30.5908 241.001 30.4385C240.579 30.2861 240.219 30.1016 239.92 29.8848C239.627 29.668 239.401 29.4131 239.243 29.1201C239.085 28.8271 239.006 28.4844 239.006 28.0918C239.006 27.7168 239.088 27.3623 239.252 27.0283C239.422 26.6943 239.659 26.3984 239.964 26.1406C240.274 25.8828 240.646 25.6807 241.08 25.5342C241.514 25.3877 241.997 25.3145 242.53 25.3145C243.292 25.3145 243.942 25.4492 244.481 25.7188C245.021 25.9883 245.434 26.3486 245.721 26.7998C246.008 27.2451 246.151 27.7402 246.151 28.2852H244.525C244.525 28.0215 244.446 27.7666 244.288 27.5205C244.136 27.2686 243.91 27.0605 243.611 26.8965C243.318 26.7324 242.958 26.6504 242.53 26.6504C242.079 26.6504 241.713 26.7207 241.432 26.8613C241.156 26.9961 240.954 27.1689 240.825 27.3799C240.702 27.5908 240.641 27.8135 240.641 28.0479C240.641 28.2236 240.67 28.3818 240.729 28.5225C240.793 28.6572 240.904 28.7832 241.062 28.9004C241.221 29.0117 241.443 29.1172 241.73 29.2168C242.018 29.3164 242.384 29.416 242.829 29.5156C243.608 29.6914 244.25 29.9023 244.754 30.1484C245.258 30.3945 245.633 30.6963 245.879 31.0537C246.125 31.4111 246.248 31.8447 246.248 32.3545C246.248 32.7705 246.16 33.1514 245.984 33.4971C245.814 33.8428 245.565 34.1416 245.237 34.3936C244.915 34.6396 244.528 34.833 244.077 34.9736C243.632 35.1084 243.131 35.1758 242.574 35.1758C241.736 35.1758 241.027 35.0264 240.447 34.7275C239.867 34.4287 239.428 34.042 239.129 33.5674C238.83 33.0928 238.681 32.5918 238.681 32.0645H240.315C240.339 32.5098 240.468 32.8643 240.702 33.1279C240.937 33.3857 241.224 33.5703 241.563 33.6816C241.903 33.7871 242.24 33.8398 242.574 33.8398C243.02 33.8398 243.392 33.7812 243.69 33.6641C243.995 33.5469 244.227 33.3857 244.385 33.1807C244.543 32.9756 244.622 32.7412 244.622 32.4775ZM253.991 33.374V28.4785C253.991 28.1035 253.915 27.7783 253.763 27.5029C253.616 27.2217 253.394 27.0049 253.095 26.8525C252.796 26.7002 252.427 26.624 251.987 26.624C251.577 26.624 251.217 26.6943 250.906 26.835C250.602 26.9756 250.361 27.1602 250.186 27.3887C250.016 27.6172 249.931 27.8633 249.931 28.127H248.305C248.305 27.7871 248.393 27.4502 248.568 27.1162C248.744 26.7822 248.996 26.4805 249.324 26.2109C249.658 25.9355 250.057 25.7188 250.52 25.5605C250.988 25.3965 251.51 25.3145 252.084 25.3145C252.775 25.3145 253.385 25.4316 253.912 25.666C254.445 25.9004 254.861 26.2549 255.16 26.7295C255.465 27.1982 255.617 27.7871 255.617 28.4961V32.9258C255.617 33.2422 255.644 33.5791 255.696 33.9365C255.755 34.2939 255.84 34.6016 255.951 34.8594V35H254.255C254.173 34.8125 254.108 34.5635 254.062 34.2529C254.015 33.9365 253.991 33.6436 253.991 33.374ZM254.272 29.2344L254.29 30.377H252.646C252.184 30.377 251.771 30.415 251.407 30.4912C251.044 30.5615 250.739 30.6699 250.493 30.8164C250.247 30.9629 250.06 31.1475 249.931 31.3701C249.802 31.5869 249.737 31.8418 249.737 32.1348C249.737 32.4336 249.805 32.7061 249.939 32.9521C250.074 33.1982 250.276 33.3945 250.546 33.541C250.821 33.6816 251.158 33.752 251.557 33.752C252.055 33.752 252.494 33.6465 252.875 33.4355C253.256 33.2246 253.558 32.9668 253.78 32.6621C254.009 32.3574 254.132 32.0615 254.149 31.7744L254.844 32.5566C254.803 32.8027 254.691 33.0752 254.51 33.374C254.328 33.6729 254.085 33.96 253.78 34.2354C253.481 34.5049 253.124 34.7305 252.708 34.9121C252.298 35.0879 251.835 35.1758 251.319 35.1758C250.675 35.1758 250.109 35.0498 249.623 34.7979C249.143 34.5459 248.768 34.209 248.498 33.7871C248.234 33.3594 248.103 32.8818 248.103 32.3545C248.103 31.8447 248.202 31.3965 248.401 31.0098C248.601 30.6172 248.888 30.292 249.263 30.0342C249.638 29.7705 250.089 29.5713 250.616 29.4365C251.144 29.3018 251.732 29.2344 252.383 29.2344H254.272ZM260.346 35H258.72V24.6641C258.72 23.9434 258.86 23.334 259.142 22.8359C259.423 22.3379 259.824 21.96 260.346 21.7021C260.867 21.4443 261.485 21.3154 262.2 21.3154C262.622 21.3154 263.035 21.3682 263.439 21.4736C263.844 21.5732 264.26 21.6992 264.688 21.8516L264.415 23.2227C264.146 23.1172 263.832 23.0176 263.475 22.9238C263.123 22.8242 262.736 22.7744 262.314 22.7744C261.617 22.7744 261.113 22.9326 260.803 23.249C260.498 23.5596 260.346 24.0312 260.346 24.6641V35ZM262.288 25.4902V26.7383H257.217V25.4902H262.288ZM265.487 25.4902V35H263.861V25.4902H265.487ZM267.729 30.3506V30.1484C267.729 29.4629 267.828 28.8271 268.027 28.2412C268.227 27.6494 268.514 27.1367 268.889 26.7031C269.264 26.2637 269.718 25.9238 270.251 25.6836C270.784 25.4375 271.382 25.3145 272.044 25.3145C272.712 25.3145 273.312 25.4375 273.846 25.6836C274.385 25.9238 274.842 26.2637 275.217 26.7031C275.598 27.1367 275.888 27.6494 276.087 28.2412C276.286 28.8271 276.386 29.4629 276.386 30.1484V30.3506C276.386 31.0361 276.286 31.6719 276.087 32.2578C275.888 32.8438 275.598 33.3564 275.217 33.7959C274.842 34.2295 274.388 34.5693 273.854 34.8154C273.327 35.0557 272.729 35.1758 272.062 35.1758C271.394 35.1758 270.793 35.0557 270.26 34.8154C269.727 34.5693 269.27 34.2295 268.889 33.7959C268.514 33.3564 268.227 32.8438 268.027 32.2578C267.828 31.6719 267.729 31.0361 267.729 30.3506ZM269.354 30.1484V30.3506C269.354 30.8252 269.41 31.2734 269.521 31.6953C269.633 32.1113 269.8 32.4805 270.022 32.8027C270.251 33.125 270.535 33.3799 270.875 33.5674C271.215 33.749 271.61 33.8398 272.062 33.8398C272.507 33.8398 272.896 33.749 273.23 33.5674C273.57 33.3799 273.852 33.125 274.074 32.8027C274.297 32.4805 274.464 32.1113 274.575 31.6953C274.692 31.2734 274.751 30.8252 274.751 30.3506V30.1484C274.751 29.6797 274.692 29.2373 274.575 28.8213C274.464 28.3994 274.294 28.0273 274.065 27.7051C273.843 27.377 273.562 27.1191 273.222 26.9316C272.888 26.7441 272.495 26.6504 272.044 26.6504C271.599 26.6504 271.206 26.7441 270.866 26.9316C270.532 27.1191 270.251 27.377 270.022 27.7051C269.8 28.0273 269.633 28.3994 269.521 28.8213C269.41 29.2373 269.354 29.6797 269.354 30.1484Z" fill="#C9D1D9"/>
<path d="M46 26L51 31L46 36" stroke="#C9D1D9" stroke-width="2" stroke-linecap="round" stroke-linejoin="round"/>
<path d="M35 20V27C35 28.0609 35.4214 29.0783 36.1716 29.8284C36.9217 30.5786 37.9391 31 39 31H51" stroke="#C9D1D9" stroke-width="2" stroke-linecap="round" stroke-linejoin="round"/>
<path d="M738.817 32H737.27L737.279 30.8574H738.817C739.201 30.8574 739.525 30.7712 739.789 30.5986C740.053 30.4229 740.251 30.1673 740.385 29.832C740.521 29.4967 740.59 29.0915 740.59 28.6162V28.2695C740.59 27.9049 740.551 27.5843 740.473 27.3076C740.398 27.0309 740.285 26.7982 740.136 26.6094C739.986 26.4206 739.802 26.279 739.584 26.1846C739.366 26.0869 739.115 26.0381 738.832 26.0381H737.24V24.8906H738.832C739.307 24.8906 739.742 24.972 740.136 25.1348C740.533 25.2943 740.876 25.5238 741.166 25.8232C741.456 26.1227 741.679 26.4808 741.835 26.8975C741.994 27.3109 742.074 27.7715 742.074 28.2793V28.6162C742.074 29.1208 741.994 29.5814 741.835 29.998C741.679 30.4147 741.456 30.7728 741.166 31.0723C740.88 31.3685 740.536 31.598 740.136 31.7607C739.739 31.9202 739.299 32 738.817 32ZM738.1 24.8906V32H736.635V24.8906H738.1ZM745.482 32.0977C745.072 32.0977 744.704 32.0326 744.379 31.9023C744.053 31.7689 743.777 31.585 743.549 31.3506C743.324 31.1162 743.152 30.8444 743.031 30.5352C742.911 30.2227 742.851 29.8906 742.851 29.5391V29.3438C742.851 28.9434 742.908 28.5771 743.021 28.2451C743.135 27.9131 743.298 27.625 743.51 27.3809C743.725 27.1367 743.985 26.9495 744.291 26.8193C744.597 26.6859 744.942 26.6191 745.326 26.6191C745.701 26.6191 746.033 26.681 746.322 26.8047C746.612 26.9284 746.854 27.1042 747.05 27.332C747.248 27.5599 747.398 27.8333 747.499 28.1523C747.6 28.4681 747.65 28.8197 747.65 29.207V29.793H743.451V28.8555H746.269V28.748C746.269 28.5527 746.233 28.3786 746.161 28.2256C746.093 28.0693 745.989 27.9456 745.849 27.8545C745.709 27.7633 745.53 27.7178 745.312 27.7178C745.126 27.7178 744.966 27.7585 744.833 27.8398C744.7 27.9212 744.59 28.0352 744.506 28.1816C744.424 28.3281 744.363 28.5007 744.32 28.6992C744.281 28.8945 744.262 29.1094 744.262 29.3438V29.5391C744.262 29.7507 744.291 29.946 744.35 30.125C744.411 30.304 744.498 30.4587 744.608 30.5889C744.722 30.7191 744.859 30.82 745.019 30.8916C745.181 30.9632 745.365 30.999 745.57 30.999C745.824 30.999 746.06 30.9502 746.278 30.8525C746.5 30.7516 746.69 30.6003 746.85 30.3984L747.533 31.1406C747.423 31.3001 747.271 31.4531 747.079 31.5996C746.89 31.7461 746.662 31.8665 746.396 31.9609C746.129 32.0521 745.824 32.0977 745.482 32.0977ZM750.18 30.9746L751.352 26.7168H752.821L751.039 32H750.15L750.18 30.9746ZM749.374 26.7168L750.551 30.9795L750.575 32H749.682L747.899 26.7168H749.374ZM757.66 29.6416H759.12C759.091 30.1201 758.959 30.5449 758.725 30.916C758.493 31.2871 758.17 31.5768 757.753 31.7852C757.34 31.9935 756.841 32.0977 756.259 32.0977C755.803 32.0977 755.395 32.0195 755.033 31.8633C754.672 31.7038 754.363 31.4759 754.105 31.1797C753.852 30.8835 753.658 30.5254 753.524 30.1055C753.391 29.6855 753.324 29.2152 753.324 28.6943V28.2012C753.324 27.6803 753.393 27.21 753.529 26.79C753.669 26.3669 753.868 26.0072 754.125 25.7109C754.385 25.4147 754.696 25.1868 755.058 25.0273C755.419 24.8678 755.823 24.7881 756.269 24.7881C756.861 24.7881 757.361 24.8955 757.768 25.1104C758.178 25.3252 758.495 25.6214 758.72 25.999C758.948 26.3766 759.084 26.8063 759.13 27.2881H757.665C757.649 27.0016 757.592 26.7591 757.494 26.5605C757.396 26.3587 757.248 26.2074 757.05 26.1064C756.854 26.0023 756.594 25.9502 756.269 25.9502C756.024 25.9502 755.811 25.9958 755.629 26.0869C755.447 26.1781 755.294 26.3164 755.17 26.502C755.046 26.6875 754.953 26.9219 754.892 27.2051C754.833 27.485 754.804 27.8138 754.804 28.1914V28.6943C754.804 29.0622 754.831 29.3861 754.887 29.666C754.942 29.9427 755.027 30.1771 755.141 30.3691C755.258 30.5579 755.408 30.7012 755.59 30.7988C755.775 30.8932 755.998 30.9404 756.259 30.9404C756.565 30.9404 756.817 30.8916 757.016 30.7939C757.214 30.6963 757.366 30.5514 757.47 30.3594C757.577 30.1673 757.641 29.9281 757.66 29.6416ZM761.366 24.5V32H759.96V24.5H761.366ZM761.166 29.1729H760.78C760.784 28.805 760.832 28.4665 760.927 28.1572C761.021 27.8447 761.156 27.5745 761.332 27.3467C761.508 27.1156 761.718 26.9365 761.962 26.8096C762.209 26.6826 762.483 26.6191 762.782 26.6191C763.043 26.6191 763.279 26.6566 763.49 26.7314C763.705 26.8031 763.889 26.9202 764.042 27.083C764.198 27.2425 764.319 27.4525 764.403 27.7129C764.488 27.9733 764.53 28.2891 764.53 28.6602V32H763.114V28.6504C763.114 28.416 763.08 28.2321 763.012 28.0986C762.947 27.9619 762.851 27.8659 762.724 27.8105C762.6 27.752 762.447 27.7227 762.265 27.7227C762.063 27.7227 761.89 27.7601 761.747 27.835C761.607 27.9098 761.495 28.014 761.41 28.1475C761.326 28.2777 761.264 28.4307 761.225 28.6064C761.186 28.7822 761.166 28.971 761.166 29.1729ZM768.451 30.8086V28.4551C768.451 28.2858 768.424 28.141 768.368 28.0205C768.313 27.8968 768.227 27.8008 768.109 27.7324C767.995 27.6641 767.847 27.6299 767.665 27.6299C767.509 27.6299 767.374 27.6576 767.26 27.7129C767.146 27.765 767.058 27.8415 766.996 27.9424C766.934 28.04 766.903 28.1556 766.903 28.2891H765.497C765.497 28.0645 765.549 27.8512 765.653 27.6494C765.757 27.4476 765.909 27.2702 766.107 27.1172C766.306 26.9609 766.542 26.8389 766.815 26.751C767.092 26.6631 767.401 26.6191 767.743 26.6191C768.153 26.6191 768.518 26.6875 768.837 26.8242C769.156 26.9609 769.407 27.166 769.589 27.4395C769.774 27.7129 769.867 28.0547 769.867 28.4648V30.7256C769.867 31.0153 769.885 31.2529 769.921 31.4385C769.957 31.6208 770.009 31.7803 770.077 31.917V32H768.656C768.588 31.8568 768.536 31.6777 768.5 31.4629C768.467 31.2448 768.451 31.0267 768.451 30.8086ZM768.637 28.7822L768.646 29.5781H767.86C767.675 29.5781 767.514 29.5993 767.377 29.6416C767.24 29.6839 767.128 29.7441 767.04 29.8223C766.952 29.8971 766.887 29.985 766.845 30.0859C766.806 30.1868 766.786 30.2975 766.786 30.418C766.786 30.5384 766.814 30.6475 766.869 30.7451C766.924 30.8395 767.004 30.9144 767.108 30.9697C767.213 31.0218 767.335 31.0479 767.475 31.0479C767.686 31.0479 767.87 31.0055 768.026 30.9209C768.183 30.8363 768.303 30.7321 768.388 30.6084C768.476 30.4847 768.521 30.3675 768.524 30.2568L768.896 30.8525C768.843 30.986 768.772 31.1243 768.681 31.2676C768.593 31.4108 768.48 31.5459 768.344 31.6729C768.207 31.7965 768.043 31.8991 767.851 31.9805C767.659 32.0586 767.431 32.0977 767.167 32.0977C766.832 32.0977 766.527 32.0309 766.254 31.8975C765.984 31.7607 765.769 31.5736 765.609 31.3359C765.453 31.0951 765.375 30.8216 765.375 30.5156C765.375 30.2389 765.427 29.9932 765.531 29.7783C765.635 29.5635 765.788 29.3828 765.99 29.2363C766.195 29.0866 766.451 28.9743 766.757 28.8994C767.063 28.8213 767.418 28.7822 767.821 28.7822H768.637ZM772.436 24.5V32H771.024V24.5H772.436ZM775.082 24.5V32H773.671V24.5H775.082ZM778.676 32.0977C778.266 32.0977 777.898 32.0326 777.572 31.9023C777.247 31.7689 776.97 31.585 776.742 31.3506C776.518 31.1162 776.345 30.8444 776.225 30.5352C776.104 30.2227 776.044 29.8906 776.044 29.5391V29.3438C776.044 28.9434 776.101 28.5771 776.215 28.2451C776.329 27.9131 776.492 27.625 776.703 27.3809C776.918 27.1367 777.178 26.9495 777.484 26.8193C777.79 26.6859 778.135 26.6191 778.52 26.6191C778.894 26.6191 779.226 26.681 779.516 26.8047C779.805 26.9284 780.048 27.1042 780.243 27.332C780.442 27.5599 780.591 27.8333 780.692 28.1523C780.793 28.4681 780.844 28.8197 780.844 29.207V29.793H776.645V28.8555H779.462V28.748C779.462 28.5527 779.426 28.3786 779.354 28.2256C779.286 28.0693 779.182 27.9456 779.042 27.8545C778.902 27.7633 778.723 27.7178 778.505 27.7178C778.319 27.7178 778.16 27.7585 778.026 27.8398C777.893 27.9212 777.784 28.0352 777.699 28.1816C777.618 28.3281 777.556 28.5007 777.514 28.6992C777.475 28.8945 777.455 29.1094 777.455 29.3438V29.5391C777.455 29.7507 777.484 29.946 777.543 30.125C777.605 30.304 777.691 30.4587 777.802 30.5889C777.916 30.7191 778.052 30.82 778.212 30.8916C778.375 30.9632 778.559 30.999 778.764 30.999C779.018 30.999 779.254 30.9502 779.472 30.8525C779.693 30.7516 779.883 30.6003 780.043 30.3984L780.727 31.1406C780.616 31.3001 780.465 31.4531 780.272 31.5996C780.084 31.7461 779.856 31.8665 779.589 31.9609C779.322 32.0521 779.018 32.0977 778.676 32.0977ZM783.021 27.8447V32H781.615V26.7168H782.934L783.021 27.8447ZM782.816 29.1729H782.436C782.436 28.7822 782.486 28.4307 782.587 28.1182C782.688 27.8024 782.829 27.5339 783.012 27.3125C783.194 27.0879 783.41 26.917 783.661 26.7998C783.915 26.6794 784.198 26.6191 784.511 26.6191C784.758 26.6191 784.984 26.6549 785.189 26.7266C785.395 26.7982 785.57 26.9121 785.717 27.0684C785.867 27.2246 785.98 27.4313 786.059 27.6885C786.14 27.9456 786.181 28.2598 786.181 28.6309V32H784.765V28.626C784.765 28.3916 784.732 28.2093 784.667 28.0791C784.602 27.9489 784.506 27.8577 784.379 27.8057C784.255 27.7503 784.102 27.7227 783.92 27.7227C783.731 27.7227 783.567 27.7601 783.427 27.835C783.29 27.9098 783.176 28.014 783.085 28.1475C782.997 28.2777 782.93 28.4307 782.885 28.6064C782.839 28.7822 782.816 28.971 782.816 29.1729ZM790.595 26.7168H791.869V31.8242C791.869 32.306 791.762 32.7145 791.547 33.0498C791.335 33.3883 791.039 33.6439 790.658 33.8164C790.277 33.9922 789.835 34.0801 789.33 34.0801C789.109 34.0801 788.874 34.0508 788.627 33.9922C788.383 33.9336 788.148 33.8424 787.924 33.7188C787.702 33.5951 787.517 33.4388 787.367 33.25L787.987 32.4199C788.15 32.6087 788.339 32.7552 788.554 32.8594C788.769 32.9668 789.006 33.0205 789.267 33.0205C789.521 33.0205 789.735 32.9733 789.911 32.8789C790.087 32.7878 790.222 32.6527 790.316 32.4736C790.411 32.2979 790.458 32.0846 790.458 31.834V27.9375L790.595 26.7168ZM787.04 29.4219V29.3193C787.04 28.9157 787.089 28.5495 787.187 28.2207C787.287 27.8887 787.429 27.6038 787.611 27.3662C787.797 27.1286 788.021 26.9447 788.285 26.8145C788.549 26.6842 788.847 26.6191 789.179 26.6191C789.53 26.6191 789.825 26.6842 790.062 26.8145C790.3 26.9447 790.495 27.1302 790.648 27.3711C790.801 27.6087 790.92 27.8903 791.005 28.2158C791.093 28.5381 791.161 28.8913 791.21 29.2754V29.5C791.161 29.8678 791.088 30.2096 790.99 30.5254C790.893 30.8411 790.764 31.1178 790.604 31.3555C790.445 31.5898 790.246 31.7721 790.009 31.9023C789.774 32.0326 789.494 32.0977 789.169 32.0977C788.843 32.0977 788.549 32.0309 788.285 31.8975C788.025 31.764 787.802 31.5768 787.616 31.3359C787.431 31.0951 787.287 30.8118 787.187 30.4863C787.089 30.1608 787.04 29.806 787.04 29.4219ZM788.446 29.3193V29.4219C788.446 29.64 788.467 29.8434 788.51 30.0322C788.552 30.221 788.617 30.3887 788.705 30.5352C788.796 30.6784 788.909 30.7907 789.042 30.8721C789.179 30.9502 789.34 30.9893 789.525 30.9893C789.783 30.9893 789.993 30.9355 790.155 30.8281C790.318 30.7174 790.44 30.5661 790.521 30.374C790.603 30.182 790.65 29.9606 790.663 29.71V29.0703C790.657 28.8652 790.629 28.6813 790.58 28.5186C790.531 28.3525 790.463 28.2109 790.375 28.0938C790.287 27.9766 790.173 27.8854 790.033 27.8203C789.893 27.7552 789.727 27.7227 789.535 27.7227C789.35 27.7227 789.188 27.765 789.052 27.8496C788.918 27.931 788.806 28.0433 788.715 28.1865C788.627 28.3298 788.56 28.499 788.515 28.6943C788.469 28.8864 788.446 29.0947 788.446 29.3193ZM795.395 32.0977C794.984 32.0977 794.617 32.0326 794.291 31.9023C793.965 31.7689 793.689 31.585 793.461 31.3506C793.236 31.1162 793.064 30.8444 792.943 30.5352C792.823 30.2227 792.763 29.8906 792.763 29.5391V29.3438C792.763 28.9434 792.82 28.5771 792.934 28.2451C793.048 27.9131 793.21 27.625 793.422 27.3809C793.637 27.1367 793.897 26.9495 794.203 26.8193C794.509 26.6859 794.854 26.6191 795.238 26.6191C795.613 26.6191 795.945 26.681 796.234 26.8047C796.524 26.9284 796.767 27.1042 796.962 27.332C797.16 27.5599 797.31 27.8333 797.411 28.1523C797.512 28.4681 797.562 28.8197 797.562 29.207V29.793H793.363V28.8555H796.181V28.748C796.181 28.5527 796.145 28.3786 796.073 28.2256C796.005 28.0693 795.901 27.9456 795.761 27.8545C795.621 27.7633 795.442 27.7178 795.224 27.7178C795.038 27.7178 794.879 27.7585 794.745 27.8398C794.612 27.9212 794.503 28.0352 794.418 28.1816C794.337 28.3281 794.275 28.5007 794.232 28.6992C794.193 28.8945 794.174 29.1094 794.174 29.3438V29.5391C794.174 29.7507 794.203 29.946 794.262 30.125C794.324 30.304 794.41 30.4587 794.521 30.5889C794.634 30.7191 794.771 30.82 794.931 30.8916C795.093 30.9632 795.277 30.999 795.482 30.999C795.736 30.999 795.972 30.9502 796.19 30.8525C796.412 30.7516 796.602 30.6003 796.762 30.3984L797.445 31.1406C797.335 31.3001 797.183 31.4531 796.991 31.5996C796.802 31.7461 796.575 31.8665 796.308 31.9609C796.041 32.0521 795.736 32.0977 795.395 32.0977Z" fill="#C9D1D9"/>
</svg>
