<svg width="830" height="56" viewBox="0 0 830 56" fill="none" xmlns="http://www.w3.org/2000/svg">
<rect x="1" y="1" width="827" height="54" rx="10" fill="#21262D"/>
<rect x="1.5" y="1.5" width="826" height="53" rx="9.5" stroke="#F0F6FC" stroke-opacity="0.1"/>
<path d="M71.2227 23.3369L66.9863 35H65.2549L70.1328 22.2031H71.249L71.2227 23.3369ZM74.7734 35L70.5283 23.3369L70.502 22.2031H71.6182L76.5137 35H74.7734ZM74.5537 30.2627V31.6514H67.3643V30.2627H74.5537ZM81.7871 33.8398C82.1738 33.8398 82.5312 33.7607 82.8594 33.6025C83.1875 33.4443 83.457 33.2275 83.668 32.9521C83.8789 32.6709 83.999 32.3516 84.0283 31.9941H85.5752C85.5459 32.5566 85.3555 33.0811 85.0039 33.5674C84.6582 34.0479 84.2041 34.4375 83.6416 34.7363C83.0791 35.0293 82.4609 35.1758 81.7871 35.1758C81.0723 35.1758 80.4482 35.0498 79.915 34.7979C79.3877 34.5459 78.9482 34.2002 78.5967 33.7607C78.251 33.3213 77.9902 32.8174 77.8145 32.249C77.6445 31.6748 77.5596 31.0684 77.5596 30.4297V30.0605C77.5596 29.4219 77.6445 28.8184 77.8145 28.25C77.9902 27.6758 78.251 27.1689 78.5967 26.7295C78.9482 26.29 79.3877 25.9443 79.915 25.6924C80.4482 25.4404 81.0723 25.3145 81.7871 25.3145C82.5312 25.3145 83.1816 25.4668 83.7383 25.7715C84.2949 26.0703 84.7314 26.4805 85.0479 27.002C85.3701 27.5176 85.5459 28.1035 85.5752 28.7598H84.0283C83.999 28.3672 83.8877 28.0127 83.6943 27.6963C83.5068 27.3799 83.249 27.1279 82.9209 26.9404C82.5986 26.7471 82.2207 26.6504 81.7871 26.6504C81.2891 26.6504 80.8701 26.75 80.5303 26.9492C80.1963 27.1426 79.9297 27.4062 79.7305 27.7402C79.5371 28.0684 79.3965 28.4346 79.3086 28.8389C79.2266 29.2373 79.1855 29.6445 79.1855 30.0605V30.4297C79.1855 30.8457 79.2266 31.2559 79.3086 31.6602C79.3906 32.0645 79.5283 32.4307 79.7217 32.7588C79.9209 33.0869 80.1875 33.3506 80.5215 33.5498C80.8613 33.7432 81.2832 33.8398 81.7871 33.8398ZM91.3496 35.1758C90.6875 35.1758 90.0869 35.0645 89.5479 34.8418C89.0146 34.6133 88.5547 34.2939 88.168 33.8838C87.7871 33.4736 87.4941 32.9873 87.2891 32.4248C87.084 31.8623 86.9814 31.2471 86.9814 30.5791V30.21C86.9814 29.4365 87.0957 28.748 87.3242 28.1445C87.5527 27.5352 87.8633 27.0195 88.2559 26.5977C88.6484 26.1758 89.0938 25.8564 89.5918 25.6396C90.0898 25.4229 90.6055 25.3145 91.1387 25.3145C91.8184 25.3145 92.4043 25.4316 92.8965 25.666C93.3945 25.9004 93.8018 26.2285 94.1182 26.6504C94.4346 27.0664 94.6689 27.5586 94.8213 28.127C94.9736 28.6895 95.0498 29.3047 95.0498 29.9727V30.7021H87.9482V29.375H93.4238V29.252C93.4004 28.8301 93.3125 28.4199 93.1602 28.0215C93.0137 27.623 92.7793 27.2949 92.457 27.0371C92.1348 26.7793 91.6953 26.6504 91.1387 26.6504C90.7695 26.6504 90.4297 26.7295 90.1191 26.8877C89.8086 27.04 89.542 27.2686 89.3193 27.5732C89.0967 27.8779 88.9238 28.25 88.8008 28.6895C88.6777 29.1289 88.6162 29.6357 88.6162 30.21V30.5791C88.6162 31.0303 88.6777 31.4551 88.8008 31.8535C88.9297 32.2461 89.1143 32.5918 89.3545 32.8906C89.6006 33.1895 89.8965 33.4238 90.2422 33.5938C90.5938 33.7637 90.9922 33.8486 91.4375 33.8486C92.0117 33.8486 92.498 33.7314 92.8965 33.4971C93.2949 33.2627 93.6436 32.9492 93.9424 32.5566L94.9268 33.3389C94.7217 33.6494 94.4609 33.9453 94.1445 34.2266C93.8281 34.5078 93.4385 34.7363 92.9756 34.9121C92.5186 35.0879 91.9766 35.1758 91.3496 35.1758ZM102.485 32.4775C102.485 32.2432 102.433 32.0264 102.327 31.8271C102.228 31.6221 102.02 31.4375 101.703 31.2734C101.393 31.1035 100.924 30.957 100.297 30.834C99.7695 30.7227 99.292 30.5908 98.8643 30.4385C98.4424 30.2861 98.082 30.1016 97.7832 29.8848C97.4902 29.668 97.2646 29.4131 97.1064 29.1201C96.9482 28.8271 96.8691 28.4844 96.8691 28.0918C96.8691 27.7168 96.9512 27.3623 97.1152 27.0283C97.2852 26.6943 97.5225 26.3984 97.8271 26.1406C98.1377 25.8828 98.5098 25.6807 98.9434 25.5342C99.377 25.3877 99.8604 25.3145 100.394 25.3145C101.155 25.3145 101.806 25.4492 102.345 25.7188C102.884 25.9883 103.297 26.3486 103.584 26.7998C103.871 27.2451 104.015 27.7402 104.015 28.2852H102.389C102.389 28.0215 102.31 27.7666 102.151 27.5205C101.999 27.2686 101.773 27.0605 101.475 26.8965C101.182 26.7324 100.821 26.6504 100.394 26.6504C99.9424 26.6504 99.5762 26.7207 99.2949 26.8613C99.0195 26.9961 98.8174 27.1689 98.6885 27.3799C98.5654 27.5908 98.5039 27.8135 98.5039 28.0479C98.5039 28.2236 98.5332 28.3818 98.5918 28.5225C98.6562 28.6572 98.7676 28.7832 98.9258 28.9004C99.084 29.0117 99.3066 29.1172 99.5938 29.2168C99.8809 29.3164 100.247 29.416 100.692 29.5156C101.472 29.6914 102.113 29.9023 102.617 30.1484C103.121 30.3945 103.496 30.6963 103.742 31.0537C103.988 31.4111 104.111 31.8447 104.111 32.3545C104.111 32.7705 104.023 33.1514 103.848 33.4971C103.678 33.8428 103.429 34.1416 103.101 34.3936C102.778 34.6396 102.392 34.833 101.94 34.9736C101.495 35.1084 100.994 35.1758 100.438 35.1758C99.5996 35.1758 98.8906 35.0264 98.3105 34.7275C97.7305 34.4287 97.291 34.042 96.9922 33.5674C96.6934 33.0928 96.5439 32.5918 96.5439 32.0645H98.1787C98.2021 32.5098 98.3311 32.8643 98.5654 33.1279C98.7998 33.3857 99.0869 33.5703 99.4268 33.6816C99.7666 33.7871 100.104 33.8398 100.438 33.8398C100.883 33.8398 101.255 33.7812 101.554 33.6641C101.858 33.5469 102.09 33.3857 102.248 33.1807C102.406 32.9756 102.485 32.7412 102.485 32.4775ZM111.784 32.4775C111.784 32.2432 111.731 32.0264 111.626 31.8271C111.526 31.6221 111.318 31.4375 111.002 31.2734C110.691 31.1035 110.223 30.957 109.596 30.834C109.068 30.7227 108.591 30.5908 108.163 30.4385C107.741 30.2861 107.381 30.1016 107.082 29.8848C106.789 29.668 106.563 29.4131 106.405 29.1201C106.247 28.8271 106.168 28.4844 106.168 28.0918C106.168 27.7168 106.25 27.3623 106.414 27.0283C106.584 26.6943 106.821 26.3984 107.126 26.1406C107.437 25.8828 107.809 25.6807 108.242 25.5342C108.676 25.3877 109.159 25.3145 109.692 25.3145C110.454 25.3145 111.104 25.4492 111.644 25.7188C112.183 25.9883 112.596 26.3486 112.883 26.7998C113.17 27.2451 113.313 27.7402 113.313 28.2852H111.688C111.688 28.0215 111.608 27.7666 111.45 27.5205C111.298 27.2686 111.072 27.0605 110.773 26.8965C110.48 26.7324 110.12 26.6504 109.692 26.6504C109.241 26.6504 108.875 26.7207 108.594 26.8613C108.318 26.9961 108.116 27.1689 107.987 27.3799C107.864 27.5908 107.803 27.8135 107.803 28.0479C107.803 28.2236 107.832 28.3818 107.891 28.5225C107.955 28.6572 108.066 28.7832 108.225 28.9004C108.383 29.0117 108.605 29.1172 108.893 29.2168C109.18 29.3164 109.546 29.416 109.991 29.5156C110.771 29.6914 111.412 29.9023 111.916 30.1484C112.42 30.3945 112.795 30.6963 113.041 31.0537C113.287 31.4111 113.41 31.8447 113.41 32.3545C113.41 32.7705 113.322 33.1514 113.146 33.4971C112.977 33.8428 112.728 34.1416 112.399 34.3936C112.077 34.6396 111.69 34.833 111.239 34.9736C110.794 35.1084 110.293 35.1758 109.736 35.1758C108.898 35.1758 108.189 35.0264 107.609 34.7275C107.029 34.4287 106.59 34.042 106.291 33.5674C105.992 33.0928 105.843 32.5918 105.843 32.0645H107.478C107.501 32.5098 107.63 32.8643 107.864 33.1279C108.099 33.3857 108.386 33.5703 108.726 33.6816C109.065 33.7871 109.402 33.8398 109.736 33.8398C110.182 33.8398 110.554 33.7812 110.853 33.6641C111.157 33.5469 111.389 33.3857 111.547 33.1807C111.705 32.9756 111.784 32.7412 111.784 32.4775ZM121.153 33.374V28.4785C121.153 28.1035 121.077 27.7783 120.925 27.5029C120.778 27.2217 120.556 27.0049 120.257 26.8525C119.958 26.7002 119.589 26.624 119.149 26.624C118.739 26.624 118.379 26.6943 118.068 26.835C117.764 26.9756 117.523 27.1602 117.348 27.3887C117.178 27.6172 117.093 27.8633 117.093 28.127H115.467C115.467 27.7871 115.555 27.4502 115.73 27.1162C115.906 26.7822 116.158 26.4805 116.486 26.2109C116.82 25.9355 117.219 25.7188 117.682 25.5605C118.15 25.3965 118.672 25.3145 119.246 25.3145C119.938 25.3145 120.547 25.4316 121.074 25.666C121.607 25.9004 122.023 26.2549 122.322 26.7295C122.627 27.1982 122.779 27.7871 122.779 28.4961V32.9258C122.779 33.2422 122.806 33.5791 122.858 33.9365C122.917 34.2939 123.002 34.6016 123.113 34.8594V35H121.417C121.335 34.8125 121.271 34.5635 121.224 34.2529C121.177 33.9365 121.153 33.6436 121.153 33.374ZM121.435 29.2344L121.452 30.377H119.809C119.346 30.377 118.933 30.415 118.569 30.4912C118.206 30.5615 117.901 30.6699 117.655 30.8164C117.409 30.9629 117.222 31.1475 117.093 31.3701C116.964 31.5869 116.899 31.8418 116.899 32.1348C116.899 32.4336 116.967 32.7061 117.102 32.9521C117.236 33.1982 117.438 33.3945 117.708 33.541C117.983 33.6816 118.32 33.752 118.719 33.752C119.217 33.752 119.656 33.6465 120.037 33.4355C120.418 33.2246 120.72 32.9668 120.942 32.6621C121.171 32.3574 121.294 32.0615 121.312 31.7744L122.006 32.5566C121.965 32.8027 121.854 33.0752 121.672 33.374C121.49 33.6729 121.247 33.96 120.942 34.2354C120.644 34.5049 120.286 34.7305 119.87 34.9121C119.46 35.0879 118.997 35.1758 118.481 35.1758C117.837 35.1758 117.271 35.0498 116.785 34.7979C116.305 34.5459 115.93 34.209 115.66 33.7871C115.396 33.3594 115.265 32.8818 115.265 32.3545C115.265 31.8447 115.364 31.3965 115.563 31.0098C115.763 30.6172 116.05 30.292 116.425 30.0342C116.8 29.7705 117.251 29.5713 117.778 29.4365C118.306 29.3018 118.895 29.2344 119.545 29.2344H121.435ZM126.963 26.9844V35H125.337V25.4902H126.919L126.963 26.9844ZM129.934 25.4375L129.925 26.9492C129.79 26.9199 129.661 26.9023 129.538 26.8965C129.421 26.8848 129.286 26.8789 129.134 26.8789C128.759 26.8789 128.428 26.9375 128.141 27.0547C127.854 27.1719 127.61 27.3359 127.411 27.5469C127.212 27.7578 127.054 28.0098 126.937 28.3027C126.825 28.5898 126.752 28.9062 126.717 29.252L126.26 29.5156C126.26 28.9414 126.315 28.4023 126.427 27.8984C126.544 27.3945 126.723 26.9492 126.963 26.5625C127.203 26.1699 127.508 25.8652 127.877 25.6484C128.252 25.4258 128.697 25.3145 129.213 25.3145C129.33 25.3145 129.465 25.3291 129.617 25.3584C129.77 25.3818 129.875 25.4082 129.934 25.4375ZM137.527 27.3184V38.6562H135.893V25.4902H137.387L137.527 27.3184ZM143.935 30.166V30.3506C143.935 31.042 143.853 31.6836 143.688 32.2754C143.524 32.8613 143.284 33.3711 142.968 33.8047C142.657 34.2383 142.273 34.5752 141.816 34.8154C141.359 35.0557 140.835 35.1758 140.243 35.1758C139.64 35.1758 139.106 35.0762 138.644 34.877C138.181 34.6777 137.788 34.3877 137.466 34.0068C137.144 33.626 136.886 33.1689 136.692 32.6357C136.505 32.1025 136.376 31.502 136.306 30.834V29.8496C136.376 29.1465 136.508 28.5166 136.701 27.96C136.895 27.4033 137.149 26.9287 137.466 26.5361C137.788 26.1377 138.178 25.8359 138.635 25.6309C139.092 25.4199 139.619 25.3145 140.217 25.3145C140.814 25.3145 141.345 25.4316 141.808 25.666C142.271 25.8945 142.66 26.2227 142.977 26.6504C143.293 27.0781 143.53 27.5908 143.688 28.1885C143.853 28.7803 143.935 29.4395 143.935 30.166ZM142.3 30.3506V30.166C142.3 29.6914 142.25 29.2461 142.15 28.8301C142.051 28.4082 141.896 28.0391 141.685 27.7227C141.479 27.4004 141.216 27.1484 140.894 26.9668C140.571 26.7793 140.188 26.6855 139.742 26.6855C139.332 26.6855 138.975 26.7559 138.67 26.8965C138.371 27.0371 138.116 27.2275 137.905 27.4678C137.694 27.7021 137.521 27.9717 137.387 28.2764C137.258 28.5752 137.161 28.8857 137.097 29.208V31.4844C137.214 31.8945 137.378 32.2812 137.589 32.6445C137.8 33.002 138.081 33.292 138.433 33.5146C138.784 33.7314 139.227 33.8398 139.76 33.8398C140.199 33.8398 140.577 33.749 140.894 33.5674C141.216 33.3799 141.479 33.125 141.685 32.8027C141.896 32.4805 142.051 32.1113 142.15 31.6953C142.25 31.2734 142.3 30.8252 142.3 30.3506ZM151.616 33.374V28.4785C151.616 28.1035 151.54 27.7783 151.388 27.5029C151.241 27.2217 151.019 27.0049 150.72 26.8525C150.421 26.7002 150.052 26.624 149.612 26.624C149.202 26.624 148.842 26.6943 148.531 26.835C148.227 26.9756 147.986 27.1602 147.811 27.3887C147.641 27.6172 147.556 27.8633 147.556 28.127H145.93C145.93 27.7871 146.018 27.4502 146.193 27.1162C146.369 26.7822 146.621 26.4805 146.949 26.2109C147.283 25.9355 147.682 25.7188 148.145 25.5605C148.613 25.3965 149.135 25.3145 149.709 25.3145C150.4 25.3145 151.01 25.4316 151.537 25.666C152.07 25.9004 152.486 26.2549 152.785 26.7295C153.09 27.1982 153.242 27.7871 153.242 28.4961V32.9258C153.242 33.2422 153.269 33.5791 153.321 33.9365C153.38 34.2939 153.465 34.6016 153.576 34.8594V35H151.88C151.798 34.8125 151.733 34.5635 151.687 34.2529C151.64 33.9365 151.616 33.6436 151.616 33.374ZM151.897 29.2344L151.915 30.377H150.271C149.809 30.377 149.396 30.415 149.032 30.4912C148.669 30.5615 148.364 30.6699 148.118 30.8164C147.872 30.9629 147.685 31.1475 147.556 31.3701C147.427 31.5869 147.362 31.8418 147.362 32.1348C147.362 32.4336 147.43 32.7061 147.564 32.9521C147.699 33.1982 147.901 33.3945 148.171 33.541C148.446 33.6816 148.783 33.752 149.182 33.752C149.68 33.752 150.119 33.6465 150.5 33.4355C150.881 33.2246 151.183 32.9668 151.405 32.6621C151.634 32.3574 151.757 32.0615 151.774 31.7744L152.469 32.5566C152.428 32.8027 152.316 33.0752 152.135 33.374C151.953 33.6729 151.71 33.96 151.405 34.2354C151.106 34.5049 150.749 34.7305 150.333 34.9121C149.923 35.0879 149.46 35.1758 148.944 35.1758C148.3 35.1758 147.734 35.0498 147.248 34.7979C146.768 34.5459 146.393 34.209 146.123 33.7871C145.859 33.3594 145.728 32.8818 145.728 32.3545C145.728 31.8447 145.827 31.3965 146.026 31.0098C146.226 30.6172 146.513 30.292 146.888 30.0342C147.263 29.7705 147.714 29.5713 148.241 29.4365C148.769 29.3018 149.357 29.2344 150.008 29.2344H151.897ZM148.988 24.084L150.693 21.5H152.653L150.298 24.084H148.988ZM161.961 25.4902H163.438V34.7979C163.438 35.6357 163.268 36.3506 162.928 36.9424C162.588 37.5342 162.113 37.9824 161.504 38.2871C160.9 38.5977 160.203 38.7529 159.412 38.7529C159.084 38.7529 158.697 38.7002 158.252 38.5947C157.812 38.4951 157.379 38.3223 156.951 38.0762C156.529 37.8359 156.175 37.5107 155.888 37.1006L156.74 36.1338C157.139 36.6143 157.555 36.9482 157.988 37.1357C158.428 37.3232 158.861 37.417 159.289 37.417C159.805 37.417 160.25 37.3203 160.625 37.127C161 36.9336 161.29 36.6465 161.495 36.2656C161.706 35.8906 161.812 35.4277 161.812 34.877V27.582L161.961 25.4902ZM155.413 30.3506V30.166C155.413 29.4395 155.498 28.7803 155.668 28.1885C155.844 27.5908 156.093 27.0781 156.415 26.6504C156.743 26.2227 157.139 25.8945 157.602 25.666C158.064 25.4316 158.586 25.3145 159.166 25.3145C159.764 25.3145 160.285 25.4199 160.73 25.6309C161.182 25.8359 161.562 26.1377 161.873 26.5361C162.189 26.9287 162.438 27.4033 162.62 27.96C162.802 28.5166 162.928 29.1465 162.998 29.8496V30.6582C162.934 31.3555 162.808 31.9824 162.62 32.5391C162.438 33.0957 162.189 33.5703 161.873 33.9629C161.562 34.3555 161.182 34.6572 160.73 34.8682C160.279 35.0732 159.752 35.1758 159.148 35.1758C158.58 35.1758 158.064 35.0557 157.602 34.8154C157.145 34.5752 156.752 34.2383 156.424 33.8047C156.096 33.3711 155.844 32.8613 155.668 32.2754C155.498 31.6836 155.413 31.042 155.413 30.3506ZM157.039 30.166V30.3506C157.039 30.8252 157.086 31.2705 157.18 31.6865C157.279 32.1025 157.429 32.4688 157.628 32.7852C157.833 33.1016 158.094 33.3506 158.41 33.5322C158.727 33.708 159.104 33.7959 159.544 33.7959C160.083 33.7959 160.528 33.6816 160.88 33.4531C161.231 33.2246 161.51 32.9229 161.715 32.5479C161.926 32.1729 162.09 31.7656 162.207 31.3262V29.208C162.143 28.8857 162.043 28.5752 161.908 28.2764C161.779 27.9717 161.609 27.7021 161.398 27.4678C161.193 27.2275 160.938 27.0371 160.634 26.8965C160.329 26.7559 159.972 26.6855 159.562 26.6855C159.116 26.6855 158.732 26.7793 158.41 26.9668C158.094 27.1484 157.833 27.4004 157.628 27.7227C157.429 28.0391 157.279 28.4082 157.18 28.8301C157.086 29.2461 157.039 29.6914 157.039 30.166ZM167.674 25.4902V35H166.039V25.4902H167.674ZM165.916 22.9678C165.916 22.7041 165.995 22.4814 166.153 22.2998C166.317 22.1182 166.558 22.0273 166.874 22.0273C167.185 22.0273 167.422 22.1182 167.586 22.2998C167.756 22.4814 167.841 22.7041 167.841 22.9678C167.841 23.2197 167.756 23.4365 167.586 23.6182C167.422 23.7939 167.185 23.8818 166.874 23.8818C166.558 23.8818 166.317 23.7939 166.153 23.6182C165.995 23.4365 165.916 23.2197 165.916 22.9678ZM171.91 27.5205V35H170.284V25.4902H171.822L171.91 27.5205ZM171.523 29.8848L170.847 29.8584C170.853 29.208 170.949 28.6074 171.137 28.0566C171.324 27.5 171.588 27.0166 171.928 26.6064C172.268 26.1963 172.672 25.8799 173.141 25.6572C173.615 25.4287 174.14 25.3145 174.714 25.3145C175.183 25.3145 175.604 25.3789 175.979 25.5078C176.354 25.6309 176.674 25.8301 176.938 26.1055C177.207 26.3809 177.412 26.7383 177.553 27.1777C177.693 27.6113 177.764 28.1416 177.764 28.7686V35H176.129V28.751C176.129 28.2529 176.056 27.8545 175.909 27.5557C175.763 27.251 175.549 27.0312 175.268 26.8965C174.986 26.7559 174.641 26.6855 174.23 26.6855C173.826 26.6855 173.457 26.7705 173.123 26.9404C172.795 27.1104 172.511 27.3447 172.271 27.6436C172.036 27.9424 171.852 28.2852 171.717 28.6719C171.588 29.0527 171.523 29.457 171.523 29.8848ZM185.841 33.374V28.4785C185.841 28.1035 185.765 27.7783 185.612 27.5029C185.466 27.2217 185.243 27.0049 184.944 26.8525C184.646 26.7002 184.276 26.624 183.837 26.624C183.427 26.624 183.066 26.6943 182.756 26.835C182.451 26.9756 182.211 27.1602 182.035 27.3887C181.865 27.6172 181.78 27.8633 181.78 28.127H180.154C180.154 27.7871 180.242 27.4502 180.418 27.1162C180.594 26.7822 180.846 26.4805 181.174 26.2109C181.508 25.9355 181.906 25.7188 182.369 25.5605C182.838 25.3965 183.359 25.3145 183.934 25.3145C184.625 25.3145 185.234 25.4316 185.762 25.666C186.295 25.9004 186.711 26.2549 187.01 26.7295C187.314 27.1982 187.467 27.7871 187.467 28.4961V32.9258C187.467 33.2422 187.493 33.5791 187.546 33.9365C187.604 34.2939 187.689 34.6016 187.801 34.8594V35H186.104C186.022 34.8125 185.958 34.5635 185.911 34.2529C185.864 33.9365 185.841 33.6436 185.841 33.374ZM186.122 29.2344L186.14 30.377H184.496C184.033 30.377 183.62 30.415 183.257 30.4912C182.894 30.5615 182.589 30.6699 182.343 30.8164C182.097 30.9629 181.909 31.1475 181.78 31.3701C181.651 31.5869 181.587 31.8418 181.587 32.1348C181.587 32.4336 181.654 32.7061 181.789 32.9521C181.924 33.1982 182.126 33.3945 182.396 33.541C182.671 33.6816 183.008 33.752 183.406 33.752C183.904 33.752 184.344 33.6465 184.725 33.4355C185.105 33.2246 185.407 32.9668 185.63 32.6621C185.858 32.3574 185.981 32.0615 185.999 31.7744L186.693 32.5566C186.652 32.8027 186.541 33.0752 186.359 33.374C186.178 33.6729 185.935 33.96 185.63 34.2354C185.331 34.5049 184.974 34.7305 184.558 34.9121C184.147 35.0879 183.685 35.1758 183.169 35.1758C182.524 35.1758 181.959 35.0498 181.473 34.7979C180.992 34.5459 180.617 34.209 180.348 33.7871C180.084 33.3594 179.952 32.8818 179.952 32.3545C179.952 31.8447 180.052 31.3965 180.251 31.0098C180.45 30.6172 180.737 30.292 181.112 30.0342C181.487 29.7705 181.938 29.5713 182.466 29.4365C182.993 29.3018 183.582 29.2344 184.232 29.2344H186.122ZM200.483 33.1543V21.5H202.118V35H200.624L200.483 33.1543ZM194.085 30.3506V30.166C194.085 29.4395 194.173 28.7803 194.349 28.1885C194.53 27.5908 194.785 27.0781 195.113 26.6504C195.447 26.2227 195.843 25.8945 196.3 25.666C196.763 25.4316 197.278 25.3145 197.847 25.3145C198.444 25.3145 198.966 25.4199 199.411 25.6309C199.862 25.8359 200.243 26.1377 200.554 26.5361C200.87 26.9287 201.119 27.4033 201.301 27.96C201.482 28.5166 201.608 29.1465 201.679 29.8496V30.6582C201.614 31.3555 201.488 31.9824 201.301 32.5391C201.119 33.0957 200.87 33.5703 200.554 33.9629C200.243 34.3555 199.862 34.6572 199.411 34.8682C198.96 35.0732 198.433 35.1758 197.829 35.1758C197.272 35.1758 196.763 35.0557 196.3 34.8154C195.843 34.5752 195.447 34.2383 195.113 33.8047C194.785 33.3711 194.53 32.8613 194.349 32.2754C194.173 31.6836 194.085 31.042 194.085 30.3506ZM195.72 30.166V30.3506C195.72 30.8252 195.767 31.2705 195.86 31.6865C195.96 32.1025 196.112 32.4688 196.317 32.7852C196.522 33.1016 196.783 33.3506 197.1 33.5322C197.416 33.708 197.794 33.7959 198.233 33.7959C198.772 33.7959 199.215 33.6816 199.561 33.4531C199.912 33.2246 200.193 32.9229 200.404 32.5479C200.615 32.1729 200.779 31.7656 200.896 31.3262V29.208C200.826 28.8857 200.724 28.5752 200.589 28.2764C200.46 27.9717 200.29 27.7021 200.079 27.4678C199.874 27.2275 199.619 27.0371 199.314 26.8965C199.016 26.7559 198.661 26.6855 198.251 26.6855C197.806 26.6855 197.422 26.7793 197.1 26.9668C196.783 27.1484 196.522 27.4004 196.317 27.7227C196.112 28.0391 195.96 28.4082 195.86 28.8301C195.767 29.2461 195.72 29.6914 195.72 30.166ZM204.219 30.3506V30.1484C204.219 29.4629 204.318 28.8271 204.518 28.2412C204.717 27.6494 205.004 27.1367 205.379 26.7031C205.754 26.2637 206.208 25.9238 206.741 25.6836C207.274 25.4375 207.872 25.3145 208.534 25.3145C209.202 25.3145 209.803 25.4375 210.336 25.6836C210.875 25.9238 211.332 26.2637 211.707 26.7031C212.088 27.1367 212.378 27.6494 212.577 28.2412C212.776 28.8271 212.876 29.4629 212.876 30.1484V30.3506C212.876 31.0361 212.776 31.6719 212.577 32.2578C212.378 32.8438 212.088 33.3564 211.707 33.7959C211.332 34.2295 210.878 34.5693 210.345 34.8154C209.817 35.0557 209.22 35.1758 208.552 35.1758C207.884 35.1758 207.283 35.0557 206.75 34.8154C206.217 34.5693 205.76 34.2295 205.379 33.7959C205.004 33.3564 204.717 32.8438 204.518 32.2578C204.318 31.6719 204.219 31.0361 204.219 30.3506ZM205.845 30.1484V30.3506C205.845 30.8252 205.9 31.2734 206.012 31.6953C206.123 32.1113 206.29 32.4805 206.513 32.8027C206.741 33.125 207.025 33.3799 207.365 33.5674C207.705 33.749 208.101 33.8398 208.552 33.8398C208.997 33.8398 209.387 33.749 209.721 33.5674C210.061 33.3799 210.342 33.125 210.564 32.8027C210.787 32.4805 210.954 32.1113 211.065 31.6953C211.183 31.2734 211.241 30.8252 211.241 30.3506V30.1484C211.241 29.6797 211.183 29.2373 211.065 28.8213C210.954 28.3994 210.784 28.0273 210.556 27.7051C210.333 27.377 210.052 27.1191 209.712 26.9316C209.378 26.7441 208.985 26.6504 208.534 26.6504C208.089 26.6504 207.696 26.7441 207.356 26.9316C207.022 27.1191 206.741 27.377 206.513 27.7051C206.29 28.0273 206.123 28.3994 206.012 28.8213C205.9 29.2373 205.845 29.6797 205.845 30.1484ZM225.374 33.1543V21.5H227.009V35H225.515L225.374 33.1543ZM218.976 30.3506V30.166C218.976 29.4395 219.063 28.7803 219.239 28.1885C219.421 27.5908 219.676 27.0781 220.004 26.6504C220.338 26.2227 220.733 25.8945 221.19 25.666C221.653 25.4316 222.169 25.3145 222.737 25.3145C223.335 25.3145 223.856 25.4199 224.302 25.6309C224.753 25.8359 225.134 26.1377 225.444 26.5361C225.761 26.9287 226.01 27.4033 226.191 27.96C226.373 28.5166 226.499 29.1465 226.569 29.8496V30.6582C226.505 31.3555 226.379 31.9824 226.191 32.5391C226.01 33.0957 225.761 33.5703 225.444 33.9629C225.134 34.3555 224.753 34.6572 224.302 34.8682C223.851 35.0732 223.323 35.1758 222.72 35.1758C222.163 35.1758 221.653 35.0557 221.19 34.8154C220.733 34.5752 220.338 34.2383 220.004 33.8047C219.676 33.3711 219.421 32.8613 219.239 32.2754C219.063 31.6836 218.976 31.042 218.976 30.3506ZM220.61 30.166V30.3506C220.61 30.8252 220.657 31.2705 220.751 31.6865C220.851 32.1025 221.003 32.4688 221.208 32.7852C221.413 33.1016 221.674 33.3506 221.99 33.5322C222.307 33.708 222.685 33.7959 223.124 33.7959C223.663 33.7959 224.105 33.6816 224.451 33.4531C224.803 33.2246 225.084 32.9229 225.295 32.5479C225.506 32.1729 225.67 31.7656 225.787 31.3262V29.208C225.717 28.8857 225.614 28.5752 225.479 28.2764C225.351 27.9717 225.181 27.7021 224.97 27.4678C224.765 27.2275 224.51 27.0371 224.205 26.8965C223.906 26.7559 223.552 26.6855 223.142 26.6855C222.696 26.6855 222.312 26.7793 221.99 26.9668C221.674 27.1484 221.413 27.4004 221.208 27.7227C221.003 28.0391 220.851 28.4082 220.751 28.8301C220.657 29.2461 220.61 29.6914 220.61 30.166ZM233.486 35.1758C232.824 35.1758 232.224 35.0645 231.685 34.8418C231.151 34.6133 230.691 34.2939 230.305 33.8838C229.924 33.4736 229.631 32.9873 229.426 32.4248C229.221 31.8623 229.118 31.2471 229.118 30.5791V30.21C229.118 29.4365 229.232 28.748 229.461 28.1445C229.689 27.5352 230 27.0195 230.393 26.5977C230.785 26.1758 231.23 25.8564 231.729 25.6396C232.227 25.4229 232.742 25.3145 233.275 25.3145C233.955 25.3145 234.541 25.4316 235.033 25.666C235.531 25.9004 235.938 26.2285 236.255 26.6504C236.571 27.0664 236.806 27.5586 236.958 28.127C237.11 28.6895 237.187 29.3047 237.187 29.9727V30.7021H230.085V29.375H235.561V29.252C235.537 28.8301 235.449 28.4199 235.297 28.0215C235.15 27.623 234.916 27.2949 234.594 27.0371C234.271 26.7793 233.832 26.6504 233.275 26.6504C232.906 26.6504 232.566 26.7295 232.256 26.8877C231.945 27.04 231.679 27.2686 231.456 27.5732C231.233 27.8779 231.061 28.25 230.938 28.6895C230.814 29.1289 230.753 29.6357 230.753 30.21V30.5791C230.753 31.0303 230.814 31.4551 230.938 31.8535C231.066 32.2461 231.251 32.5918 231.491 32.8906C231.737 33.1895 232.033 33.4238 232.379 33.5938C232.73 33.7637 233.129 33.8486 233.574 33.8486C234.148 33.8486 234.635 33.7314 235.033 33.4971C235.432 33.2627 235.78 32.9492 236.079 32.5566L237.063 33.3389C236.858 33.6494 236.598 33.9453 236.281 34.2266C235.965 34.5078 235.575 34.7363 235.112 34.9121C234.655 35.0879 234.113 35.1758 233.486 35.1758ZM244.622 32.4775C244.622 32.2432 244.569 32.0264 244.464 31.8271C244.364 31.6221 244.156 31.4375 243.84 31.2734C243.529 31.1035 243.061 30.957 242.434 30.834C241.906 30.7227 241.429 30.5908 241.001 30.4385C240.579 30.2861 240.219 30.1016 239.92 29.8848C239.627 29.668 239.401 29.4131 239.243 29.1201C239.085 28.8271 239.006 28.4844 239.006 28.0918C239.006 27.7168 239.088 27.3623 239.252 27.0283C239.422 26.6943 239.659 26.3984 239.964 26.1406C240.274 25.8828 240.646 25.6807 241.08 25.5342C241.514 25.3877 241.997 25.3145 242.53 25.3145C243.292 25.3145 243.942 25.4492 244.481 25.7188C245.021 25.9883 245.434 26.3486 245.721 26.7998C246.008 27.2451 246.151 27.7402 246.151 28.2852H244.525C244.525 28.0215 244.446 27.7666 244.288 27.5205C244.136 27.2686 243.91 27.0605 243.611 26.8965C243.318 26.7324 242.958 26.6504 242.53 26.6504C242.079 26.6504 241.713 26.7207 241.432 26.8613C241.156 26.9961 240.954 27.1689 240.825 27.3799C240.702 27.5908 240.641 27.8135 240.641 28.0479C240.641 28.2236 240.67 28.3818 240.729 28.5225C240.793 28.6572 240.904 28.7832 241.062 28.9004C241.221 29.0117 241.443 29.1172 241.73 29.2168C242.018 29.3164 242.384 29.416 242.829 29.5156C243.608 29.6914 244.25 29.9023 244.754 30.1484C245.258 30.3945 245.633 30.6963 245.879 31.0537C246.125 31.4111 246.248 31.8447 246.248 32.3545C246.248 32.7705 246.16 33.1514 245.984 33.4971C245.814 33.8428 245.565 34.1416 245.237 34.3936C244.915 34.6396 244.528 34.833 244.077 34.9736C243.632 35.1084 243.131 35.1758 242.574 35.1758C241.736 35.1758 241.027 35.0264 240.447 34.7275C239.867 34.4287 239.428 34.042 239.129 33.5674C238.83 33.0928 238.681 32.5918 238.681 32.0645H240.315C240.339 32.5098 240.468 32.8643 240.702 33.1279C240.937 33.3857 241.224 33.5703 241.563 33.6816C241.903 33.7871 242.24 33.8398 242.574 33.8398C243.02 33.8398 243.392 33.7812 243.69 33.6641C243.995 33.5469 244.227 33.3857 244.385 33.1807C244.543 32.9756 244.622 32.7412 244.622 32.4775ZM253.991 33.374V28.4785C253.991 28.1035 253.915 27.7783 253.763 27.5029C253.616 27.2217 253.394 27.0049 253.095 26.8525C252.796 26.7002 252.427 26.624 251.987 26.624C251.577 26.624 251.217 26.6943 250.906 26.835C250.602 26.9756 250.361 27.1602 250.186 27.3887C250.016 27.6172 249.931 27.8633 249.931 28.127H248.305C248.305 27.7871 248.393 27.4502 248.568 27.1162C248.744 26.7822 248.996 26.4805 249.324 26.2109C249.658 25.9355 250.057 25.7188 250.52 25.5605C250.988 25.3965 251.51 25.3145 252.084 25.3145C252.775 25.3145 253.385 25.4316 253.912 25.666C254.445 25.9004 254.861 26.2549 255.16 26.7295C255.465 27.1982 255.617 27.7871 255.617 28.4961V32.9258C255.617 33.2422 255.644 33.5791 255.696 33.9365C255.755 34.2939 255.84 34.6016 255.951 34.8594V35H254.255C254.173 34.8125 254.108 34.5635 254.062 34.2529C254.015 33.9365 253.991 33.6436 253.991 33.374ZM254.272 29.2344L254.29 30.377H252.646C252.184 30.377 251.771 30.415 251.407 30.4912C251.044 30.5615 250.739 30.6699 250.493 30.8164C250.247 30.9629 250.06 31.1475 249.931 31.3701C249.802 31.5869 249.737 31.8418 249.737 32.1348C249.737 32.4336 249.805 32.7061 249.939 32.9521C250.074 33.1982 250.276 33.3945 250.546 33.541C250.821 33.6816 251.158 33.752 251.557 33.752C252.055 33.752 252.494 33.6465 252.875 33.4355C253.256 33.2246 253.558 32.9668 253.78 32.6621C254.009 32.3574 254.132 32.0615 254.149 31.7744L254.844 32.5566C254.803 32.8027 254.691 33.0752 254.51 33.374C254.328 33.6729 254.085 33.96 253.78 34.2354C253.481 34.5049 253.124 34.7305 252.708 34.9121C252.298 35.0879 251.835 35.1758 251.319 35.1758C250.675 35.1758 250.109 35.0498 249.623 34.7979C249.143 34.5459 248.768 34.209 248.498 33.7871C248.234 33.3594 248.103 32.8818 248.103 32.3545C248.103 31.8447 248.202 31.3965 248.401 31.0098C248.601 30.6172 248.888 30.292 249.263 30.0342C249.638 29.7705 250.089 29.5713 250.616 29.4365C251.144 29.3018 251.732 29.2344 252.383 29.2344H254.272ZM260.346 35H258.72V24.6641C258.72 23.9434 258.86 23.334 259.142 22.8359C259.423 22.3379 259.824 21.96 260.346 21.7021C260.867 21.4443 261.485 21.3154 262.2 21.3154C262.622 21.3154 263.035 21.3682 263.439 21.4736C263.844 21.5732 264.26 21.6992 264.688 21.8516L264.415 23.2227C264.146 23.1172 263.832 23.0176 263.475 22.9238C263.123 22.8242 262.736 22.7744 262.314 22.7744C261.617 22.7744 261.113 22.9326 260.803 23.249C260.498 23.5596 260.346 24.0312 260.346 24.6641V35ZM262.288 25.4902V26.7383H257.217V25.4902H262.288ZM265.487 25.4902V35H263.861V25.4902H265.487ZM267.729 30.3506V30.1484C267.729 29.4629 267.828 28.8271 268.027 28.2412C268.227 27.6494 268.514 27.1367 268.889 26.7031C269.264 26.2637 269.718 25.9238 270.251 25.6836C270.784 25.4375 271.382 25.3145 272.044 25.3145C272.712 25.3145 273.312 25.4375 273.846 25.6836C274.385 25.9238 274.842 26.2637 275.217 26.7031C275.598 27.1367 275.888 27.6494 276.087 28.2412C276.286 28.8271 276.386 29.4629 276.386 30.1484V30.3506C276.386 31.0361 276.286 31.6719 276.087 32.2578C275.888 32.8438 275.598 33.3564 275.217 33.7959C274.842 34.2295 274.388 34.5693 273.854 34.8154C273.327 35.0557 272.729 35.1758 272.062 35.1758C271.394 35.1758 270.793 35.0557 270.26 34.8154C269.727 34.5693 269.27 34.2295 268.889 33.7959C268.514 33.3564 268.227 32.8438 268.027 32.2578C267.828 31.6719 267.729 31.0361 267.729 30.3506ZM269.354 30.1484V30.3506C269.354 30.8252 269.41 31.2734 269.521 31.6953C269.633 32.1113 269.8 32.4805 270.022 32.8027C270.251 33.125 270.535 33.3799 270.875 33.5674C271.215 33.749 271.61 33.8398 272.062 33.8398C272.507 33.8398 272.896 33.749 273.23 33.5674C273.57 33.3799 273.852 33.125 274.074 32.8027C274.297 32.4805 274.464 32.1113 274.575 31.6953C274.692 31.2734 274.751 30.8252 274.751 30.3506V30.1484C274.751 29.6797 274.692 29.2373 274.575 28.8213C274.464 28.3994 274.294 28.0273 274.065 27.7051C273.843 27.377 273.562 27.1191 273.222 26.9316C272.888 26.7441 272.495 26.6504 272.044 26.6504C271.599 26.6504 271.206 26.7441 270.866 26.9316C270.532 27.1191 270.251 27.377 270.022 27.7051C269.8 28.0273 269.633 28.3994 269.521 28.8213C269.41 29.2373 269.354 29.6797 269.354 30.1484Z" fill="#C9D1D9"/>
<path d="M729.45 24.0197C729.436 24.033 729.419 24.0432 729.401 24.0498C729.383 24.0564 729.363 24.0593 729.344 24.0582H725.987C725.955 24.0582 725.938 24.0743 725.938 24.1065V26.1611C725.938 26.1933 725.955 26.2094 725.987 26.2094H728.273C728.318 26.2094 728.353 26.2224 728.379 26.2479C728.405 26.2739 728.417 26.3093 728.417 26.354V26.8651C728.418 26.8845 728.416 26.9039 728.409 26.9222C728.402 26.9404 728.392 26.9571 728.379 26.9712C728.365 26.9845 728.348 26.9948 728.33 27.0014C728.312 27.0081 728.292 27.0109 728.273 27.0097H725.987C725.955 27.0097 725.938 27.0258 725.938 27.0581V29.865C725.94 29.8844 725.937 29.9038 725.93 29.9221C725.924 29.9403 725.913 29.957 725.9 29.9711C725.886 29.9844 725.869 29.9947 725.851 30.0013C725.833 30.0079 725.814 30.0107 725.794 30.0096H725.157C725.138 30.0107 725.118 30.0079 725.1 30.0013C725.082 29.9947 725.065 29.9844 725.051 29.9711C725.038 29.9569 725.027 29.9402 725.021 29.922C725.014 29.9037 725.012 29.8844 725.013 29.865V23.4014C725.013 23.3567 725.025 23.3213 725.051 23.2953C725.065 23.2821 725.082 23.2719 725.1 23.2653C725.118 23.2587 725.138 23.2558 725.157 23.2569H729.344C729.389 23.2569 729.424 23.2699 729.45 23.2953C729.464 23.3096 729.474 23.3263 729.48 23.3445C729.487 23.3627 729.49 23.3821 729.489 23.4014V23.9126C729.49 23.9321 729.487 23.9517 729.481 23.9701C729.474 23.9885 729.464 24.0053 729.45 24.0197ZM733.087 25.158C733.158 25.1965 733.184 25.2578 733.164 25.3415L733.029 25.9687C733.022 26.0331 732.991 26.0654 732.932 26.0654C732.906 26.0663 732.88 26.063 732.855 26.0555C732.749 26.0218 732.639 26.0055 732.527 26.0071C732.479 26.0061 732.43 26.0094 732.382 26.017C732.08 26.03 731.831 26.1345 731.634 26.3311C731.438 26.5271 731.341 26.783 731.341 27.0981V29.8666C731.342 29.886 731.339 29.9054 731.332 29.9236C731.326 29.9419 731.316 29.9586 731.302 29.9727C731.288 29.9859 731.271 29.9962 731.253 30.0028C731.235 30.0094 731.215 30.0123 731.196 30.0111H730.559C730.54 30.0123 730.52 30.0095 730.502 30.0029C730.484 29.9963 730.468 29.986 730.454 29.9727C730.427 29.9472 730.415 29.9118 730.415 29.8666V25.2448C730.415 25.2001 730.427 25.1647 730.454 25.1393C730.468 25.1259 730.484 25.1157 730.502 25.109C730.52 25.1024 730.54 25.0996 730.559 25.1008H731.196C731.241 25.1008 731.276 25.1133 731.302 25.1393C731.328 25.1647 731.341 25.2001 731.341 25.2448V25.6889C731.341 25.7149 731.345 25.7295 731.355 25.7326C731.365 25.7357 731.376 25.7274 731.389 25.7081C731.678 25.2708 732.07 25.0524 732.566 25.0524C732.759 25.0524 732.933 25.0873 733.087 25.158ZM734.925 29.7262C734.574 29.4849 734.328 29.149 734.187 28.7179C734.071 28.3711 734.013 27.9785 734.013 27.5411C734.013 27.0846 734.067 26.6987 734.177 26.3831C734.318 25.9588 734.566 25.626 734.919 25.3847C735.273 25.1434 735.694 25.0233 736.183 25.0233C736.647 25.0233 737.05 25.1434 737.395 25.3847C737.738 25.626 737.984 25.9557 738.132 26.3732C738.248 26.7013 738.306 27.0872 738.306 27.5313C738.306 27.9811 738.248 28.3768 738.132 28.7174C737.991 29.1485 737.746 29.4849 737.399 29.7257C737.052 29.9669 736.643 30.0871 736.174 30.0871C735.692 30.0876 735.275 29.9675 734.925 29.7262ZM736.849 29.0699C737.042 28.9254 737.18 28.721 737.264 28.4569C737.335 28.2125 737.37 27.9103 737.37 27.5505C737.37 27.1907 737.338 26.8911 737.273 26.653C737.19 26.3893 737.051 26.1855 736.858 26.0404C736.665 25.8953 736.43 25.8231 736.154 25.8231C735.89 25.8231 735.663 25.8959 735.47 26.0404C735.277 26.185 735.138 26.3893 735.055 26.653C734.984 26.8781 734.949 27.1771 734.949 27.5505C734.949 27.9233 734.984 28.226 735.055 28.4569C735.131 28.721 735.269 28.9249 735.465 29.0699C735.661 29.215 735.897 29.2868 736.174 29.2868C736.417 29.2917 736.654 29.2154 736.849 29.0699ZM743.197 25.4908C743.506 25.7965 743.66 26.2094 743.66 26.7305V29.8655C743.661 29.8849 743.658 29.9043 743.652 29.9225C743.645 29.9408 743.635 29.9575 743.622 29.9716C743.607 29.9849 743.59 29.9952 743.572 30.0018C743.554 30.0084 743.534 30.0113 743.515 30.0101H742.878C742.859 30.0113 742.84 30.0085 742.821 30.0019C742.803 29.9953 742.786 29.985 742.772 29.9716C742.759 29.9575 742.749 29.9408 742.742 29.9226C742.735 29.9043 742.733 29.8849 742.734 29.8655V26.914C742.734 26.5927 742.64 26.3321 742.454 26.1325C742.268 25.9333 742.02 25.8335 741.711 25.8335C741.435 25.8335 741.201 25.9156 741.012 26.0799C740.822 26.2437 740.711 26.4642 740.679 26.7409V29.8666C740.68 29.8859 740.677 29.9053 740.67 29.9236C740.664 29.9418 740.654 29.9585 740.64 29.9727C740.626 29.986 740.609 29.9963 740.591 30.0029C740.573 30.0095 740.553 30.0123 740.534 30.0111H739.897C739.877 30.0123 739.858 30.0095 739.84 30.0029C739.822 29.9963 739.805 29.986 739.791 29.9727C739.778 29.9586 739.768 29.9419 739.761 29.9236C739.754 29.9054 739.751 29.886 739.753 29.8666V25.2448C739.753 25.2001 739.765 25.1647 739.791 25.1393C739.805 25.1259 739.822 25.1157 739.84 25.109C739.858 25.1024 739.877 25.0996 739.897 25.1008H740.534C740.579 25.1008 740.614 25.1133 740.64 25.1393C740.654 25.1533 740.664 25.17 740.67 25.1881C740.677 25.2062 740.68 25.2255 740.679 25.2448V25.5152C740.679 25.5345 740.685 25.5475 740.698 25.5537C740.71 25.5605 740.72 25.5573 740.727 25.5438C740.997 25.2032 741.402 25.0332 741.942 25.0332C742.47 25.0332 742.888 25.1855 743.197 25.4908ZM747.605 25.8236C747.591 25.8369 747.574 25.8471 747.556 25.8537C747.538 25.8603 747.519 25.8632 747.499 25.8621H746.515C746.483 25.8621 746.467 25.8782 746.467 25.9104V28.4283C746.467 28.7049 746.526 28.9009 746.645 29.0169C746.764 29.1329 746.956 29.1906 747.219 29.1906H747.451C747.496 29.1906 747.531 29.2036 747.557 29.2291C747.57 29.2433 747.58 29.26 747.587 29.2782C747.593 29.2964 747.596 29.3158 747.595 29.3351V29.8369C747.595 29.9274 747.547 29.9784 747.451 29.9914L747.055 30.0013C746.56 30.0013 746.19 29.9144 745.946 29.7407C745.701 29.5671 745.579 29.2426 745.579 28.7663V25.9104C745.579 25.8782 745.563 25.8621 745.53 25.8621H745C744.981 25.8632 744.961 25.8604 744.943 25.8538C744.925 25.8472 744.908 25.8369 744.894 25.8236C744.881 25.8095 744.87 25.7928 744.864 25.7745C744.857 25.7563 744.854 25.7369 744.855 25.7175V25.2448C744.855 25.2001 744.868 25.1647 744.894 25.1393C744.908 25.126 744.925 25.1157 744.943 25.1091C744.961 25.1025 744.981 25.0996 745 25.1008H745.53C745.563 25.1008 745.579 25.0847 745.579 25.0524V23.9719C745.579 23.9266 745.592 23.8918 745.618 23.8658C745.632 23.8525 745.648 23.8422 745.667 23.8356C745.685 23.8289 745.704 23.8261 745.723 23.8273H746.321C746.367 23.8273 746.401 23.8398 746.428 23.8658C746.453 23.8918 746.466 23.9266 746.466 23.9719V25.0524C746.466 25.0847 746.482 25.1008 746.514 25.1008H747.499C747.543 25.1008 747.579 25.1133 747.605 25.1393C747.631 25.1647 747.643 25.2001 747.643 25.2448V25.7175C747.645 25.7369 747.642 25.7563 747.635 25.7745C747.629 25.7928 747.619 25.8095 747.605 25.8236ZM752.091 28.6888C752.123 28.6311 752.159 28.6019 752.197 28.6019C752.23 28.6019 752.258 28.6118 752.284 28.6311L752.68 28.8723C752.731 28.9046 752.757 28.9467 752.757 28.9977L752.738 29.0746C752.567 29.3871 752.311 29.6447 751.999 29.8177C751.682 29.9981 751.31 30.0881 750.885 30.0881C750.428 30.0881 750.042 29.9872 749.727 29.7844C749.412 29.5816 749.174 29.2909 749.013 28.9108C748.852 28.5187 748.772 28.0585 748.772 27.5318C748.772 27.0622 748.807 26.7055 748.878 26.4606C748.994 26.0165 749.225 25.6665 749.572 25.4091C749.92 25.1523 750.341 25.0238 750.837 25.0238C751.448 25.0238 751.913 25.1829 752.235 25.5012C752.557 25.8194 752.766 26.2812 752.862 26.8854C752.894 27.1236 752.917 27.4132 752.93 27.7538C752.93 27.8505 752.881 27.8984 752.785 27.8984H749.737C749.705 27.8984 749.688 27.914 749.688 27.9467C749.701 28.1911 749.724 28.3648 749.756 28.4673C749.827 28.7247 749.969 28.9275 750.181 29.0751C750.393 29.2233 750.656 29.2972 750.972 29.2972C751.493 29.2904 751.866 29.0876 752.091 28.6888ZM750.147 26.0264C749.97 26.1616 749.85 26.3483 749.786 26.5859C749.735 26.7618 749.706 26.9432 749.699 27.1262C749.699 27.1584 749.715 27.1745 749.747 27.1745H751.937C751.97 27.1745 751.986 27.1584 751.986 27.1262C751.973 26.914 751.953 26.7565 751.928 26.6535C751.872 26.4158 751.738 26.2037 751.547 26.0508C751.358 25.8995 751.121 25.8236 750.838 25.8236C750.555 25.8236 750.324 25.8912 750.147 26.0264ZM757.782 25.4908C758.091 25.7965 758.245 26.2094 758.245 26.7305V29.8655C758.247 29.8849 758.244 29.9043 758.237 29.9226C758.231 29.9408 758.22 29.9575 758.207 29.9716C758.193 29.9849 758.176 29.9952 758.158 30.0018C758.14 30.0085 758.121 30.0113 758.101 30.0101H757.464C757.445 30.0112 757.426 30.0084 757.407 30.0018C757.389 29.9952 757.372 29.9849 757.358 29.9716C757.345 29.9575 757.335 29.9408 757.328 29.9226C757.321 29.9043 757.319 29.8849 757.32 29.8655V26.914C757.32 26.5927 757.226 26.3321 757.04 26.1325C756.853 25.9333 756.606 25.8335 756.297 25.8335C756.02 25.8335 755.788 25.9156 755.598 26.0799C755.407 26.2443 755.297 26.4642 755.264 26.7409V29.8666C755.266 29.886 755.263 29.9054 755.256 29.9236C755.249 29.9419 755.239 29.9586 755.226 29.9727C755.212 29.986 755.195 29.9963 755.177 30.0029C755.159 30.0095 755.14 30.0123 755.12 30.0111H754.483C754.464 30.0124 754.444 30.0096 754.426 30.0029C754.408 29.9963 754.391 29.986 754.377 29.9727C754.364 29.9586 754.354 29.9419 754.347 29.9236C754.34 29.9054 754.337 29.886 754.339 29.8666V25.2448C754.339 25.2001 754.351 25.1647 754.377 25.1393C754.391 25.1259 754.408 25.1156 754.426 25.109C754.444 25.1024 754.464 25.0996 754.483 25.1008H755.12C755.165 25.1008 755.2 25.1133 755.226 25.1393C755.252 25.1647 755.264 25.2001 755.264 25.2448V25.5152C755.264 25.5345 755.271 25.5475 755.284 25.5537C755.297 25.5605 755.306 25.5573 755.313 25.5438C755.584 25.2032 755.989 25.0332 756.528 25.0332C757.056 25.0332 757.474 25.1855 757.782 25.4908ZM762.838 23.2964C762.852 23.2832 762.869 23.273 762.887 23.2663C762.905 23.2597 762.924 23.2569 762.944 23.2579H763.581C763.6 23.2569 763.619 23.2598 763.638 23.2664C763.656 23.2731 763.673 23.2832 763.687 23.2964C763.713 23.3224 763.725 23.3577 763.725 23.4025V29.8661C763.726 29.8854 763.724 29.9049 763.717 29.9231C763.71 29.9414 763.7 29.958 763.687 29.9721C763.673 29.9854 763.656 29.9957 763.638 30.0023C763.619 30.0089 763.6 30.0117 763.581 30.0106H762.944C762.924 30.0118 762.905 30.009 762.887 30.0024C762.869 29.9957 762.852 29.9855 762.838 29.9721C762.812 29.9467 762.8 29.9113 762.8 29.8661V29.6154C762.8 29.5962 762.792 29.5832 762.78 29.5769C762.767 29.5707 762.754 29.5738 762.742 29.5868C762.6 29.748 762.434 29.8718 762.245 29.9586C762.056 30.0449 761.847 30.0886 761.623 30.0886C761.16 30.0886 760.775 29.9742 760.47 29.7465C760.164 29.5182 759.941 29.1947 759.8 28.7767C759.684 28.4553 759.626 28.044 759.626 27.5422C759.626 27.0726 759.674 26.6837 759.77 26.3748C759.905 25.9505 760.128 25.6192 760.44 25.3811C760.752 25.1434 761.146 25.0243 761.622 25.0243C761.847 25.0243 762.055 25.0659 762.244 25.1497C762.434 25.2329 762.599 25.3556 762.741 25.5157C762.753 25.5287 762.767 25.5334 762.78 25.5303C762.792 25.5272 762.799 25.5157 762.799 25.4965V23.4035C762.8 23.3577 762.812 23.3219 762.838 23.2964ZM762.789 27.5505C762.789 27.0227 762.706 26.6114 762.539 26.3155C762.352 25.9874 762.079 25.8236 761.719 25.8236C761.346 25.8236 761.06 25.978 760.861 26.2869C760.655 26.6088 760.552 27.0331 760.552 27.5604C760.552 28.0554 760.632 28.4543 760.793 28.7564C760.979 29.1105 761.288 29.2873 761.719 29.2873C762.086 29.2873 762.365 29.1136 762.558 28.7663C762.712 28.4829 762.789 28.0778 762.789 27.5505ZM767.661 29.9721C767.648 29.958 767.637 29.9414 767.631 29.9231C767.624 29.9049 767.621 29.8854 767.623 29.8661V23.4025C767.623 23.3577 767.635 23.3224 767.661 23.2964C767.675 23.2832 767.692 23.273 767.71 23.2663C767.728 23.2597 767.747 23.2569 767.767 23.2579H768.414C768.49 23.2579 768.549 23.2901 768.587 23.3546L770.208 25.9401C770.227 25.9785 770.246 25.9785 770.265 25.9401L771.896 23.3546C771.913 23.3241 771.939 23.2988 771.969 23.2818C772 23.2647 772.035 23.2564 772.07 23.2579H772.715C772.735 23.2569 772.754 23.2598 772.772 23.2664C772.791 23.2731 772.807 23.2832 772.822 23.2964C772.848 23.3224 772.86 23.3577 772.86 23.4025V29.8661C772.861 29.8854 772.858 29.9049 772.852 29.9231C772.845 29.9414 772.835 29.958 772.822 29.9721C772.807 29.9854 772.791 29.9957 772.772 30.0023C772.754 30.0089 772.735 30.0117 772.715 30.0106H772.079C772.059 30.0118 772.04 30.009 772.022 30.0024C772.004 29.9957 771.987 29.9855 771.973 29.9721C771.946 29.9467 771.934 29.9113 771.934 29.8661V24.9656C771.934 24.9396 771.927 24.9255 771.915 24.9219C771.902 24.9188 771.889 24.9271 771.877 24.9463L770.565 27.0877C770.548 27.1183 770.522 27.1435 770.492 27.1606C770.461 27.1777 770.426 27.1859 770.391 27.1844H770.082C770.047 27.1859 770.012 27.1777 769.982 27.1606C769.951 27.1435 769.926 27.1183 769.909 27.0877L768.606 24.9463C768.593 24.9271 768.58 24.9188 768.568 24.9219C768.555 24.9255 768.549 24.9396 768.549 24.9656V29.8661C768.55 29.8854 768.547 29.9048 768.54 29.923C768.534 29.9413 768.524 29.958 768.51 29.9721C768.496 29.9854 768.479 29.9956 768.461 30.0023C768.443 30.0089 768.423 30.0117 768.404 30.0106H767.767C767.747 30.0117 767.728 30.0088 767.71 30.0022C767.692 29.9956 767.675 29.9853 767.661 29.9721ZM777.752 28.6888C777.784 28.6311 777.82 28.6019 777.858 28.6019C777.89 28.6018 777.92 28.612 777.945 28.6311L778.34 28.8723C778.392 28.9046 778.417 28.9467 778.417 28.9977L778.398 29.0746C778.227 29.3869 777.971 29.6445 777.66 29.8177C777.342 29.9981 776.971 30.0881 776.546 30.0881C776.089 30.0881 775.703 29.9872 775.388 29.7844C775.073 29.5816 774.834 29.2909 774.674 28.9108C774.513 28.5187 774.433 28.0585 774.433 27.5318C774.433 27.0622 774.468 26.7055 774.539 26.4606C774.655 26.0165 774.886 25.6665 775.233 25.4091C775.581 25.1523 776.002 25.0238 776.497 25.0238C777.108 25.0238 777.574 25.1829 777.896 25.5012C778.217 25.8194 778.427 26.2812 778.523 26.8854C778.559 27.1737 778.582 27.4635 778.59 27.7538C778.59 27.8505 778.542 27.8984 778.446 27.8984H775.398C775.365 27.8984 775.349 27.914 775.349 27.9467C775.362 28.1911 775.385 28.3648 775.417 28.4673C775.488 28.7247 775.629 28.9275 775.841 29.0751C776.053 29.2233 776.317 29.2972 776.632 29.2972C777.153 29.2904 777.527 29.0876 777.752 28.6888ZM775.807 26.0264C775.631 26.1616 775.51 26.3483 775.446 26.5859C775.395 26.7618 775.366 26.9432 775.359 27.1262C775.359 27.1584 775.375 27.1745 775.408 27.1745H777.597C777.63 27.1745 777.646 27.1584 777.646 27.1262C777.633 26.914 777.614 26.7565 777.588 26.6535C777.532 26.4158 777.398 26.2038 777.207 26.0508C777.018 25.8995 776.781 25.8236 776.498 25.8236C776.215 25.8236 775.984 25.8912 775.807 26.0264ZM783.443 25.4908C783.752 25.7965 783.906 26.2094 783.906 26.7305V29.8655C783.908 29.8849 783.905 29.9043 783.898 29.9226C783.892 29.9408 783.881 29.9575 783.868 29.9716C783.854 29.9849 783.837 29.9952 783.819 30.0018C783.801 30.0085 783.782 30.0113 783.762 30.0101H783.125C783.106 30.0112 783.087 30.0084 783.068 30.0018C783.05 29.9952 783.033 29.9849 783.019 29.9716C783.006 29.9575 782.996 29.9408 782.989 29.9226C782.982 29.9043 782.98 29.8849 782.981 29.8655V26.914C782.981 26.5927 782.887 26.3321 782.701 26.1325C782.514 25.9333 782.267 25.8335 781.958 25.8335C781.681 25.8335 781.449 25.9156 781.259 26.0799C781.068 26.2443 780.958 26.4642 780.925 26.7409V29.8666C780.926 29.886 780.924 29.9054 780.917 29.9236C780.91 29.9419 780.9 29.9586 780.887 29.9727C780.873 29.986 780.856 29.9963 780.838 30.0029C780.82 30.0095 780.801 30.0123 780.781 30.0111H780.144C780.125 30.0124 780.105 30.0096 780.087 30.0029C780.069 29.9963 780.052 29.986 780.038 29.9727C780.025 29.9586 780.014 29.9419 780.008 29.9236C780.001 29.9054 779.998 29.886 780 29.8666V25.2448C780 25.2001 780.012 25.1647 780.038 25.1393C780.052 25.1259 780.069 25.1156 780.087 25.109C780.105 25.1024 780.125 25.0996 780.144 25.1008H780.781C780.826 25.1008 780.861 25.1133 780.887 25.1393C780.913 25.1647 780.925 25.2001 780.925 25.2448V25.5152C780.925 25.5345 780.932 25.5475 780.945 25.5537C780.958 25.5605 780.967 25.5573 780.974 25.5438C781.245 25.2032 781.65 25.0332 782.189 25.0332C782.717 25.0332 783.135 25.1855 783.443 25.4908ZM787.852 25.8236C787.838 25.8369 787.821 25.8472 787.803 25.8539C787.784 25.8605 787.765 25.8633 787.746 25.8621H786.762C786.729 25.8621 786.713 25.8782 786.713 25.9104V28.4283C786.713 28.7049 786.773 28.9009 786.892 29.0169C787.011 29.1329 787.202 29.1906 787.466 29.1906H787.697C787.717 29.1896 787.736 29.1925 787.754 29.1991C787.772 29.2057 787.789 29.2159 787.803 29.2291C787.829 29.2551 787.842 29.2904 787.842 29.3351V29.8369C787.842 29.9274 787.793 29.9784 787.697 29.9914L787.301 30.0013C786.806 30.0013 786.437 29.9144 786.192 29.7407C785.947 29.5671 785.825 29.2426 785.825 28.7663V25.9104C785.825 25.8782 785.81 25.8621 785.777 25.8621H785.246C785.227 25.8633 785.208 25.8605 785.189 25.8539C785.171 25.8472 785.154 25.8369 785.14 25.8236C785.127 25.8095 785.117 25.7928 785.11 25.7745C785.103 25.7563 785.101 25.7369 785.102 25.7175V25.2448C785.102 25.2001 785.114 25.1647 785.14 25.1393C785.154 25.1259 785.171 25.1156 785.189 25.109C785.208 25.1024 785.227 25.0996 785.246 25.1008H785.777C785.81 25.1008 785.825 25.0847 785.825 25.0524V23.9719C785.825 23.9266 785.838 23.8918 785.864 23.8658C785.878 23.8525 785.895 23.8422 785.913 23.8356C785.931 23.829 785.951 23.8261 785.97 23.8273H786.568C786.613 23.8273 786.648 23.8398 786.674 23.8658C786.7 23.8918 786.712 23.9266 786.712 23.9719V25.0524C786.712 25.0847 786.728 25.1008 786.761 25.1008H787.745C787.79 25.1008 787.826 25.1133 787.851 25.1393C787.864 25.1533 787.875 25.17 787.881 25.1881C787.888 25.2062 787.891 25.2255 787.89 25.2448V25.7175C787.891 25.7369 787.888 25.7563 787.882 25.7745C787.875 25.7928 787.865 25.8095 787.852 25.8236ZM789.921 29.7262C789.57 29.4849 789.325 29.149 789.183 28.7179C789.067 28.3711 789.01 27.9785 789.01 27.5411C789.01 27.0846 789.064 26.6987 789.173 26.3831C789.314 25.9588 789.562 25.626 789.916 25.3847C790.27 25.1434 790.691 25.0233 791.18 25.0233C791.643 25.0233 792.047 25.1434 792.391 25.3847C792.734 25.626 792.981 25.9557 793.129 26.3732C793.245 26.7013 793.302 27.0872 793.302 27.5313C793.302 27.9811 793.245 28.3768 793.129 28.7174C792.987 29.1485 792.743 29.4849 792.396 29.7257C792.049 29.9669 791.64 30.0871 791.17 30.0871C790.688 30.0876 790.271 29.9675 789.921 29.7262ZM791.845 29.0699C792.038 28.9254 792.176 28.721 792.261 28.4569C792.331 28.2125 792.366 27.9103 792.366 27.5505C792.366 27.1907 792.334 26.8911 792.27 26.653C792.186 26.3893 792.048 26.1855 791.855 26.0404C791.662 25.8953 791.427 25.8231 791.151 25.8231C790.887 25.8231 790.659 25.8959 790.466 26.0404C790.273 26.185 790.135 26.3893 790.051 26.653C789.981 26.8781 789.945 27.1771 789.945 27.5505C789.945 27.9233 789.981 28.226 790.051 28.4569C790.128 28.721 790.265 28.9249 790.461 29.0699C790.657 29.215 790.894 29.2868 791.17 29.2868C791.413 29.2917 791.651 29.2154 791.845 29.0699ZM797.422 25.158C797.492 25.1965 797.518 25.2578 797.499 25.3415L797.364 25.9687C797.357 26.0331 797.325 26.0654 797.267 26.0654C797.241 26.0663 797.215 26.063 797.19 26.0555C797.084 26.0218 796.973 26.0055 796.862 26.0071C796.797 26.0071 796.749 26.0108 796.717 26.017C796.415 26.03 796.165 26.1345 795.969 26.3311C795.773 26.5271 795.675 26.783 795.675 27.0981V29.8666C795.676 29.886 795.673 29.9054 795.667 29.9236C795.66 29.9419 795.65 29.9586 795.637 29.9727C795.623 29.986 795.606 29.9963 795.588 30.0029C795.57 30.0095 795.55 30.0123 795.531 30.0111H794.894C794.875 30.0124 794.855 30.0096 794.837 30.0029C794.819 29.9963 794.802 29.986 794.788 29.9727C794.775 29.9586 794.764 29.9419 794.758 29.9236C794.751 29.9054 794.748 29.886 794.749 29.8666V25.2448C794.749 25.2001 794.762 25.1647 794.788 25.1393C794.802 25.1259 794.819 25.1156 794.837 25.109C794.855 25.1024 794.875 25.0996 794.894 25.1008H795.531C795.576 25.1008 795.611 25.1133 795.637 25.1393C795.663 25.1647 795.675 25.2001 795.675 25.2448V25.6889C795.675 25.7149 795.68 25.7295 795.69 25.7326C795.699 25.7357 795.71 25.7274 795.723 25.7081C796.013 25.2708 796.405 25.0524 796.9 25.0524C797.094 25.0524 797.267 25.0873 797.422 25.158Z" fill="#C9D1D9"/>
<path d="M719.876 28.3268C719.821 28.3269 719.767 28.3154 719.717 28.293L716.369 26.7939C716.3 26.763 716.242 26.713 716.201 26.6498C716.16 26.5866 716.138 26.513 716.138 26.4377C716.138 26.3624 716.16 26.2888 716.201 26.2256C716.242 26.1624 716.3 26.1123 716.369 26.0815L719.717 24.5875C719.811 24.5456 719.918 24.5428 720.015 24.5797C720.112 24.6166 720.19 24.6903 720.232 24.7846C720.274 24.8792 720.277 24.9865 720.24 25.0831C720.203 25.1797 720.129 25.2576 720.034 25.2999L717.484 26.4382L720.035 27.5806C720.116 27.617 720.183 27.6803 720.224 27.7599C720.264 27.8395 720.276 27.9306 720.257 28.0179C720.239 28.1053 720.191 28.1836 720.122 28.2399C720.052 28.2961 719.966 28.3268 719.876 28.3268Z" fill="#C9D1D9"/>
<path d="M715.314 33.7655C711.633 33.7655 708.415 31.281 707.49 27.7231C707.464 27.6231 707.479 27.5168 707.531 27.4276C707.584 27.3384 707.669 27.2736 707.769 27.2476C707.869 27.2215 707.976 27.2363 708.065 27.2886C708.154 27.3409 708.219 27.4265 708.245 27.5266C708.653 29.0904 709.568 30.4748 710.848 31.4626C712.127 32.4505 713.697 32.9861 715.314 32.9855C715.417 32.9855 715.516 33.0266 715.59 33.0997C715.663 33.1729 715.704 33.2721 715.704 33.3755C715.704 33.479 715.663 33.5781 715.59 33.6513C715.516 33.7244 715.417 33.7655 715.314 33.7655Z" fill="#C9D1D9"/>
<path d="M713.97 30.527C713.867 30.527 713.767 30.4859 713.694 30.4127C713.621 30.3396 713.58 30.2404 713.58 30.137V22.7233C713.58 22.6199 713.621 22.5207 713.694 22.4475C713.767 22.3744 713.867 22.3333 713.97 22.3333C714.074 22.3333 714.173 22.3744 714.246 22.4475C714.319 22.5207 714.36 22.6199 714.36 22.7233V30.137C714.36 30.2404 714.319 30.3396 714.246 30.4127C714.173 30.4859 714.074 30.527 713.97 30.527Z" fill="#C9D1D9"/>
<path d="M728.689 34.895C728.638 34.8951 728.587 34.8851 728.54 34.8654C728.493 34.8458 728.45 34.8169 728.414 34.7806L726.712 33.0781L725.01 34.7801C724.973 34.8163 724.93 34.845 724.883 34.8646C724.836 34.8842 724.785 34.8943 724.734 34.8943C724.683 34.8943 724.632 34.8842 724.585 34.8646C724.537 34.845 724.494 34.8163 724.458 34.7801C724.422 34.7438 724.393 34.7008 724.373 34.6535C724.354 34.6062 724.344 34.5554 724.344 34.5042C724.344 34.453 724.354 34.4022 724.373 34.3549C724.393 34.3076 724.422 34.2646 724.458 34.2283L726.436 32.2503C726.472 32.214 726.515 32.1853 726.562 32.1657C726.61 32.1461 726.66 32.136 726.712 32.136C726.763 32.136 726.814 32.1461 726.861 32.1657C726.908 32.1853 726.951 32.214 726.987 32.2503L728.965 34.2289C729.02 34.2834 729.057 34.353 729.072 34.4287C729.087 34.5044 729.08 34.583 729.05 34.6543C729.021 34.7257 728.97 34.7866 728.906 34.8295C728.842 34.8723 728.766 34.8951 728.689 34.895Z" fill="#C9D1D9"/>
<path d="M732.644 34.8949C732.593 34.895 732.542 34.8849 732.495 34.8653C732.448 34.8457 732.405 34.8169 732.369 34.7805L730.667 33.0781L728.965 34.78C728.929 34.8163 728.886 34.845 728.839 34.8646C728.791 34.8842 728.741 34.8943 728.689 34.8943C728.638 34.8943 728.587 34.8842 728.54 34.8646C728.493 34.845 728.45 34.8163 728.414 34.78C728.377 34.7438 728.349 34.7008 728.329 34.6535C728.309 34.6061 728.299 34.5554 728.299 34.5042C728.299 34.4529 728.309 34.4022 728.329 34.3549C728.349 34.3075 728.377 34.2645 728.414 34.2283L730.391 32.2502C730.466 32.1798 730.564 32.1406 730.667 32.1406C730.77 32.1406 730.868 32.1798 730.943 32.2502L732.921 34.2288C732.976 34.2834 733.013 34.353 733.028 34.4288C733.043 34.5046 733.035 34.5832 733.006 34.6545C732.976 34.7259 732.926 34.7869 732.862 34.8297C732.797 34.8725 732.722 34.8952 732.644 34.8949Z" fill="#C9D1D9"/>
<path d="M736.6 34.895C736.549 34.8951 736.498 34.8851 736.451 34.8655C736.404 34.8458 736.361 34.817 736.324 34.7806L734.623 33.0781L732.921 34.7801C732.885 34.8163 732.842 34.8451 732.794 34.8647C732.747 34.8843 732.696 34.8944 732.645 34.8944C732.594 34.8944 732.543 34.8843 732.496 34.8647C732.448 34.8451 732.405 34.8163 732.369 34.7801C732.333 34.7439 732.304 34.7009 732.285 34.6535C732.265 34.6062 732.255 34.5555 732.255 34.5042C732.255 34.453 732.265 34.4023 732.285 34.3549C732.304 34.3076 732.333 34.2646 732.369 34.2284L734.347 32.2503C734.42 32.1773 734.52 32.1362 734.623 32.1362C734.726 32.1362 734.825 32.1773 734.899 32.2503L736.876 34.2289C736.931 34.2834 736.968 34.3529 736.983 34.4286C736.998 34.5043 736.991 34.5828 736.961 34.6541C736.932 34.7254 736.882 34.7864 736.817 34.8293C736.753 34.8722 736.678 34.895 736.6 34.895Z" fill="#C9D1D9"/>
<path d="M740.555 34.8949C740.504 34.895 740.453 34.8849 740.406 34.8653C740.359 34.8457 740.316 34.8168 740.28 34.7805L738.578 33.0781L736.876 34.78C736.84 34.8163 736.797 34.845 736.75 34.8646C736.702 34.8842 736.651 34.8943 736.6 34.8943C736.549 34.8943 736.498 34.8842 736.451 34.8646C736.404 34.845 736.361 34.8163 736.324 34.78C736.288 34.7438 736.259 34.7008 736.24 34.6535C736.22 34.6061 736.21 34.5554 736.21 34.5042C736.21 34.4529 736.22 34.4022 736.24 34.3549C736.259 34.3075 736.288 34.2645 736.324 34.2283L738.302 32.2502C738.377 32.1798 738.475 32.1406 738.578 32.1406C738.68 32.1406 738.779 32.1798 738.854 32.2502L740.832 34.2288C740.887 34.2834 740.924 34.3531 740.939 34.4289C740.954 34.5048 740.947 34.5834 740.917 34.6548C740.887 34.7262 740.837 34.7871 740.772 34.8299C740.708 34.8726 740.632 34.8953 740.555 34.8949Z" fill="#C9D1D9"/>
<path d="M744.511 34.8949C744.46 34.895 744.409 34.8849 744.362 34.8653C744.315 34.8457 744.272 34.8169 744.236 34.7805L742.533 33.0781L740.832 34.78C740.796 34.8163 740.753 34.845 740.706 34.8646C740.658 34.8842 740.608 34.8943 740.556 34.8943C740.505 34.8943 740.454 34.8842 740.407 34.8646C740.36 34.845 740.317 34.8163 740.281 34.78C740.244 34.7438 740.216 34.7008 740.196 34.6535C740.176 34.6061 740.166 34.5554 740.166 34.5042C740.166 34.4529 740.176 34.4022 740.196 34.3549C740.216 34.3075 740.244 34.2645 740.281 34.2283L742.258 32.2502C742.333 32.1798 742.431 32.1406 742.534 32.1406C742.637 32.1406 742.735 32.1798 742.81 32.2502L744.788 34.2288C744.843 34.2834 744.88 34.353 744.895 34.4288C744.91 34.5046 744.902 34.5832 744.873 34.6545C744.843 34.7259 744.793 34.7869 744.728 34.8297C744.664 34.8725 744.589 34.8952 744.511 34.8949Z" fill="#C9D1D9"/>
<path d="M748.466 34.8949C748.415 34.8951 748.364 34.885 748.317 34.8654C748.27 34.8458 748.227 34.8169 748.191 34.7805L746.489 33.0781L744.787 34.78C744.751 34.8163 744.708 34.845 744.661 34.8646C744.613 34.8842 744.563 34.8943 744.511 34.8943C744.46 34.8943 744.41 34.8842 744.362 34.8646C744.315 34.845 744.272 34.8163 744.236 34.78C744.199 34.7438 744.171 34.7008 744.151 34.6535C744.131 34.6061 744.121 34.5554 744.121 34.5042C744.121 34.4529 744.131 34.4022 744.151 34.3549C744.171 34.3075 744.199 34.2645 744.236 34.2283L746.213 32.2502C746.288 32.1798 746.386 32.1406 746.489 32.1406C746.592 32.1406 746.69 32.1798 746.765 32.2502L748.743 34.2288C748.798 34.2834 748.835 34.353 748.85 34.4288C748.865 34.5046 748.857 34.5832 748.828 34.6545C748.798 34.7259 748.748 34.7869 748.684 34.8297C748.619 34.8725 748.544 34.8952 748.466 34.8949Z" fill="#C9D1D9"/>
<path d="M752.422 34.8949C752.371 34.895 752.32 34.8849 752.273 34.8653C752.225 34.8457 752.183 34.8169 752.146 34.7805L750.444 33.0781L748.743 34.78C748.707 34.8163 748.664 34.845 748.616 34.8646C748.569 34.8842 748.518 34.8943 748.467 34.8943C748.416 34.8943 748.365 34.8842 748.318 34.8646C748.271 34.845 748.228 34.8163 748.191 34.78C748.155 34.7438 748.126 34.7008 748.107 34.6535C748.087 34.6061 748.077 34.5554 748.077 34.5042C748.077 34.4529 748.087 34.4022 748.107 34.3549C748.126 34.3075 748.155 34.2645 748.191 34.2283L750.169 32.2502C750.243 32.1798 750.342 32.1406 750.445 32.1406C750.547 32.1406 750.646 32.1798 750.721 32.2502L752.699 34.2288C752.753 34.2834 752.791 34.353 752.806 34.4288C752.821 34.5046 752.813 34.5832 752.783 34.6545C752.754 34.7259 752.704 34.7869 752.639 34.8297C752.575 34.8725 752.499 34.8952 752.422 34.8949Z" fill="#C9D1D9"/>
<path d="M756.378 34.895C756.326 34.8951 756.276 34.8851 756.228 34.8655C756.181 34.8458 756.138 34.817 756.102 34.7806L754.4 33.0781L752.698 34.7801C752.662 34.8163 752.619 34.8451 752.572 34.8647C752.524 34.8843 752.473 34.8944 752.422 34.8944C752.371 34.8944 752.32 34.8843 752.273 34.8647C752.226 34.8451 752.183 34.8163 752.146 34.7801C752.11 34.7439 752.081 34.7009 752.062 34.6535C752.042 34.6062 752.032 34.5555 752.032 34.5042C752.032 34.453 752.042 34.4023 752.062 34.3549C752.081 34.3076 752.11 34.2646 752.146 34.2284L754.124 32.2503C754.198 32.1773 754.297 32.1362 754.4 32.1362C754.503 32.1362 754.603 32.1773 754.676 32.2503L756.653 34.2289C756.708 34.2834 756.745 34.3529 756.76 34.4286C756.775 34.5043 756.768 34.5828 756.738 34.6541C756.709 34.7254 756.659 34.7864 756.594 34.8293C756.53 34.8722 756.455 34.895 756.378 34.895Z" fill="#C9D1D9"/>
<path d="M760.332 34.895C760.281 34.895 760.23 34.885 760.183 34.8653C760.136 34.8457 760.093 34.8169 760.057 34.7806L758.355 33.0781L756.653 34.7801C756.617 34.8163 756.574 34.845 756.527 34.8646C756.479 34.8842 756.429 34.8943 756.377 34.8943C756.326 34.8943 756.275 34.8842 756.228 34.8646C756.181 34.845 756.138 34.8163 756.102 34.7801C756.065 34.7438 756.037 34.7008 756.017 34.6535C755.997 34.6062 755.987 34.5554 755.987 34.5042C755.987 34.453 755.997 34.4022 756.017 34.3549C756.037 34.3076 756.065 34.2646 756.102 34.2283L758.08 32.2503C758.116 32.214 758.159 32.1853 758.206 32.1657C758.253 32.1461 758.304 32.136 758.355 32.136C758.406 32.136 758.457 32.1461 758.504 32.1657C758.552 32.1853 758.595 32.214 758.631 32.2503L760.609 34.2289C760.664 34.2834 760.701 34.353 760.716 34.4288C760.731 34.5046 760.723 34.5832 760.694 34.6546C760.664 34.7259 760.614 34.7869 760.549 34.8297C760.485 34.8725 760.41 34.8952 760.332 34.895Z" fill="#C9D1D9"/>
<path d="M764.288 34.895C764.237 34.8951 764.186 34.885 764.139 34.8654C764.092 34.8457 764.049 34.8169 764.013 34.7806L762.311 33.0781L760.609 34.7801C760.536 34.8532 760.437 34.8944 760.334 34.8944C760.23 34.8944 760.131 34.8532 760.058 34.7801C759.985 34.7069 759.943 34.6077 759.943 34.5042C759.943 34.4008 759.985 34.3015 760.058 34.2284L762.035 32.2503C762.108 32.1773 762.207 32.1362 762.311 32.1362C762.414 32.1362 762.513 32.1773 762.586 32.2503L764.565 34.2289C764.619 34.2834 764.656 34.353 764.672 34.4287C764.687 34.5045 764.679 34.583 764.649 34.6543C764.62 34.7257 764.57 34.7867 764.505 34.8295C764.441 34.8723 764.366 34.8951 764.288 34.895Z" fill="#C9D1D9"/>
<path d="M46 26L51 31L46 36" stroke="#C9D1D9" stroke-width="2" stroke-linecap="round" stroke-linejoin="round"/>
<path d="M35 20V27C35 28.0609 35.4214 29.0783 36.1716 29.8284C36.9217 30.5786 37.9391 31 39 31H51" stroke="#C9D1D9" stroke-width="2" stroke-linecap="round" stroke-linejoin="round"/>
</svg>
