<svg width="830" height="56" fill="none" xmlns="http://www.w3.org/2000/svg"><rect x="1" y="1" width="827" height="54" rx="10" fill="#093364"/><path d="M71.346 24.392 67.866 35H65.06l4.755-12.797h1.785l-.255 2.189ZM74.237 35l-3.489-10.608-.281-2.189h1.802L77.049 35h-2.812Zm-.158-4.764v2.066H67.32v-2.066h6.76Zm7.928 2.962c.31 0 .586-.058.826-.175.24-.124.428-.294.563-.51a1.49 1.49 0 0 0 .22-.782h2.381a3.169 3.169 0 0 1-.536 1.784 3.686 3.686 0 0 1-1.415 1.221c-.592.293-1.254.44-1.986.44-.739 0-1.383-.123-1.934-.37a3.775 3.775 0 0 1-1.362-1.019 4.465 4.465 0 0 1-.818-1.53 6.317 6.317 0 0 1-.272-1.88v-.255c0-.674.09-1.3.272-1.88a4.361 4.361 0 0 1 .818-1.53c.363-.44.817-.782 1.362-1.028.545-.247 1.184-.37 1.916-.37.78 0 1.462.15 2.048.449a3.34 3.34 0 0 1 1.388 1.283c.34.55.513 1.204.52 1.96h-2.383a1.982 1.982 0 0 0-.202-.861 1.458 1.458 0 0 0-.545-.616c-.234-.158-.524-.237-.87-.237-.37 0-.67.08-.905.237a1.515 1.515 0 0 0-.545.633c-.13.264-.22.566-.273.905-.047.334-.07.686-.07 1.055v.255c0 .37.023.724.07 1.063.047.34.135.642.264.906.135.263.32.471.554.624.234.152.539.228.914.228Zm9.835 1.978c-.739 0-1.4-.117-1.986-.352a4.362 4.362 0 0 1-1.495-.993 4.414 4.414 0 0 1-.931-1.468 4.942 4.942 0 0 1-.326-1.793v-.351c0-.721.103-1.38.308-1.978a4.653 4.653 0 0 1 .879-1.555c.387-.44.856-.777 1.406-1.011.551-.24 1.172-.36 1.864-.36.673 0 1.271.11 1.792.333.522.223.959.54 1.31.95.358.41.627.902.809 1.476.181.569.272 1.201.272 1.899v1.054h-7.558V29.34h5.07v-.194c0-.351-.064-.665-.192-.94a1.493 1.493 0 0 0-.563-.668c-.252-.164-.574-.246-.967-.246-.334 0-.62.073-.861.22-.24.146-.437.351-.589.615a3.348 3.348 0 0 0-.334.932c-.07.351-.106.738-.106 1.16v.351c0 .381.053.733.159 1.055.111.322.266.6.466.835.205.234.45.416.738.545.293.129.624.193.993.193.457 0 .882-.088 1.274-.263a2.759 2.759 0 0 0 1.029-.818l1.23 1.336c-.199.287-.472.563-.817.826-.34.264-.75.48-1.23.65-.481.165-1.029.247-1.644.247Zm10.485-2.804a.825.825 0 0 0-.158-.492c-.106-.147-.302-.281-.589-.404-.281-.13-.688-.246-1.222-.352a9.528 9.528 0 0 1-1.344-.395 4.658 4.658 0 0 1-1.073-.59 2.56 2.56 0 0 1-.703-.808 2.25 2.25 0 0 1-.255-1.081c0-.398.085-.773.255-1.125a2.9 2.9 0 0 1 .747-.932c.329-.275.727-.489 1.196-.641a5.04 5.04 0 0 1 1.599-.238c.826 0 1.535.132 2.127.396.598.264 1.055.627 1.371 1.09.323.457.484.978.484 1.564h-2.532c0-.246-.052-.466-.158-.659a1.044 1.044 0 0 0-.474-.466c-.211-.117-.487-.175-.827-.175-.281 0-.524.05-.729.149a1.118 1.118 0 0 0-.475.387.93.93 0 0 0-.158.527c0 .146.03.278.088.396a.96.96 0 0 0 .308.307c.14.094.322.182.545.264.228.076.509.146.843.21.686.141 1.298.326 1.837.554.539.223.967.528 1.283.915.317.38.475.881.475 1.502 0 .422-.094.809-.281 1.16-.188.352-.457.66-.809.923-.351.258-.773.46-1.265.607a5.921 5.921 0 0 1-1.644.21c-.885 0-1.635-.157-2.25-.474-.61-.316-1.072-.718-1.389-1.204-.31-.492-.465-.996-.465-1.512h2.399c.012.346.1.624.264.835.17.211.383.364.641.457.264.094.548.141.853.141.328 0 .6-.044.817-.132.217-.094.381-.217.492-.369a.886.886 0 0 0 .176-.545Zm9.246 0a.818.818 0 0 0-.158-.492c-.105-.147-.302-.281-.589-.404-.281-.13-.688-.246-1.222-.352a9.528 9.528 0 0 1-1.344-.395 4.646 4.646 0 0 1-1.072-.59 2.562 2.562 0 0 1-.704-.808 2.248 2.248 0 0 1-.255-1.081c0-.398.085-.773.255-1.125.176-.352.425-.662.747-.932.329-.275.727-.489 1.196-.641a5.04 5.04 0 0 1 1.599-.238c.827 0 1.536.132 2.127.396.598.264 1.055.627 1.371 1.09.323.457.484.978.484 1.564h-2.531c0-.246-.053-.466-.159-.659a1.04 1.04 0 0 0-.474-.466c-.211-.117-.487-.175-.826-.175-.282 0-.525.05-.73.149a1.124 1.124 0 0 0-.475.387.934.934 0 0 0-.158.527c0 .146.03.278.088.396a.963.963 0 0 0 .308.307c.14.094.322.182.545.264.228.076.509.146.843.21.686.141 1.298.326 1.837.554.539.223.967.528 1.284.915.316.38.474.881.474 1.502 0 .422-.094.809-.281 1.16-.188.352-.457.66-.809.923-.351.258-.773.46-1.265.607a5.916 5.916 0 0 1-1.644.21c-.885 0-1.635-.157-2.25-.474-.609-.316-1.072-.718-1.389-1.204-.31-.492-.465-.996-.465-1.512h2.399c.012.346.1.624.264.835.17.211.384.364.641.457.264.094.548.141.853.141.328 0 .6-.044.817-.132.217-.094.381-.217.492-.369a.886.886 0 0 0 .176-.545Zm9.238.483V28.62c0-.305-.05-.565-.15-.782a1.109 1.109 0 0 0-.466-.519c-.205-.123-.471-.184-.799-.184-.282 0-.525.05-.73.15a1.06 1.06 0 0 0-.475.412 1.144 1.144 0 0 0-.167.624h-2.531c0-.404.094-.788.281-1.151.188-.363.46-.683.818-.958.357-.281.782-.501 1.274-.66a5.502 5.502 0 0 1 1.67-.236c.738 0 1.395.122 1.969.369a3.007 3.007 0 0 1 1.353 1.107c.334.492.501 1.107.501 1.846v4.07c0 .52.033.948.097 1.282.065.328.158.616.281.862V35h-2.557a3.678 3.678 0 0 1-.282-.967 8.048 8.048 0 0 1-.087-1.178Zm.334-3.647.017 1.433h-1.415c-.334 0-.624.038-.87.114a1.617 1.617 0 0 0-.606.325 1.247 1.247 0 0 0-.352.475c-.07.181-.106.38-.106.597 0 .217.05.413.15.59.099.17.243.304.431.404.187.093.407.14.659.14.381 0 .712-.076.993-.228.281-.153.498-.34.65-.563.158-.222.241-.433.246-.633l.668 1.073c-.093.24-.222.489-.386.747a3.517 3.517 0 0 1-.607.73 3.122 3.122 0 0 1-.888.553c-.345.14-.755.21-1.23.21-.603 0-1.151-.12-1.644-.36a2.998 2.998 0 0 1-1.16-1.01 2.656 2.656 0 0 1-.422-1.477c0-.498.094-.94.282-1.327.187-.387.463-.712.826-.976.369-.27.829-.471 1.38-.606.551-.14 1.189-.211 1.916-.211h1.468Zm6.697-1.643V35h-2.531v-9.51h2.381l.15 2.075Zm2.865-2.136-.044 2.346a6.123 6.123 0 0 0-.448-.044 4.577 4.577 0 0 0-.466-.026 2.79 2.79 0 0 0-.932.14c-.257.089-.474.22-.65.396-.17.176-.299.39-.387.642-.082.252-.129.539-.14.861l-.51-.158c0-.615.061-1.18.184-1.696.124-.522.302-.976.537-1.363.24-.386.533-.685.878-.896a2.235 2.235 0 0 1 1.187-.317c.141 0 .284.012.431.036.146.017.266.044.36.079Zm8.209 1.89v11.337h-2.531V25.49h2.346l.185 1.828Zm6.021 2.82v.185c0 .692-.083 1.333-.247 1.925a4.79 4.79 0 0 1-.703 1.547c-.31.434-.697.773-1.16 1.02-.457.24-.984.36-1.582.36-.58 0-1.084-.117-1.512-.352a3.156 3.156 0 0 1-1.081-.984 5.707 5.707 0 0 1-.694-1.486 11.612 11.612 0 0 1-.404-1.81v-.483c.093-.692.228-1.325.404-1.899.176-.58.407-1.08.694-1.503a3.146 3.146 0 0 1 1.073-.993c.427-.234.928-.352 1.503-.352.603 0 1.133.115 1.59.343.463.229.85.557 1.161.985.316.427.553.937.711 1.529.164.592.247 1.248.247 1.969Zm-2.541.185v-.184a5.54 5.54 0 0 0-.105-1.117 2.895 2.895 0 0 0-.316-.905 1.545 1.545 0 0 0-.563-.598c-.228-.146-.507-.22-.835-.22-.346 0-.641.056-.888.168-.24.111-.436.272-.588.483-.153.211-.267.463-.343.756a4.925 4.925 0 0 0-.141.993v1.222c.029.433.112.823.246 1.169.135.34.343.61.624.808.282.2.651.3 1.108.3.334 0 .615-.074.843-.22.229-.153.414-.36.554-.624.147-.264.249-.569.308-.915.064-.345.096-.717.096-1.116Zm9.247 2.531V28.62c0-.305-.05-.565-.15-.782a1.109 1.109 0 0 0-.466-.519c-.205-.123-.471-.184-.799-.184-.282 0-.525.05-.73.15a1.06 1.06 0 0 0-.475.412 1.144 1.144 0 0 0-.167.624h-2.531c0-.404.094-.788.281-1.151.188-.363.46-.683.818-.958.357-.281.782-.501 1.274-.66a5.502 5.502 0 0 1 1.67-.236c.738 0 1.395.122 1.969.369a3.007 3.007 0 0 1 1.353 1.107c.334.492.501 1.107.501 1.846v4.07c0 .52.033.948.097 1.282.065.328.158.616.281.862V35h-2.557a3.678 3.678 0 0 1-.282-.967 8.048 8.048 0 0 1-.087-1.178Zm.334-3.647.017 1.433h-1.415c-.334 0-.624.038-.87.114a1.617 1.617 0 0 0-.606.325 1.247 1.247 0 0 0-.352.475c-.07.181-.105.38-.105.597 0 .217.049.413.149.59.1.17.243.304.431.404.187.093.407.14.659.14.381 0 .712-.076.993-.228.281-.153.498-.34.65-.563.159-.222.241-.433.246-.633l.668 1.073c-.093.24-.222.489-.386.747a3.517 3.517 0 0 1-.607.73 3.13 3.13 0 0 1-.887.553c-.346.14-.756.21-1.231.21-.603 0-1.151-.12-1.643-.36a2.994 2.994 0 0 1-1.161-1.01 2.656 2.656 0 0 1-.422-1.477c0-.498.094-.94.282-1.327.187-.387.463-.712.826-.976.369-.27.829-.471 1.38-.606.551-.14 1.189-.211 1.916-.211h1.468Zm-2.822-5.001 1.723-2.707h2.751l-2.417 2.707h-2.057Zm13.008 1.283h2.294v9.194c0 .867-.193 1.602-.58 2.206a3.576 3.576 0 0 1-1.6 1.38c-.685.316-1.482.474-2.39.474-.399 0-.821-.053-1.266-.158a5.082 5.082 0 0 1-1.266-.492 3.34 3.34 0 0 1-1.001-.844l1.116-1.494c.293.34.633.603 1.019.79.387.194.815.29 1.283.29.457 0 .844-.084 1.161-.254.316-.164.559-.407.729-.73.17-.316.255-.7.255-1.15v-7.014l.246-2.198Zm-6.398 4.87v-.185c0-.727.088-1.386.263-1.978.182-.597.437-1.11.765-1.538a3.473 3.473 0 0 1 1.213-.993c.474-.234 1.011-.352 1.608-.352.633 0 1.163.118 1.591.352.428.234.779.568 1.055 1.002.275.428.489.934.641 1.52.159.58.282 1.216.37 1.908v.404c-.088.662-.22 1.277-.396 1.846a5.679 5.679 0 0 1-.694 1.494 3.07 3.07 0 0 1-1.073.984c-.421.235-.925.352-1.511.352a3.47 3.47 0 0 1-1.591-.36 3.55 3.55 0 0 1-1.204-1.011 4.825 4.825 0 0 1-.774-1.53 6.67 6.67 0 0 1-.263-1.916Zm2.531-.185v.184c0 .393.038.76.114 1.099.076.34.194.642.352.905.164.258.366.46.606.607.246.14.536.21.87.21.463 0 .841-.096 1.134-.29.293-.199.513-.471.659-.817.147-.346.232-.744.255-1.195v-1.151c-.012-.37-.061-.7-.149-.994a2.388 2.388 0 0 0-.369-.764 1.602 1.602 0 0 0-.616-.492 2.106 2.106 0 0 0-.896-.176 1.62 1.62 0 0 0-.87.228c-.24.147-.443.349-.607.607a3.076 3.076 0 0 0-.36.914 4.87 4.87 0 0 0-.123 1.125Zm10.802-4.685V35h-2.54v-9.51h2.54Zm-2.699-2.478c0-.37.129-.674.387-.914s.604-.36 1.037-.36c.428 0 .771.12 1.029.36.263.24.395.545.395.914s-.132.674-.395.914c-.258.24-.601.36-1.029.36-.433 0-.779-.12-1.037-.36a1.195 1.195 0 0 1-.387-.914Zm7.269 4.508V35h-2.531v-9.51h2.373l.158 2.03Zm-.369 2.391h-.686c0-.703.091-1.336.273-1.898a4.312 4.312 0 0 1 .764-1.45 3.295 3.295 0 0 1 1.169-.923 3.526 3.526 0 0 1 1.53-.326c.445 0 .852.065 1.221.194.369.129.686.334.95.615.269.281.474.653.615 1.116.146.463.219 1.029.219 1.697V35h-2.548v-6.073c0-.422-.059-.75-.176-.985a.985.985 0 0 0-.519-.492c-.222-.1-.498-.15-.826-.15-.34 0-.636.068-.888.203a1.764 1.764 0 0 0-.615.562c-.158.235-.278.51-.36.827a4.053 4.053 0 0 0-.123 1.02Zm13.113 2.944V28.62c0-.305-.05-.565-.149-.782a1.114 1.114 0 0 0-.466-.519c-.205-.123-.472-.184-.8-.184-.281 0-.524.05-.729.15a1.05 1.05 0 0 0-.475.412 1.144 1.144 0 0 0-.167.624h-2.531c0-.404.093-.788.281-1.151a2.87 2.87 0 0 1 .817-.958c.358-.281.783-.501 1.275-.66a5.498 5.498 0 0 1 1.67-.236c.738 0 1.394.122 1.968.369a3.005 3.005 0 0 1 1.354 1.107c.334.492.501 1.107.501 1.846v4.07c0 .52.032.948.097 1.282.064.328.158.616.281.862V35h-2.558a3.642 3.642 0 0 1-.281-.967 7.914 7.914 0 0 1-.088-1.178Zm.334-3.647.018 1.433h-1.415c-.334 0-.624.038-.87.114a1.614 1.614 0 0 0-.607.325 1.255 1.255 0 0 0-.351.475c-.071.181-.106.38-.106.597 0 .217.05.413.149.59.1.17.244.304.431.404.188.093.407.14.659.14.381 0 .712-.076.993-.228.282-.153.499-.34.651-.563.158-.222.24-.433.246-.633l.668 1.073c-.094.24-.223.489-.387.747a3.48 3.48 0 0 1-.606.73 3.122 3.122 0 0 1-.888.553c-.346.14-.756.21-1.23.21-.604 0-1.152-.12-1.644-.36a2.998 2.998 0 0 1-1.16-1.01 2.656 2.656 0 0 1-.422-1.477c0-.498.094-.94.281-1.327.188-.387.463-.712.826-.976.37-.27.83-.471 1.38-.606.551-.14 1.19-.211 1.916-.211h1.468Zm14.265 3.718V21.5h2.549V35h-2.294l-.255-2.074Zm-6.012-2.567v-.184a7.4 7.4 0 0 1 .246-1.978c.164-.597.404-1.11.721-1.538a3.279 3.279 0 0 1 1.169-.993c.463-.234.99-.352 1.582-.352.556 0 1.043.118 1.459.352.422.234.779.568 1.072 1.002.299.428.539.934.721 1.52.181.58.313 1.216.395 1.908v.404a10.215 10.215 0 0 1-.395 1.846 5.534 5.534 0 0 1-.721 1.494c-.293.422-.65.75-1.072.984-.422.235-.914.352-1.477.352-.592 0-1.119-.12-1.582-.36a3.354 3.354 0 0 1-1.16-1.011 4.833 4.833 0 0 1-.712-1.53 7.089 7.089 0 0 1-.246-1.916Zm2.531-.184v.184c0 .393.03.76.088 1.099.065.34.167.642.308.905.146.258.334.46.562.607.235.14.519.21.853.21.433 0 .791-.096 1.072-.29.281-.199.495-.471.642-.817a3.38 3.38 0 0 0 .263-1.195v-1.151c-.017-.37-.07-.7-.158-.994a2.162 2.162 0 0 0-.369-.764 1.62 1.62 0 0 0-.598-.492 1.844 1.844 0 0 0-.835-.176c-.328 0-.609.076-.843.228a1.676 1.676 0 0 0-.572.607c-.14.258-.246.562-.316.914-.065.345-.097.72-.097 1.125Zm7.603.167v-.185c0-.697.099-1.339.299-1.925a4.447 4.447 0 0 1 .87-1.538c.381-.433.849-.77 1.406-1.01.557-.247 1.195-.37 1.916-.37.721 0 1.362.123 1.925.37.562.24 1.034.577 1.415 1.01.387.434.68.947.879 1.538.199.586.299 1.228.299 1.925v.185c0 .691-.1 1.333-.299 1.925a4.479 4.479 0 0 1-.879 1.538c-.381.433-.85.77-1.406 1.01-.557.24-1.196.36-1.916.36-.721 0-1.363-.12-1.925-.36a3.973 3.973 0 0 1-1.415-1.01 4.558 4.558 0 0 1-.87-1.538 5.976 5.976 0 0 1-.299-1.925Zm2.531-.185v.185c0 .398.035.77.106 1.116.07.346.181.65.334.914.158.258.363.46.615.606.252.147.559.22.923.22.351 0 .653-.073.905-.22.252-.146.454-.348.606-.606.153-.264.264-.568.334-.914.076-.346.115-.718.115-1.116v-.185c0-.387-.039-.75-.115-1.09a2.874 2.874 0 0 0-.342-.914 1.709 1.709 0 0 0-.607-.633c-.252-.152-.557-.228-.914-.228s-.662.076-.914.228a1.797 1.797 0 0 0-.606.633 2.991 2.991 0 0 0-.334.914c-.071.34-.106.703-.106 1.09Zm16.444 3.041c.311 0 .586-.058.827-.175.24-.124.427-.294.562-.51.141-.223.214-.484.22-.782h2.382a3.167 3.167 0 0 1-.537 1.784 3.68 3.68 0 0 1-1.415 1.221c-.591.293-1.253.44-1.986.44-.738 0-1.383-.123-1.933-.37a3.783 3.783 0 0 1-1.363-1.019 4.46 4.46 0 0 1-.817-1.53 6.307 6.307 0 0 1-.273-1.88v-.255c0-.674.091-1.3.273-1.88a4.356 4.356 0 0 1 .817-1.53 3.74 3.74 0 0 1 1.363-1.028c.544-.247 1.183-.37 1.916-.37.779 0 1.461.15 2.047.449a3.339 3.339 0 0 1 1.389 1.283c.34.55.513 1.204.519 1.96h-2.382a1.984 1.984 0 0 0-.202-.861 1.459 1.459 0 0 0-.545-.616c-.235-.158-.525-.237-.87-.237-.37 0-.671.08-.906.237a1.519 1.519 0 0 0-.545.633 3.19 3.19 0 0 0-.272.905 7.57 7.57 0 0 0-.07 1.055v.255c0 .37.023.724.07 1.063.047.34.135.642.264.906.134.263.319.471.553.624.235.152.539.228.914.228Zm11.083-.474V25.49h2.532V35h-2.382l-.15-2.276Zm.282-1.951.747-.018c0 .633-.074 1.222-.22 1.767a4.202 4.202 0 0 1-.659 1.406c-.293.392-.662.7-1.108.923-.445.216-.969.325-1.573.325-.463 0-.89-.065-1.283-.194a2.608 2.608 0 0 1-1.002-.624 3.025 3.025 0 0 1-.65-1.098c-.153-.451-.229-.993-.229-1.626V25.49h2.531v6.161c0 .282.033.519.097.712.07.194.167.352.29.475.123.123.267.21.431.264.17.052.357.079.562.079.522 0 .932-.106 1.231-.317.304-.21.518-.498.641-.861.129-.37.194-.78.194-1.23Zm6.715-3.209V35h-2.532v-9.51h2.382l.15 2.075Zm2.865-2.135-.044 2.346a6.18 6.18 0 0 0-.448-.044 4.593 4.593 0 0 0-.466-.026c-.358 0-.668.047-.932.14-.258.089-.475.22-.65.396-.17.176-.299.39-.387.642-.082.252-.129.539-.141.861l-.509-.158c0-.615.061-1.18.184-1.696.123-.522.302-.976.536-1.363.241-.386.533-.685.879-.896a2.232 2.232 0 0 1 1.187-.317c.14 0 .284.012.43.036.147.017.267.044.361.079Zm6.337 6.943a.82.82 0 0 0-.159-.492c-.105-.147-.301-.281-.588-.404-.282-.13-.689-.246-1.222-.352a9.503 9.503 0 0 1-1.345-.395 4.666 4.666 0 0 1-1.072-.59 2.56 2.56 0 0 1-.703-.808 2.248 2.248 0 0 1-.255-1.081c0-.398.085-.773.255-1.125.176-.352.425-.662.747-.932a3.53 3.53 0 0 1 1.195-.641 5.046 5.046 0 0 1 1.6-.238c.826 0 1.535.132 2.127.396.597.264 1.054.627 1.371 1.09.322.457.483.978.483 1.564h-2.531c0-.246-.053-.466-.158-.659-.1-.2-.258-.354-.475-.466-.211-.117-.486-.175-.826-.175-.281 0-.524.05-.73.149a1.115 1.115 0 0 0-.474.387.926.926 0 0 0-.158.527c0 .146.029.278.088.396a.96.96 0 0 0 .307.307c.141.094.322.182.545.264.229.076.51.146.844.21a9.72 9.72 0 0 1 1.837.554c.539.223.967.528 1.283.915.316.38.475.881.475 1.502 0 .422-.094.809-.282 1.16-.187.352-.457.66-.808.923-.352.258-.774.46-1.266.607a5.909 5.909 0 0 1-1.643.21c-.885 0-1.635-.157-2.25-.474-.61-.316-1.073-.718-1.389-1.204-.311-.492-.466-.996-.466-1.512h2.399c.012.346.1.624.264.835.17.211.384.364.642.457.263.094.548.141.852.141.328 0 .601-.044.818-.132.216-.094.381-.217.492-.369a.893.893 0 0 0 .176-.545Zm3.7-2.03v-.185c0-.697.099-1.339.299-1.925a4.447 4.447 0 0 1 .87-1.538c.381-.433.849-.77 1.406-1.01.557-.247 1.195-.37 1.916-.37.721 0 1.362.123 1.925.37.562.24 1.034.577 1.415 1.01.387.434.68.947.879 1.538.199.586.299 1.228.299 1.925v.185c0 .691-.1 1.333-.299 1.925a4.479 4.479 0 0 1-.879 1.538c-.381.433-.85.77-1.406 1.01-.557.24-1.196.36-1.916.36-.721 0-1.363-.12-1.925-.36a3.982 3.982 0 0 1-1.415-1.01 4.558 4.558 0 0 1-.87-1.538 5.976 5.976 0 0 1-.299-1.925Zm2.531-.185v.185c0 .398.035.77.106 1.116.07.346.181.65.334.914.158.258.363.46.615.606.252.147.559.22.923.22.351 0 .653-.073.905-.22.252-.146.454-.348.606-.606.153-.264.264-.568.334-.914a5.13 5.13 0 0 0 .115-1.116v-.185c0-.387-.038-.75-.115-1.09a2.874 2.874 0 0 0-.342-.914 1.709 1.709 0 0 0-.607-.633c-.252-.152-.557-.228-.914-.228s-.662.076-.914.228a1.797 1.797 0 0 0-.606.633 2.991 2.991 0 0 0-.334.914c-.071.34-.106.703-.106 1.09Z" fill="#fff"/><path d="M48 29v6a2 2 0 0 1-2 2H35a2 2 0 0 1-2-2V24a2 2 0 0 1 2-2h6M45 19h6v6M40 30l11-11" stroke="#fff" stroke-width="2" stroke-linecap="round" stroke-linejoin="round"/><g clip-path="url(#a)"><path fill-rule="evenodd" clip-rule="evenodd" d="M779.617 22h1.133c.057 0 .104.048.104.105v11.338a.103.103 0 0 1-.031.074.104.104 0 0 1-.073.031h-1.133a.105.105 0 0 1-.074-.031.103.103 0 0 1-.031-.074V22.105c0-.057.047-.105.105-.105Zm7.787 9.33v.285c0 .124-.019.295-.067.515a1.38 1.38 0 0 1-.333.637c-.181.21-.447.4-.809.553-.362.152-.857.228-1.495.228-.638 0-1.133-.076-1.494-.228-.362-.153-.629-.334-.809-.553-.181-.21-.296-.428-.334-.647a3.343 3.343 0 0 1-.066-.505v-6.454c0-.058.047-.105.104-.105h1.133c.057 0 .105.047.105.105v6.045c0 .2.028.343.057.457a.774.774 0 0 0 .171.323c.086.106.22.19.4.258.171.066.41.105.705.105.305 0 .552-.039.733-.105a1.12 1.12 0 0 0 .409-.248.69.69 0 0 0 .191-.314c.028-.114.066-.21.066-.485V25.16c0-.058.048-.105.105-.105h1.133c.057 0 .104.047.104.105v6.169h-.009Zm3.856-6.274h.761c.067 0 .114.067.096.133l-.257.99c-.01.048-.058.076-.096.076h-.533c-.286 0-.514.039-.695.115a1.221 1.221 0 0 0-.409.266.758.758 0 0 0-.181.314c-.029.115-.038.22-.038.315v6.188a.112.112 0 0 1-.031.074.107.107 0 0 1-.074.03h-1.142a.107.107 0 0 1-.105-.104v-6.455c0-.114.019-.286.067-.505.038-.219.152-.428.333-.647.181-.21.447-.4.809-.552.352-.162.857-.238 1.495-.238Zm-15.566 0c.923 0 1.599.18 2.038.543.428.361.647.819.647 1.361v4.665c0 .19-.038.4-.105.619-.066.228-.2.438-.4.619-.2.19-.476.342-.818.476-.343.123-.8.19-1.352.19-.562 0-1.009-.067-1.352-.19-.343-.124-.619-.286-.819-.476-.2-.19-.333-.4-.4-.62a2.295 2.295 0 0 1-.105-.618v-.742c0-.4.105-.762.305-1.086.21-.323.495-.562.876-.695.191-.067.4-.133.648-.219.238-.086.475-.162.704-.248.228-.076.419-.152.59-.209.172-.066.276-.095.314-.114.038-.02.095-.048.162-.086a.996.996 0 0 0 .2-.161c.067-.077.115-.162.162-.248a.74.74 0 0 0 .067-.334v-.294a.814.814 0 0 0-.067-.324.727.727 0 0 0-.219-.305 1.181 1.181 0 0 0-.419-.229 2.12 2.12 0 0 0-.657-.085c-.523 0-.876.105-1.066.324a1.163 1.163 0 0 0-.276.685c0 .057-.048.095-.105.095h-1.142a.106.106 0 0 1-.105-.104v-.276c0-.267.048-.515.152-.743.096-.229.257-.438.486-.61.219-.17.495-.314.838-.409a4.461 4.461 0 0 1 1.218-.152Zm1.352 4.18a.37.37 0 0 1-.055.136.36.36 0 0 1-.107.102 1.088 1.088 0 0 1-.238.114c-.161.057-.333.114-.514.18-.18.067-.352.134-.514.181-.19.067-.371.124-.533.19-.13.057-.251.131-.362.22-.095.085-.181.19-.257.323a.98.98 0 0 0-.114.495c0 .4.095.695.285.895.191.19.543.295 1.057.295.524 0 .886-.104 1.076-.304.19-.21.286-.495.286-.876v-1.952h-.01Zm18.269-4.18c.923 0 1.6.18 2.038.543.428.361.647.819.647 1.361v4.665c0 .19-.038.4-.105.619-.067.228-.2.438-.4.619-.2.19-.476.342-.818.476-.343.123-.8.19-1.352.19-.562 0-1.009-.067-1.352-.19-.343-.124-.619-.286-.819-.476-.2-.19-.333-.4-.4-.62a2.29 2.29 0 0 1-.104-.618v-.742c0-.4.104-.762.304-1.086.21-.323.495-.562.876-.695.19-.067.4-.133.648-.219.237-.086.475-.162.704-.248.228-.076.419-.152.59-.209.171-.066.276-.095.315-.114.038-.02.095-.048.161-.086a.969.969 0 0 0 .2-.161c.067-.077.114-.162.162-.248a.74.74 0 0 0 .067-.334v-.294c0-.105-.02-.21-.067-.324a.727.727 0 0 0-.219-.305 1.172 1.172 0 0 0-.419-.229 2.12 2.12 0 0 0-.657-.085c-.523 0-.875.105-1.066.324a1.163 1.163 0 0 0-.276.685c0 .057-.048.095-.105.095h-1.142a.107.107 0 0 1-.105-.104v-.276c0-.267.048-.515.152-.743.095-.229.257-.438.486-.61.219-.17.495-.314.838-.409a4.515 4.515 0 0 1 1.218-.152Zm1.352 4.18a.34.34 0 0 1-.162.238c-.085.056-.161.085-.238.114-.161.057-.333.114-.514.18-.181.067-.352.134-.514.181-.19.067-.371.124-.533.19-.13.057-.251.131-.362.22-.095.085-.181.19-.257.323a.98.98 0 0 0-.114.495c0 .4.095.695.285.895.191.19.543.295 1.057.295.524 0 .886-.104 1.076-.304.191-.21.286-.495.286-.876v-1.952h-.01Z" fill="#fff"/></g><defs><clipPath id="a"><path fill="#fff" transform="translate(773 22)" d="M0 0h25v11.923H0z"/></clipPath></defs></svg>