<svg width="830" height="56" viewBox="0 0 830 56" fill="none" xmlns="http://www.w3.org/2000/svg">
<rect x="1" y="1" width="827" height="54" rx="10" fill="#238636"/>
<path d="M70.7568 32.3281L73.7715 22.2031H76.707L72.251 35H70.3174L70.7568 32.3281ZM67.9795 22.2031L70.9854 32.3281L71.4424 35H69.4912L65.0615 22.2031H67.9795ZM80.416 25.4902V35H77.876V25.4902H80.416ZM77.7178 23.0117C77.7178 22.6426 77.8467 22.3379 78.1045 22.0977C78.3623 21.8574 78.708 21.7373 79.1416 21.7373C79.5693 21.7373 79.9121 21.8574 80.1699 22.0977C80.4336 22.3379 80.5654 22.6426 80.5654 23.0117C80.5654 23.3809 80.4336 23.6855 80.1699 23.9258C79.9121 24.166 79.5693 24.2861 79.1416 24.2861C78.708 24.2861 78.3623 24.166 78.1045 23.9258C77.8467 23.6855 77.7178 23.3809 77.7178 23.0117ZM87.6494 32.3721C87.6494 32.1904 87.5967 32.0264 87.4912 31.8799C87.3857 31.7334 87.1895 31.5986 86.9023 31.4756C86.6211 31.3467 86.2139 31.2295 85.6807 31.124C85.2002 31.0186 84.752 30.8867 84.3359 30.7285C83.9258 30.5645 83.5684 30.3682 83.2637 30.1396C82.9648 29.9111 82.7305 29.6416 82.5605 29.3311C82.3906 29.0146 82.3057 28.6543 82.3057 28.25C82.3057 27.8516 82.3906 27.4766 82.5605 27.125C82.7363 26.7734 82.9854 26.4629 83.3076 26.1934C83.6357 25.918 84.0342 25.7041 84.5029 25.5518C84.9775 25.3936 85.5107 25.3145 86.1025 25.3145C86.9287 25.3145 87.6377 25.4463 88.2295 25.71C88.8271 25.9736 89.2842 26.3369 89.6006 26.7998C89.9229 27.2568 90.084 27.7783 90.084 28.3643H87.5527C87.5527 28.1182 87.5 27.8984 87.3945 27.7051C87.2949 27.5059 87.1367 27.3506 86.9199 27.2393C86.709 27.1221 86.4336 27.0635 86.0938 27.0635C85.8125 27.0635 85.5693 27.1133 85.3643 27.2129C85.1592 27.3066 85.001 27.4355 84.8896 27.5996C84.7842 27.7578 84.7314 27.9336 84.7314 28.127C84.7314 28.2734 84.7607 28.4053 84.8193 28.5225C84.8838 28.6338 84.9863 28.7363 85.127 28.8301C85.2676 28.9238 85.4492 29.0117 85.6719 29.0938C85.9004 29.1699 86.1816 29.2402 86.5156 29.3047C87.2012 29.4453 87.8135 29.6299 88.3525 29.8584C88.8916 30.0811 89.3193 30.3857 89.6357 30.7725C89.9521 31.1533 90.1104 31.6543 90.1104 32.2754C90.1104 32.6973 90.0166 33.084 89.8291 33.4355C89.6416 33.7871 89.3721 34.0947 89.0205 34.3584C88.6689 34.6162 88.2471 34.8184 87.7549 34.9648C87.2686 35.1055 86.7207 35.1758 86.1113 35.1758C85.2266 35.1758 84.4766 35.0176 83.8613 34.7012C83.252 34.3848 82.7891 33.9834 82.4727 33.4971C82.1621 33.0049 82.0068 32.501 82.0068 31.9854H84.4062C84.418 32.3311 84.5059 32.6094 84.6699 32.8203C84.8398 33.0312 85.0537 33.1836 85.3115 33.2773C85.5752 33.3711 85.8594 33.418 86.1641 33.418C86.4922 33.418 86.7646 33.374 86.9814 33.2861C87.1982 33.1924 87.3623 33.0693 87.4736 32.917C87.5908 32.7588 87.6494 32.5771 87.6494 32.3721ZM97.3789 32.7236V25.4902H99.9102V35H97.5283L97.3789 32.7236ZM97.6602 30.7725L98.4072 30.7549C98.4072 31.3877 98.334 31.9766 98.1875 32.5215C98.041 33.0605 97.8213 33.5293 97.5283 33.9277C97.2354 34.3203 96.8662 34.6279 96.4209 34.8506C95.9756 35.0674 95.4512 35.1758 94.8477 35.1758C94.3848 35.1758 93.957 35.1113 93.5645 34.9824C93.1777 34.8477 92.8438 34.6396 92.5625 34.3584C92.2871 34.0713 92.0703 33.7051 91.9121 33.2598C91.7598 32.8086 91.6836 32.2666 91.6836 31.6338V25.4902H94.2148V31.6514C94.2148 31.9326 94.2471 32.1699 94.3115 32.3633C94.3818 32.5566 94.4785 32.7148 94.6016 32.8379C94.7246 32.9609 94.8682 33.0488 95.0322 33.1016C95.2021 33.1543 95.3896 33.1807 95.5947 33.1807C96.1162 33.1807 96.5264 33.0752 96.8252 32.8643C97.1299 32.6533 97.3438 32.3662 97.4668 32.0029C97.5957 31.6338 97.6602 31.2236 97.6602 30.7725ZM106.977 32.8555V28.6191C106.977 28.3145 106.927 28.0537 106.827 27.8369C106.728 27.6143 106.572 27.4414 106.361 27.3184C106.156 27.1953 105.89 27.1338 105.562 27.1338C105.28 27.1338 105.037 27.1836 104.832 27.2832C104.627 27.377 104.469 27.5146 104.357 27.6963C104.246 27.8721 104.19 28.0801 104.19 28.3203H101.659C101.659 27.916 101.753 27.5322 101.94 27.1689C102.128 26.8057 102.4 26.4863 102.758 26.2109C103.115 25.9297 103.54 25.71 104.032 25.5518C104.53 25.3936 105.087 25.3145 105.702 25.3145C106.44 25.3145 107.097 25.4375 107.671 25.6836C108.245 25.9297 108.696 26.2988 109.024 26.791C109.358 27.2832 109.525 27.8984 109.525 28.6367V32.7061C109.525 33.2275 109.558 33.6553 109.622 33.9893C109.687 34.3174 109.78 34.6045 109.903 34.8506V35H107.346C107.223 34.7422 107.129 34.4199 107.064 34.0332C107.006 33.6406 106.977 33.248 106.977 32.8555ZM107.311 29.208L107.328 30.6406H105.913C105.579 30.6406 105.289 30.6787 105.043 30.7549C104.797 30.8311 104.595 30.9395 104.437 31.0801C104.278 31.2148 104.161 31.373 104.085 31.5547C104.015 31.7363 103.979 31.9355 103.979 32.1523C103.979 32.3691 104.029 32.5654 104.129 32.7412C104.229 32.9111 104.372 33.0459 104.56 33.1455C104.747 33.2393 104.967 33.2861 105.219 33.2861C105.6 33.2861 105.931 33.21 106.212 33.0576C106.493 32.9053 106.71 32.7178 106.862 32.4951C107.021 32.2725 107.103 32.0615 107.108 31.8623L107.776 32.9346C107.683 33.1748 107.554 33.4238 107.39 33.6816C107.231 33.9395 107.029 34.1826 106.783 34.4111C106.537 34.6338 106.241 34.8184 105.896 34.9648C105.55 35.1055 105.14 35.1758 104.665 35.1758C104.062 35.1758 103.514 35.0557 103.021 34.8154C102.535 34.5693 102.148 34.2324 101.861 33.8047C101.58 33.3711 101.439 32.8789 101.439 32.3281C101.439 31.8301 101.533 31.3877 101.721 31.001C101.908 30.6143 102.184 30.2891 102.547 30.0254C102.916 29.7559 103.376 29.5537 103.927 29.4189C104.478 29.2783 105.116 29.208 105.843 29.208H107.311ZM114.148 21.5V35H111.608V21.5H114.148ZM118.912 25.4902V35H116.372V25.4902H118.912ZM116.214 23.0117C116.214 22.6426 116.343 22.3379 116.601 22.0977C116.858 21.8574 117.204 21.7373 117.638 21.7373C118.065 21.7373 118.408 21.8574 118.666 22.0977C118.93 22.3379 119.062 22.6426 119.062 23.0117C119.062 23.3809 118.93 23.6855 118.666 23.9258C118.408 24.166 118.065 24.2861 117.638 24.2861C117.204 24.2861 116.858 24.166 116.601 23.9258C116.343 23.6855 116.214 23.3809 116.214 23.0117ZM128.571 33.0225V35H121.347V33.0225H128.571ZM128.431 26.9492L122.366 35H120.67V33.4971L126.708 25.4902H128.431V26.9492ZM127.534 25.4902V27.4766H120.811V25.4902H127.534ZM135.295 32.8555V28.6191C135.295 28.3145 135.245 28.0537 135.146 27.8369C135.046 27.6143 134.891 27.4414 134.68 27.3184C134.475 27.1953 134.208 27.1338 133.88 27.1338C133.599 27.1338 133.355 27.1836 133.15 27.2832C132.945 27.377 132.787 27.5146 132.676 27.6963C132.564 27.8721 132.509 28.0801 132.509 28.3203H129.978C129.978 27.916 130.071 27.5322 130.259 27.1689C130.446 26.8057 130.719 26.4863 131.076 26.2109C131.434 25.9297 131.858 25.71 132.351 25.5518C132.849 25.3936 133.405 25.3145 134.021 25.3145C134.759 25.3145 135.415 25.4375 135.989 25.6836C136.563 25.9297 137.015 26.2988 137.343 26.791C137.677 27.2832 137.844 27.8984 137.844 28.6367V32.7061C137.844 33.2275 137.876 33.6553 137.94 33.9893C138.005 34.3174 138.099 34.6045 138.222 34.8506V35H135.664C135.541 34.7422 135.447 34.4199 135.383 34.0332C135.324 33.6406 135.295 33.248 135.295 32.8555ZM135.629 29.208L135.646 30.6406H134.231C133.897 30.6406 133.607 30.6787 133.361 30.7549C133.115 30.8311 132.913 30.9395 132.755 31.0801C132.597 31.2148 132.479 31.373 132.403 31.5547C132.333 31.7363 132.298 31.9355 132.298 32.1523C132.298 32.3691 132.348 32.5654 132.447 32.7412C132.547 32.9111 132.69 33.0459 132.878 33.1455C133.065 33.2393 133.285 33.2861 133.537 33.2861C133.918 33.2861 134.249 33.21 134.53 33.0576C134.812 32.9053 135.028 32.7178 135.181 32.4951C135.339 32.2725 135.421 32.0615 135.427 31.8623L136.095 32.9346C136.001 33.1748 135.872 33.4238 135.708 33.6816C135.55 33.9395 135.348 34.1826 135.102 34.4111C134.855 34.6338 134.56 34.8184 134.214 34.9648C133.868 35.1055 133.458 35.1758 132.983 35.1758C132.38 35.1758 131.832 35.0557 131.34 34.8154C130.854 34.5693 130.467 34.2324 130.18 33.8047C129.898 33.3711 129.758 32.8789 129.758 32.3281C129.758 31.8301 129.852 31.3877 130.039 31.001C130.227 30.6143 130.502 30.2891 130.865 30.0254C131.234 29.7559 131.694 29.5537 132.245 29.4189C132.796 29.2783 133.435 29.208 134.161 29.208H135.629ZM142.326 27.5645V35H139.795V25.4902H142.177L142.326 27.5645ZM145.191 25.4287L145.147 27.7754C145.024 27.7578 144.875 27.7432 144.699 27.7314C144.529 27.7139 144.374 27.7051 144.233 27.7051C143.876 27.7051 143.565 27.752 143.302 27.8457C143.044 27.9336 142.827 28.0654 142.651 28.2412C142.481 28.417 142.353 28.6309 142.265 28.8828C142.183 29.1348 142.136 29.4219 142.124 29.7441L141.614 29.5859C141.614 28.9707 141.676 28.4053 141.799 27.8896C141.922 27.3682 142.101 26.9141 142.335 26.5273C142.575 26.1406 142.868 25.8418 143.214 25.6309C143.56 25.4199 143.955 25.3145 144.4 25.3145C144.541 25.3145 144.685 25.3262 144.831 25.3496C144.978 25.3672 145.098 25.3936 145.191 25.4287ZM153.4 27.5645V35H150.869V25.4902H153.251L153.4 27.5645ZM156.266 25.4287L156.222 27.7754C156.099 27.7578 155.949 27.7432 155.773 27.7314C155.604 27.7139 155.448 27.7051 155.308 27.7051C154.95 27.7051 154.64 27.752 154.376 27.8457C154.118 27.9336 153.901 28.0654 153.726 28.2412C153.556 28.417 153.427 28.6309 153.339 28.8828C153.257 29.1348 153.21 29.4219 153.198 29.7441L152.688 29.5859C152.688 28.9707 152.75 28.4053 152.873 27.8896C152.996 27.3682 153.175 26.9141 153.409 26.5273C153.649 26.1406 153.942 25.8418 154.288 25.6309C154.634 25.4199 155.029 25.3145 155.475 25.3145C155.615 25.3145 155.759 25.3262 155.905 25.3496C156.052 25.3672 156.172 25.3936 156.266 25.4287ZM161.662 35.1758C160.924 35.1758 160.262 35.0586 159.676 34.8242C159.09 34.584 158.592 34.2529 158.182 33.8311C157.777 33.4092 157.467 32.9199 157.25 32.3633C157.033 31.8008 156.925 31.2031 156.925 30.5703V30.2188C156.925 29.498 157.027 28.8389 157.232 28.2412C157.438 27.6436 157.73 27.125 158.111 26.6855C158.498 26.2461 158.967 25.9092 159.518 25.6748C160.068 25.4346 160.689 25.3145 161.381 25.3145C162.055 25.3145 162.652 25.4258 163.174 25.6484C163.695 25.8711 164.132 26.1875 164.483 26.5977C164.841 27.0078 165.11 27.5 165.292 28.0742C165.474 28.6426 165.564 29.2754 165.564 29.9727V31.0273H158.006V29.3398H163.077V29.1465C163.077 28.7949 163.013 28.4814 162.884 28.2061C162.761 27.9248 162.573 27.7021 162.321 27.5381C162.069 27.374 161.747 27.292 161.354 27.292C161.021 27.292 160.733 27.3652 160.493 27.5117C160.253 27.6582 160.057 27.8633 159.904 28.127C159.758 28.3906 159.646 28.7012 159.57 29.0586C159.5 29.4102 159.465 29.7969 159.465 30.2188V30.5703C159.465 30.9512 159.518 31.3027 159.623 31.625C159.734 31.9473 159.89 32.2256 160.089 32.46C160.294 32.6943 160.54 32.876 160.827 33.0049C161.12 33.1338 161.451 33.1982 161.82 33.1982C162.277 33.1982 162.702 33.1104 163.095 32.9346C163.493 32.7529 163.836 32.4805 164.123 32.1172L165.354 33.4531C165.154 33.7402 164.882 34.0156 164.536 34.2793C164.196 34.543 163.786 34.7598 163.306 34.9297C162.825 35.0938 162.277 35.1758 161.662 35.1758ZM172.147 32.3721C172.147 32.1904 172.095 32.0264 171.989 31.8799C171.884 31.7334 171.688 31.5986 171.4 31.4756C171.119 31.3467 170.712 31.2295 170.179 31.124C169.698 31.0186 169.25 30.8867 168.834 30.7285C168.424 30.5645 168.066 30.3682 167.762 30.1396C167.463 29.9111 167.229 29.6416 167.059 29.3311C166.889 29.0146 166.804 28.6543 166.804 28.25C166.804 27.8516 166.889 27.4766 167.059 27.125C167.234 26.7734 167.483 26.4629 167.806 26.1934C168.134 25.918 168.532 25.7041 169.001 25.5518C169.476 25.3936 170.009 25.3145 170.601 25.3145C171.427 25.3145 172.136 25.4463 172.728 25.71C173.325 25.9736 173.782 26.3369 174.099 26.7998C174.421 27.2568 174.582 27.7783 174.582 28.3643H172.051C172.051 28.1182 171.998 27.8984 171.893 27.7051C171.793 27.5059 171.635 27.3506 171.418 27.2393C171.207 27.1221 170.932 27.0635 170.592 27.0635C170.311 27.0635 170.067 27.1133 169.862 27.2129C169.657 27.3066 169.499 27.4355 169.388 27.5996C169.282 27.7578 169.229 27.9336 169.229 28.127C169.229 28.2734 169.259 28.4053 169.317 28.5225C169.382 28.6338 169.484 28.7363 169.625 28.8301C169.766 28.9238 169.947 29.0117 170.17 29.0938C170.398 29.1699 170.68 29.2402 171.014 29.3047C171.699 29.4453 172.312 29.6299 172.851 29.8584C173.39 30.0811 173.817 30.3857 174.134 30.7725C174.45 31.1533 174.608 31.6543 174.608 32.2754C174.608 32.6973 174.515 33.084 174.327 33.4355C174.14 33.7871 173.87 34.0947 173.519 34.3584C173.167 34.6162 172.745 34.8184 172.253 34.9648C171.767 35.1055 171.219 35.1758 170.609 35.1758C169.725 35.1758 168.975 35.0176 168.359 34.7012C167.75 34.3848 167.287 33.9834 166.971 33.4971C166.66 33.0049 166.505 32.501 166.505 31.9854H168.904C168.916 32.3311 169.004 32.6094 169.168 32.8203C169.338 33.0312 169.552 33.1836 169.81 33.2773C170.073 33.3711 170.357 33.418 170.662 33.418C170.99 33.418 171.263 33.374 171.479 33.2861C171.696 33.1924 171.86 33.0693 171.972 32.917C172.089 32.7588 172.147 32.5771 172.147 32.3721ZM181.877 32.7236V25.4902H184.408V35H182.026L181.877 32.7236ZM182.158 30.7725L182.905 30.7549C182.905 31.3877 182.832 31.9766 182.686 32.5215C182.539 33.0605 182.319 33.5293 182.026 33.9277C181.733 34.3203 181.364 34.6279 180.919 34.8506C180.474 35.0674 179.949 35.1758 179.346 35.1758C178.883 35.1758 178.455 35.1113 178.062 34.9824C177.676 34.8477 177.342 34.6396 177.061 34.3584C176.785 34.0713 176.568 33.7051 176.41 33.2598C176.258 32.8086 176.182 32.2666 176.182 31.6338V25.4902H178.713V31.6514C178.713 31.9326 178.745 32.1699 178.81 32.3633C178.88 32.5566 178.977 32.7148 179.1 32.8379C179.223 32.9609 179.366 33.0488 179.53 33.1016C179.7 33.1543 179.888 33.1807 180.093 33.1807C180.614 33.1807 181.024 33.0752 181.323 32.8643C181.628 32.6533 181.842 32.3662 181.965 32.0029C182.094 31.6338 182.158 31.2236 182.158 30.7725ZM189.014 21.5V35H186.474V21.5H189.014ZM195.764 25.4902V27.2832H190.227V25.4902H195.764ZM191.598 23.1436H194.129V32.1348C194.129 32.4102 194.164 32.6211 194.234 32.7676C194.311 32.9141 194.422 33.0166 194.568 33.0752C194.715 33.1279 194.899 33.1543 195.122 33.1543C195.28 33.1543 195.421 33.1484 195.544 33.1367C195.673 33.1191 195.781 33.1016 195.869 33.084L195.878 34.9473C195.661 35.0176 195.427 35.0732 195.175 35.1143C194.923 35.1553 194.645 35.1758 194.34 35.1758C193.783 35.1758 193.297 35.085 192.881 34.9033C192.471 34.7158 192.154 34.417 191.932 34.0068C191.709 33.5967 191.598 33.0576 191.598 32.3896V23.1436ZM202.338 32.8555V28.6191C202.338 28.3145 202.288 28.0537 202.188 27.8369C202.089 27.6143 201.934 27.4414 201.723 27.3184C201.518 27.1953 201.251 27.1338 200.923 27.1338C200.642 27.1338 200.398 27.1836 200.193 27.2832C199.988 27.377 199.83 27.5146 199.719 27.6963C199.607 27.8721 199.552 28.0801 199.552 28.3203H197.021C197.021 27.916 197.114 27.5322 197.302 27.1689C197.489 26.8057 197.762 26.4863 198.119 26.2109C198.477 25.9297 198.901 25.71 199.394 25.5518C199.892 25.3936 200.448 25.3145 201.063 25.3145C201.802 25.3145 202.458 25.4375 203.032 25.6836C203.606 25.9297 204.058 26.2988 204.386 26.791C204.72 27.2832 204.887 27.8984 204.887 28.6367V32.7061C204.887 33.2275 204.919 33.6553 204.983 33.9893C205.048 34.3174 205.142 34.6045 205.265 34.8506V35H202.707C202.584 34.7422 202.49 34.4199 202.426 34.0332C202.367 33.6406 202.338 33.248 202.338 32.8555ZM202.672 29.208L202.689 30.6406H201.274C200.94 30.6406 200.65 30.6787 200.404 30.7549C200.158 30.8311 199.956 30.9395 199.798 31.0801C199.64 31.2148 199.522 31.373 199.446 31.5547C199.376 31.7363 199.341 31.9355 199.341 32.1523C199.341 32.3691 199.391 32.5654 199.49 32.7412C199.59 32.9111 199.733 33.0459 199.921 33.1455C200.108 33.2393 200.328 33.2861 200.58 33.2861C200.961 33.2861 201.292 33.21 201.573 33.0576C201.854 32.9053 202.071 32.7178 202.224 32.4951C202.382 32.2725 202.464 32.0615 202.47 31.8623L203.138 32.9346C203.044 33.1748 202.915 33.4238 202.751 33.6816C202.593 33.9395 202.391 34.1826 202.145 34.4111C201.898 34.6338 201.603 34.8184 201.257 34.9648C200.911 35.1055 200.501 35.1758 200.026 35.1758C199.423 35.1758 198.875 35.0557 198.383 34.8154C197.896 34.5693 197.51 34.2324 197.223 33.8047C196.941 33.3711 196.801 32.8789 196.801 32.3281C196.801 31.8301 196.895 31.3877 197.082 31.001C197.27 30.6143 197.545 30.2891 197.908 30.0254C198.277 29.7559 198.737 29.5537 199.288 29.4189C199.839 29.2783 200.478 29.208 201.204 29.208H202.672ZM212.454 32.9258V21.5H215.003V35H212.709L212.454 32.9258ZM206.442 30.3594V30.1748C206.442 29.4482 206.524 28.7891 206.688 28.1973C206.853 27.5996 207.093 27.0869 207.409 26.6592C207.726 26.2314 208.115 25.9004 208.578 25.666C209.041 25.4316 209.568 25.3145 210.16 25.3145C210.717 25.3145 211.203 25.4316 211.619 25.666C212.041 25.9004 212.398 26.2344 212.691 26.668C212.99 27.0957 213.23 27.6025 213.412 28.1885C213.594 28.7686 213.726 29.4043 213.808 30.0957V30.5C213.726 31.1621 213.594 31.7773 213.412 32.3457C213.23 32.9141 212.99 33.4121 212.691 33.8398C212.398 34.2617 212.041 34.5898 211.619 34.8242C211.197 35.0586 210.705 35.1758 210.143 35.1758C209.551 35.1758 209.023 35.0557 208.561 34.8154C208.104 34.5752 207.717 34.2383 207.4 33.8047C207.09 33.3711 206.853 32.8613 206.688 32.2754C206.524 31.6895 206.442 31.0508 206.442 30.3594ZM208.974 30.1748V30.3594C208.974 30.752 209.003 31.1182 209.062 31.458C209.126 31.7979 209.229 32.0996 209.369 32.3633C209.516 32.6211 209.703 32.8232 209.932 32.9697C210.166 33.1104 210.45 33.1807 210.784 33.1807C211.218 33.1807 211.575 33.084 211.856 32.8906C212.138 32.6914 212.352 32.4189 212.498 32.0732C212.65 31.7275 212.738 31.3291 212.762 30.8779V29.7266C212.744 29.3574 212.691 29.0264 212.604 28.7334C212.521 28.4346 212.398 28.1797 212.234 27.9688C212.076 27.7578 211.877 27.5938 211.637 27.4766C211.402 27.3594 211.124 27.3008 210.802 27.3008C210.474 27.3008 210.192 27.377 209.958 27.5293C209.724 27.6758 209.533 27.8779 209.387 28.1357C209.246 28.3936 209.141 28.6982 209.07 29.0498C209.006 29.3955 208.974 29.7705 208.974 30.1748ZM216.576 30.3418V30.1572C216.576 29.46 216.676 28.8184 216.875 28.2324C217.074 27.6406 217.364 27.1279 217.745 26.6943C218.126 26.2607 218.595 25.9238 219.151 25.6836C219.708 25.4375 220.347 25.3145 221.067 25.3145C221.788 25.3145 222.43 25.4375 222.992 25.6836C223.555 25.9238 224.026 26.2607 224.407 26.6943C224.794 27.1279 225.087 27.6406 225.286 28.2324C225.485 28.8184 225.585 29.46 225.585 30.1572V30.3418C225.585 31.0332 225.485 31.6748 225.286 32.2666C225.087 32.8525 224.794 33.3652 224.407 33.8047C224.026 34.2383 223.558 34.5752 223.001 34.8154C222.444 35.0557 221.806 35.1758 221.085 35.1758C220.364 35.1758 219.723 35.0557 219.16 34.8154C218.604 34.5752 218.132 34.2383 217.745 33.8047C217.364 33.3652 217.074 32.8525 216.875 32.2666C216.676 31.6748 216.576 31.0332 216.576 30.3418ZM219.107 30.1572V30.3418C219.107 30.7402 219.143 31.1123 219.213 31.458C219.283 31.8037 219.395 32.1084 219.547 32.3721C219.705 32.6299 219.91 32.832 220.162 32.9785C220.414 33.125 220.722 33.1982 221.085 33.1982C221.437 33.1982 221.738 33.125 221.99 32.9785C222.242 32.832 222.444 32.6299 222.597 32.3721C222.749 32.1084 222.86 31.8037 222.931 31.458C223.007 31.1123 223.045 30.7402 223.045 30.3418V30.1572C223.045 29.7705 223.007 29.4072 222.931 29.0674C222.86 28.7217 222.746 28.417 222.588 28.1533C222.436 27.8838 222.233 27.6729 221.981 27.5205C221.729 27.3682 221.425 27.292 221.067 27.292C220.71 27.292 220.405 27.3682 220.153 27.5205C219.907 27.6729 219.705 27.8838 219.547 28.1533C219.395 28.417 219.283 28.7217 219.213 29.0674C219.143 29.4072 219.107 29.7705 219.107 30.1572Z" fill="white"/>
<path d="M33 27L52 18L43 37L41 29L33 27Z" stroke="white" stroke-width="2" stroke-linecap="round" stroke-linejoin="round"/>
<path d="M777.277 29.9803H776.661V23.2294H778.735C780.428 23.2294 781.007 24.2015 781.007 25.2547C781.007 26.3079 780.428 27.28 778.735 27.28H777.277V29.9803H777.277ZM777.277 26.7129H778.816C780.093 26.7129 780.337 25.9026 780.337 25.2547C780.337 24.6068 780.092 23.7965 778.816 23.7965H777.277V26.7129ZM783.264 25.9479C782.658 25.9479 782.259 26.0559 781.906 26.1729V25.6326C782.304 25.4618 782.83 25.3897 783.264 25.3897C784.622 25.3897 784.976 26.0018 784.976 26.9018V29.98H784.622L784.487 29.62C784.079 29.9171 783.572 30.07 783.12 30.07C781.933 30.07 781.535 29.3768 781.535 28.6206C781.535 27.8556 781.961 27.2885 783.147 27.2165L784.342 27.1444V26.8924C784.342 26.2359 784.107 25.9479 783.264 25.9479ZM783.101 27.7032C782.458 27.7662 782.178 28.0994 782.178 28.6212C782.178 29.0262 782.277 29.5124 783.137 29.5124C783.626 29.5124 783.952 29.3771 784.341 29.1524V27.5862L783.101 27.7032ZM786.967 28.7203C786.868 28.8191 786.795 28.9453 786.795 29.0532C786.795 29.2782 786.904 29.3774 787.139 29.4041L788.679 29.5841C789.53 29.6741 789.919 30.0074 789.919 30.7903C789.919 31.8885 788.814 32.3206 787.565 32.3206C786.297 32.3206 785.537 31.9515 785.537 30.9615C785.537 30.3494 785.963 29.9441 786.47 29.7732V29.7641C786.298 29.6471 786.18 29.4671 786.18 29.17C786.18 28.9182 786.334 28.7112 786.524 28.5579C785.981 28.2609 785.8 27.7118 785.8 27.0818C785.8 26.1547 786.198 25.3894 787.566 25.3894C787.846 25.3894 788.082 25.4253 788.29 25.4794H789.83V25.8215L789.069 26.0376C789.259 26.3256 789.331 26.6856 789.331 27.0818C789.331 28.0091 788.933 28.7741 787.566 28.7741C787.339 28.7744 787.139 28.7562 786.967 28.7203ZM787.23 29.9353C786.632 30.0706 786.125 30.3494 786.125 30.9256C786.125 31.5918 786.632 31.7809 787.565 31.7809C788.47 31.7809 789.321 31.5559 789.321 30.7906C789.321 30.3315 789.104 30.1515 788.552 30.0882L787.23 29.9353ZM788.742 27.0821C788.742 26.4879 788.624 25.9388 787.565 25.9388C786.505 25.9388 786.388 26.4879 786.388 27.0821C786.388 27.6762 786.506 28.225 787.565 28.225C788.624 28.225 788.742 27.6762 788.742 27.0821ZM792.144 25.3897C793.683 25.3897 793.864 26.4338 793.864 27.73V28.0179H790.876C790.912 28.8009 791.121 29.5124 792.144 29.5124C792.796 29.5124 793.194 29.4494 793.638 29.2603V29.8003C793.131 30.0253 792.588 30.0703 792.144 30.0703C790.614 30.0703 790.242 29.0262 790.242 27.73C790.242 26.4338 790.613 25.3897 792.144 25.3897ZM790.876 27.505H793.23C793.23 26.7038 793.185 25.9476 792.143 25.9476C791.093 25.9479 790.903 26.695 790.876 27.505ZM796.281 27.3971C797.567 27.5141 797.875 27.9462 797.875 28.6841C797.875 29.3771 797.431 30.0703 796.055 30.0703C795.621 30.0703 794.996 29.9621 794.706 29.8453V29.3053C794.987 29.4041 795.422 29.5124 796.064 29.5124C797.006 29.5124 797.26 29.1162 797.26 28.6932C797.26 28.2791 797.133 27.9912 796.237 27.9191C794.924 27.8021 794.652 27.3429 794.652 26.7221C794.652 26.0829 795.069 25.39 796.345 25.39C796.771 25.39 797.251 25.4438 797.649 25.615V26.1553C797.296 26.0382 796.943 25.9482 796.336 25.9482C795.44 25.9482 795.249 26.2815 795.249 26.7224C795.249 27.1179 795.412 27.325 796.281 27.3971ZM753.084 26.0374H750.866C750.809 26.0374 750.762 26.0835 750.762 26.1403V27.2185C750.762 27.2753 750.809 27.3215 750.866 27.3215H751.731V28.6612C751.731 28.6612 751.537 28.7268 751 28.7268C750.366 28.7268 749.481 28.4965 749.481 26.5615C749.481 24.6256 750.403 24.3712 751.268 24.3712C752.017 24.3712 752.34 24.5024 752.546 24.5653C752.61 24.585 752.67 24.5212 752.67 24.4641L752.917 23.4226C752.917 23.3962 752.908 23.3641 752.878 23.3421C752.794 23.2832 752.285 23 751 23C749.519 23 748 23.6262 748 26.6371C748 29.6491 749.739 30.0976 751.205 30.0976C752.418 30.0976 753.154 29.5824 753.154 29.5824C753.184 29.5656 753.188 29.5235 753.188 29.5044V26.1406C753.188 26.0835 753.141 26.0374 753.084 26.0374ZM764.606 23.3606C764.606 23.3032 764.56 23.2571 764.503 23.2571H763.254C763.197 23.2571 763.151 23.3032 763.151 23.3606C763.151 23.3609 763.151 25.76 763.151 25.76H761.204V23.3606C761.204 23.3032 761.158 23.2571 761.101 23.2571H759.852C759.796 23.2571 759.749 23.3032 759.749 23.3606V29.8591C759.749 29.9162 759.796 29.9629 759.852 29.9629H761.101C761.158 29.9629 761.204 29.9165 761.204 29.8591V27.0788H763.151C763.151 27.0788 763.148 29.8588 763.148 29.8591C763.148 29.9162 763.194 29.9629 763.251 29.9629H764.503C764.56 29.9629 764.606 29.9165 764.606 29.8591V23.3606ZM755.486 24.2132C755.486 23.7662 755.126 23.405 754.681 23.405C754.236 23.405 753.875 23.7662 753.875 24.2132C753.875 24.66 754.236 25.0224 754.681 25.0224C755.126 25.0224 755.486 24.66 755.486 24.2132ZM755.397 28.4874C755.397 28.3209 755.397 25.4882 755.397 25.4882C755.397 25.4312 755.351 25.3847 755.294 25.3847H754.049C753.992 25.3847 753.941 25.4432 753.941 25.5003C753.941 25.5003 753.941 29.1091 753.941 29.7982C753.941 29.9244 754.02 29.9618 754.122 29.9618C754.122 29.9618 754.654 29.9618 755.244 29.9618C755.367 29.9618 755.398 29.9021 755.398 29.7959C755.397 29.5656 755.397 28.6624 755.397 28.4874ZM769.453 25.3944H768.214C768.157 25.3944 768.11 25.4409 768.11 25.4982V28.6838C768.11 28.6838 767.796 28.9129 767.349 28.9129C766.901 28.9129 766.783 28.7115 766.783 28.2762C766.783 27.8409 766.783 25.4985 766.783 25.4985C766.783 25.4412 766.737 25.3947 766.68 25.3947H765.422C765.365 25.3947 765.319 25.4412 765.319 25.4985C765.319 25.4985 765.319 27.195 765.319 28.4868C765.319 29.78 766.043 30.0962 767.04 30.0962C767.857 30.0962 768.516 29.6474 768.516 29.6474C768.516 29.6474 768.548 29.8838 768.562 29.9121C768.576 29.9403 768.613 29.9679 768.653 29.9679L769.454 29.9644C769.51 29.9644 769.557 29.9182 769.557 29.8612L769.556 25.4985C769.556 25.4412 769.51 25.3944 769.453 25.3944ZM772.908 25.2485C772.204 25.2485 771.726 25.5606 771.726 25.5606V23.3606C771.726 23.3032 771.68 23.2571 771.623 23.2571H770.37C770.313 23.2571 770.267 23.3032 770.267 23.3606V29.8591C770.267 29.9162 770.313 29.9629 770.37 29.9629H771.239C771.278 29.9629 771.308 29.9426 771.33 29.9076C771.351 29.8729 771.383 29.6082 771.383 29.6082C771.383 29.6082 771.895 30.0906 772.864 30.0906C774.003 30.0906 774.655 29.5165 774.655 27.5129C774.655 25.5103 773.613 25.2485 772.908 25.2485ZM772.42 28.9091C771.99 28.8959 771.698 28.7021 771.698 28.7021V26.6447C771.698 26.6447 771.986 26.4694 772.339 26.4382C772.785 26.3985 773.215 26.5326 773.215 27.5909C773.215 28.7071 773.021 28.9271 772.42 28.9091ZM758.964 25.3841H758.027C758.027 25.3841 758.026 24.1538 758.026 24.1535C758.026 24.1071 758.002 24.0835 757.947 24.0835H756.671C756.621 24.0835 756.594 24.1053 756.594 24.1526V25.4238C756.594 25.4238 755.955 25.5774 755.911 25.5897C755.868 25.6024 755.836 25.6418 755.836 25.6888V26.4876C755.836 26.545 755.883 26.5915 755.94 26.5915H756.594C756.594 26.5915 756.594 27.4271 756.594 28.5135C756.594 29.9424 757.601 30.0826 758.281 30.0826C758.592 30.0826 758.963 29.9832 759.025 29.9609C759.062 29.9476 759.083 29.9094 759.083 29.8676L759.084 28.9879C759.084 28.9306 759.036 28.8841 758.981 28.8841C758.926 28.8841 758.786 28.9065 758.643 28.9065C758.183 28.9065 758.027 28.6938 758.027 28.4182C758.027 28.1432 758.027 26.5915 758.027 26.5915H758.964C759.021 26.5915 759.067 26.545 759.067 26.4876V25.4876C759.067 25.4303 759.021 25.3841 758.964 25.3841Z" fill="white"/>
</svg>
