<svg width="163" height="32" viewBox="0 0 163 32" fill="none" xmlns="http://www.w3.org/2000/svg">
<rect width="162.8" height="32" rx="6" fill="#21262D"/>
<rect x="0.5" y="0.5" width="161.8" height="31" rx="5.5" stroke="#F0F6FC" stroke-opacity="0.1"/>
<path d="M15.9545 21.7053H18.1818V16.1918L15 13.7594V20.7323C15 21.2699 15.4272 21.7053 15.9545 21.7053Z" fill="#C9D1D9"/>
<path d="M25.8182 21.7053H28.0455C28.5729 21.7053 29.0001 21.2699 29.0001 20.7323V13.7594L25.8182 16.1918V21.7053Z" fill="#C9D1D9"/>
<path d="M25.8182 11.9756V16.1918L29.0001 13.7594V12.4621C29.0001 11.2596 27.6534 10.5729 26.7091 11.2945L25.8182 11.9756Z" fill="#C9D1D9"/>
<path fill-rule="evenodd" clip-rule="evenodd" d="M18.1818 16.1918V11.9756L21.9999 14.8945L25.8181 11.9756V16.1918L21.9999 19.1107L18.1818 16.1918Z" fill="#C9D1D9"/>
<path d="M15 12.4621V13.7594L18.1818 16.1918V11.9756L17.2909 11.2945C16.3467 10.5729 15 11.2596 15 12.4621Z" fill="#C9D1D9"/>
<path d="M39.1484 15.4561V20H37.6016V14.1885H39.0571L39.1484 15.4561ZM40.8994 14.1509L40.8726 15.585C40.7974 15.5742 40.7061 15.5653 40.5986 15.5581C40.4948 15.5474 40.3999 15.542 40.314 15.542C40.0955 15.542 39.9058 15.5706 39.7446 15.6279C39.5871 15.6816 39.4546 15.7622 39.3472 15.8696C39.2433 15.9771 39.1646 16.1077 39.1108 16.2617C39.0607 16.4157 39.0321 16.5911 39.0249 16.7881L38.7134 16.6914C38.7134 16.3154 38.751 15.9699 38.8262 15.6548C38.9014 15.3361 39.0106 15.0586 39.1538 14.8223C39.3006 14.5859 39.4797 14.4033 39.6909 14.2744C39.9022 14.1455 40.1439 14.0811 40.416 14.0811C40.502 14.0811 40.5897 14.0882 40.6792 14.1025C40.7687 14.1133 40.8421 14.1294 40.8994 14.1509ZM43.7031 18.8721L44.9922 14.1885H46.6089L44.6484 20H43.6709L43.7031 18.8721ZM42.8169 14.1885L44.1113 18.8774L44.1382 20H43.1553L41.1948 14.1885H42.8169ZM49.6274 18.8989C49.8172 18.8989 49.9855 18.8631 50.1323 18.7915C50.2791 18.7163 50.3937 18.6125 50.4761 18.48C50.562 18.3439 50.6068 18.1846 50.6104 18.002H52.0659C52.0623 18.4102 51.9531 18.7736 51.7383 19.0923C51.5234 19.4074 51.2352 19.6562 50.8735 19.8389C50.5119 20.0179 50.1073 20.1074 49.6597 20.1074C49.2085 20.1074 48.8146 20.0322 48.478 19.8818C48.145 19.7314 47.8675 19.5238 47.6455 19.2588C47.4235 18.9902 47.257 18.6787 47.146 18.3242C47.035 17.9661 46.9795 17.583 46.9795 17.1748V17.019C46.9795 16.6073 47.035 16.2241 47.146 15.8696C47.257 15.5116 47.4235 15.2 47.6455 14.9351C47.8675 14.6665 48.145 14.457 48.478 14.3066C48.811 14.1562 49.2013 14.0811 49.6489 14.0811C50.1252 14.0811 50.5423 14.1724 50.9004 14.355C51.262 14.5376 51.5449 14.799 51.749 15.1392C51.9567 15.4757 52.0623 15.875 52.0659 16.3369H50.6104C50.6068 16.1436 50.5656 15.9681 50.4868 15.8105C50.4116 15.653 50.3006 15.5277 50.1538 15.4346C50.0106 15.3379 49.8333 15.2896 49.6221 15.2896C49.3965 15.2896 49.2121 15.3379 49.0688 15.4346C48.9256 15.5277 48.8146 15.6566 48.7358 15.8213C48.6571 15.9824 48.6016 16.1668 48.5693 16.3745C48.5407 16.5786 48.5264 16.7935 48.5264 17.019V17.1748C48.5264 17.4004 48.5407 17.617 48.5693 17.8247C48.598 18.0324 48.6517 18.2168 48.7305 18.3779C48.8128 18.5391 48.9256 18.6662 49.0688 18.7593C49.2121 18.8524 49.3983 18.8989 49.6274 18.8989ZM53.0381 19.2534C53.0381 19.0243 53.1169 18.8327 53.2744 18.6787C53.4355 18.5247 53.6486 18.4478 53.9136 18.4478C54.1785 18.4478 54.3898 18.5247 54.5474 18.6787C54.7085 18.8327 54.7891 19.0243 54.7891 19.2534C54.7891 19.4826 54.7085 19.6742 54.5474 19.8281C54.3898 19.9821 54.1785 20.0591 53.9136 20.0591C53.6486 20.0591 53.4355 19.9821 53.2744 19.8281C53.1169 19.6742 53.0381 19.4826 53.0381 19.2534ZM58.1299 18.8721L59.4189 14.1885H61.0356L59.0752 20H58.0977L58.1299 18.8721ZM57.2437 14.1885L58.5381 18.8774L58.5649 20H57.582L55.6216 14.1885H57.2437ZM63.3613 14.1885V20H61.8091V14.1885H63.3613ZM61.7124 12.6738C61.7124 12.4482 61.7912 12.262 61.9487 12.1152C62.1063 11.9684 62.3175 11.895 62.5825 11.895C62.8439 11.895 63.0534 11.9684 63.2109 12.1152C63.3721 12.262 63.4526 12.4482 63.4526 12.6738C63.4526 12.8994 63.3721 13.0856 63.2109 13.2324C63.0534 13.3792 62.8439 13.4526 62.5825 13.4526C62.3175 13.4526 62.1063 13.3792 61.9487 13.2324C61.7912 13.0856 61.7124 12.8994 61.7124 12.6738ZM67.3145 20.1074C66.8633 20.1074 66.4587 20.0358 66.1006 19.8926C65.7425 19.7458 65.4382 19.5435 65.1875 19.2856C64.9404 19.0278 64.7507 18.7288 64.6182 18.3887C64.4857 18.0449 64.4194 17.6797 64.4194 17.293V17.0781C64.4194 16.6377 64.4821 16.2349 64.6074 15.8696C64.7327 15.5044 64.9118 15.1875 65.1445 14.9189C65.3809 14.6504 65.6673 14.4445 66.0039 14.3013C66.3405 14.1545 66.7201 14.0811 67.1426 14.0811C67.5544 14.0811 67.9196 14.1491 68.2383 14.2852C68.557 14.4212 68.8237 14.6146 69.0386 14.8652C69.257 15.1159 69.4217 15.4167 69.5327 15.7676C69.6437 16.1149 69.6992 16.5016 69.6992 16.9277V17.5723H65.0801V16.541H68.1792V16.4229C68.1792 16.208 68.1398 16.0164 68.061 15.8481C67.9858 15.6763 67.8713 15.5402 67.7173 15.4399C67.5633 15.3397 67.3664 15.2896 67.1265 15.2896C66.9224 15.2896 66.7469 15.3343 66.6001 15.4238C66.4533 15.5133 66.3333 15.6387 66.2402 15.7998C66.1507 15.9609 66.0827 16.1507 66.0361 16.3691C65.9932 16.584 65.9717 16.8203 65.9717 17.0781V17.293C65.9717 17.5257 66.0039 17.7406 66.0684 17.9375C66.1364 18.1344 66.2313 18.3045 66.353 18.4478C66.4784 18.591 66.6287 18.702 66.8042 18.7808C66.9832 18.8595 67.1855 18.8989 67.4111 18.8989C67.6904 18.8989 67.95 18.8452 68.1899 18.7378C68.4334 18.6268 68.6429 18.4603 68.8184 18.2383L69.5703 19.0547C69.4486 19.2301 69.2821 19.3984 69.0708 19.5596C68.8631 19.7207 68.6125 19.8532 68.3188 19.957C68.0252 20.0573 67.6904 20.1074 67.3145 20.1074ZM72.2129 14.1885V20H70.6606V14.1885H72.2129ZM70.564 12.6738C70.564 12.4482 70.6427 12.262 70.8003 12.1152C70.9578 11.9684 71.1691 11.895 71.4341 11.895C71.6955 11.895 71.9049 11.9684 72.0625 12.1152C72.2236 12.262 72.3042 12.4482 72.3042 12.6738C72.3042 12.8994 72.2236 13.0856 72.0625 13.2324C71.9049 13.3792 71.6955 13.4526 71.4341 13.4526C71.1691 13.4526 70.9578 13.3792 70.8003 13.2324C70.6427 13.0856 70.564 12.8994 70.564 12.6738ZM75.0381 15.4561V20H73.4912V14.1885H74.9468L75.0381 15.4561ZM76.7891 14.1509L76.7622 15.585C76.687 15.5742 76.5957 15.5653 76.4883 15.5581C76.3844 15.5474 76.2896 15.542 76.2036 15.542C75.9852 15.542 75.7954 15.5706 75.6343 15.6279C75.4767 15.6816 75.3442 15.7622 75.2368 15.8696C75.133 15.9771 75.0542 16.1077 75.0005 16.2617C74.9504 16.4157 74.9217 16.5911 74.9146 16.7881L74.603 16.6914C74.603 16.3154 74.6406 15.9699 74.7158 15.6548C74.791 15.3361 74.9002 15.0586 75.0435 14.8223C75.1903 14.5859 75.3693 14.4033 75.5806 14.2744C75.7918 14.1455 76.0335 14.0811 76.3057 14.0811C76.3916 14.0811 76.4793 14.0882 76.5688 14.1025C76.6584 14.1133 76.7318 14.1294 76.7891 14.1509ZM80.4736 18.6895V16.1006C80.4736 15.9144 80.4432 15.755 80.3823 15.6226C80.3215 15.4865 80.2266 15.3809 80.0977 15.3057C79.9723 15.2305 79.8094 15.1929 79.6089 15.1929C79.437 15.1929 79.2884 15.2233 79.1631 15.2842C79.0378 15.3415 78.9411 15.4256 78.873 15.5366C78.805 15.644 78.771 15.7712 78.771 15.918H77.2241C77.2241 15.6709 77.2814 15.4364 77.396 15.2144C77.5106 14.9924 77.6771 14.7972 77.8955 14.6289C78.1139 14.457 78.3735 14.3228 78.6743 14.2261C78.9787 14.1294 79.3188 14.0811 79.6948 14.0811C80.146 14.0811 80.547 14.1562 80.8979 14.3066C81.2489 14.457 81.5246 14.6826 81.7251 14.9834C81.9292 15.2842 82.0312 15.6602 82.0312 16.1113V18.5981C82.0312 18.9168 82.0509 19.1782 82.0903 19.3823C82.1297 19.5828 82.187 19.7583 82.2622 19.9087V20H80.6992C80.624 19.8424 80.5667 19.6455 80.5273 19.4092C80.4915 19.1693 80.4736 18.9294 80.4736 18.6895ZM80.6777 16.4604L80.6885 17.3359H79.8237C79.6196 17.3359 79.4424 17.3592 79.292 17.4058C79.1416 17.4523 79.0181 17.5186 78.9214 17.6045C78.8247 17.6868 78.7531 17.7835 78.7065 17.8945C78.6636 18.0055 78.6421 18.1273 78.6421 18.2598C78.6421 18.3923 78.6725 18.5122 78.7334 18.6196C78.7943 18.7235 78.882 18.8058 78.9966 18.8667C79.1112 18.924 79.2454 18.9526 79.3994 18.9526C79.6322 18.9526 79.8345 18.9061 80.0063 18.813C80.1782 18.7199 80.3107 18.6053 80.4038 18.4692C80.5005 18.3332 80.5506 18.2043 80.5542 18.0825L80.9624 18.7378C80.9051 18.8846 80.8263 19.0368 80.7261 19.1943C80.6294 19.3519 80.5059 19.5005 80.3555 19.6401C80.2051 19.7762 80.0243 19.889 79.813 19.9785C79.6017 20.0645 79.3511 20.1074 79.061 20.1074C78.6922 20.1074 78.3574 20.034 78.0566 19.8872C77.7594 19.7368 77.5231 19.5309 77.3477 19.2695C77.1758 19.0046 77.0898 18.7038 77.0898 18.3672C77.0898 18.0628 77.1471 17.7925 77.2617 17.5562C77.3763 17.3198 77.5446 17.1211 77.7666 16.96C77.9922 16.7952 78.2733 16.6717 78.6099 16.5894C78.9465 16.5034 79.3368 16.4604 79.7808 16.4604H80.6777ZM92.0161 17.1265C92.0018 17.4917 91.9481 17.8516 91.855 18.2061C91.7619 18.5605 91.6204 18.881 91.4307 19.1675C91.2445 19.4539 91.0063 19.6831 90.7163 19.855C90.4263 20.0269 90.0754 20.1128 89.6636 20.1128C89.4308 20.1128 89.2214 20.0716 89.0352 19.9893C88.849 19.9069 88.6914 19.7905 88.5625 19.6401C88.4336 19.4862 88.3387 19.3018 88.2778 19.0869C88.217 18.8721 88.1955 18.6304 88.2134 18.3618L88.4873 15.2681H89.5615L89.293 18.3618C89.2715 18.548 89.2733 18.7002 89.2983 18.8184C89.327 18.9365 89.37 19.0278 89.4272 19.0923C89.4881 19.1567 89.5562 19.2033 89.6313 19.2319C89.7101 19.257 89.7871 19.2695 89.8623 19.2695C90.0342 19.2695 90.1917 19.2158 90.335 19.1084C90.4782 19.001 90.6017 18.8524 90.7056 18.6626C90.8094 18.4728 90.8918 18.2508 90.9526 17.9966C91.0135 17.7388 91.0475 17.4613 91.0547 17.1641C91.0798 16.6878 91.0565 16.2474 90.9849 15.8428C90.9168 15.4382 90.7987 15.0765 90.6304 14.7578C90.4657 14.4355 90.2508 14.1634 89.9858 13.9414C89.7209 13.7158 89.4058 13.5439 89.0405 13.4258C88.6753 13.304 88.2581 13.2432 87.7891 13.2432C87.3486 13.2432 86.9422 13.3112 86.5698 13.4473C86.201 13.5833 85.8698 13.7785 85.5762 14.0327C85.2861 14.2869 85.0355 14.5913 84.8242 14.9458C84.6165 15.2967 84.4518 15.6888 84.3301 16.1221C84.2119 16.5518 84.1421 17.0137 84.1206 17.5078C84.0955 18.027 84.1224 18.4997 84.2012 18.9258C84.2835 19.3519 84.4142 19.7261 84.5933 20.0483C84.7759 20.3742 85.0033 20.6463 85.2754 20.8647C85.5475 21.0832 85.8644 21.2479 86.2261 21.3589C86.5877 21.4699 86.9906 21.5254 87.4346 21.5254C87.7461 21.5254 88.063 21.4896 88.3853 21.418C88.7111 21.3499 88.985 21.2622 89.207 21.1548L89.4111 21.9551C89.1605 22.1162 88.8472 22.2362 88.4712 22.3149C88.0988 22.3937 87.7461 22.4331 87.4131 22.4331C86.8438 22.4331 86.3245 22.3633 85.8555 22.2236C85.39 22.0876 84.9782 21.8835 84.6201 21.6113C84.262 21.3428 83.9631 21.0098 83.7231 20.6123C83.4868 20.2148 83.3114 19.7565 83.1968 19.2373C83.0858 18.7181 83.0428 18.1416 83.0679 17.5078C83.0929 16.9206 83.1842 16.3674 83.3418 15.8481C83.4993 15.3289 83.7142 14.8581 83.9863 14.4355C84.2585 14.013 84.5843 13.6496 84.9639 13.3452C85.347 13.0373 85.7767 12.8009 86.2529 12.6362C86.7292 12.4715 87.2484 12.3892 87.8105 12.3892C88.3691 12.3892 88.8758 12.4626 89.3306 12.6094C89.7889 12.7562 90.1899 12.9674 90.5337 13.2432C90.8774 13.5153 91.1639 13.8465 91.3931 14.2368C91.6222 14.6235 91.7887 15.0604 91.8926 15.5474C91.9964 16.0343 92.0376 16.5607 92.0161 17.1265ZM86.5913 17.6904C86.5734 17.9268 86.5752 18.1362 86.5967 18.3188C86.6182 18.5015 86.6593 18.6554 86.7202 18.7808C86.7811 18.9061 86.8599 19.001 86.9565 19.0654C87.0568 19.1263 87.175 19.1567 87.311 19.1567C87.3862 19.1567 87.4686 19.1388 87.5581 19.103C87.6476 19.0636 87.7389 18.9992 87.832 18.9097C87.9251 18.8201 88.0129 18.6966 88.0952 18.5391C88.1812 18.3779 88.2528 18.1756 88.3101 17.9321L88.7666 18.4746C88.6842 18.7432 88.5822 18.9795 88.4604 19.1836C88.3387 19.3841 88.1991 19.5524 88.0415 19.6885C87.8875 19.8245 87.7192 19.9266 87.5366 19.9946C87.354 20.0627 87.1571 20.0967 86.9458 20.0967C86.6844 20.0967 86.4517 20.0412 86.2476 19.9302C86.0435 19.8156 85.8734 19.6527 85.7373 19.4414C85.6012 19.2301 85.5028 18.9777 85.4419 18.6841C85.3846 18.3869 85.3739 18.0557 85.4097 17.6904C85.4491 17.3252 85.5207 16.9868 85.6245 16.6753C85.7284 16.3638 85.8573 16.0863 86.0112 15.8428C86.1652 15.5957 86.3407 15.3862 86.5376 15.2144C86.7381 15.0389 86.9548 14.9064 87.1875 14.8169C87.4202 14.7274 87.6637 14.6826 87.918 14.6826C88.3298 14.6826 88.6538 14.7417 88.8901 14.8599C89.1265 14.978 89.3503 15.1141 89.5615 15.2681L89.0137 16.0039C88.9098 15.9108 88.7738 15.8213 88.6055 15.7354C88.4408 15.6458 88.2438 15.6011 88.0146 15.6011C87.8034 15.6011 87.6172 15.6458 87.4561 15.7354C87.2985 15.8249 87.1606 15.9591 87.0425 16.1382C86.9279 16.3136 86.833 16.5321 86.7578 16.7935C86.6826 17.0513 86.6271 17.3503 86.5913 17.6904ZM92.8379 17.1533V17.0405C92.8379 16.6144 92.8988 16.2223 93.0205 15.8643C93.1423 15.5026 93.3195 15.1893 93.5522 14.9243C93.785 14.6593 94.0715 14.4535 94.4116 14.3066C94.7518 14.1562 95.1421 14.0811 95.5825 14.0811C96.0229 14.0811 96.415 14.1562 96.7588 14.3066C97.1025 14.4535 97.3908 14.6593 97.6235 14.9243C97.8599 15.1893 98.0389 15.5026 98.1606 15.8643C98.2824 16.2223 98.3433 16.6144 98.3433 17.0405V17.1533C98.3433 17.5758 98.2824 17.9679 98.1606 18.3296C98.0389 18.6877 97.8599 19.001 97.6235 19.2695C97.3908 19.5345 97.1043 19.7404 96.7642 19.8872C96.424 20.034 96.0337 20.1074 95.5933 20.1074C95.1528 20.1074 94.7607 20.034 94.417 19.8872C94.0768 19.7404 93.7886 19.5345 93.5522 19.2695C93.3195 19.001 93.1423 18.6877 93.0205 18.3296C92.8988 17.9679 92.8379 17.5758 92.8379 17.1533ZM94.3848 17.0405V17.1533C94.3848 17.3968 94.4062 17.6242 94.4492 17.8354C94.4922 18.0467 94.5602 18.2329 94.6533 18.394C94.75 18.5516 94.8753 18.6751 95.0293 18.7646C95.1833 18.8542 95.3713 18.8989 95.5933 18.8989C95.8081 18.8989 95.9925 18.8542 96.1465 18.7646C96.3005 18.6751 96.424 18.5516 96.5171 18.394C96.6102 18.2329 96.6782 18.0467 96.7212 17.8354C96.7677 17.6242 96.791 17.3968 96.791 17.1533V17.0405C96.791 16.8042 96.7677 16.5822 96.7212 16.3745C96.6782 16.1632 96.6084 15.9771 96.5117 15.8159C96.4186 15.6512 96.2951 15.5223 96.1411 15.4292C95.9871 15.3361 95.8009 15.2896 95.5825 15.2896C95.3641 15.2896 95.1779 15.3361 95.0239 15.4292C94.8735 15.5223 94.75 15.6512 94.6533 15.8159C94.5602 15.9771 94.4922 16.1632 94.4492 16.3745C94.4062 16.5822 94.3848 16.8042 94.3848 17.0405ZM102.731 18.6089V14.1885H104.278V20H102.823L102.731 18.6089ZM102.903 17.4165L103.36 17.4058C103.36 17.7925 103.315 18.1523 103.226 18.4854C103.136 18.8148 103.002 19.1012 102.823 19.3447C102.644 19.5846 102.418 19.7726 102.146 19.9087C101.874 20.0412 101.553 20.1074 101.185 20.1074C100.902 20.1074 100.64 20.068 100.4 19.9893C100.164 19.9069 99.96 19.7798 99.7881 19.6079C99.6198 19.4325 99.4873 19.2087 99.3906 18.9365C99.2975 18.6608 99.251 18.3296 99.251 17.9429V14.1885H100.798V17.9536C100.798 18.1255 100.818 18.2705 100.857 18.3887C100.9 18.5068 100.959 18.6035 101.034 18.6787C101.109 18.7539 101.197 18.8076 101.297 18.8398C101.401 18.8721 101.516 18.8882 101.641 18.8882C101.96 18.8882 102.21 18.8237 102.393 18.6948C102.579 18.5659 102.71 18.3905 102.785 18.1685C102.864 17.9429 102.903 17.6922 102.903 17.4165ZM108.307 14.1885V15.2842H104.923V14.1885H108.307ZM105.761 12.7544H107.308V18.249C107.308 18.4173 107.329 18.5462 107.372 18.6357C107.419 18.7253 107.487 18.7879 107.576 18.8237C107.666 18.856 107.778 18.8721 107.915 18.8721C108.011 18.8721 108.097 18.8685 108.172 18.8613C108.251 18.8506 108.317 18.8398 108.371 18.8291L108.376 19.9678C108.244 20.0107 108.101 20.0448 107.947 20.0698C107.793 20.0949 107.623 20.1074 107.437 20.1074C107.096 20.1074 106.799 20.0519 106.545 19.9409C106.294 19.8263 106.101 19.6437 105.965 19.3931C105.829 19.1424 105.761 18.813 105.761 18.4048V12.7544ZM110.82 11.75V20H109.268V11.75H110.82ZM111.852 17.1533V17.0405C111.852 16.6144 111.912 16.2223 112.034 15.8643C112.156 15.5026 112.333 15.1893 112.566 14.9243C112.799 14.6593 113.085 14.4535 113.425 14.3066C113.765 14.1562 114.156 14.0811 114.596 14.0811C115.037 14.0811 115.429 14.1562 115.772 14.3066C116.116 14.4535 116.404 14.6593 116.637 14.9243C116.874 15.1893 117.053 15.5026 117.174 15.8643C117.296 16.2223 117.357 16.6144 117.357 17.0405V17.1533C117.357 17.5758 117.296 17.9679 117.174 18.3296C117.053 18.6877 116.874 19.001 116.637 19.2695C116.404 19.5345 116.118 19.7404 115.778 19.8872C115.438 20.034 115.047 20.1074 114.607 20.1074C114.167 20.1074 113.774 20.034 113.431 19.8872C113.09 19.7404 112.802 19.5345 112.566 19.2695C112.333 19.001 112.156 18.6877 112.034 18.3296C111.912 17.9679 111.852 17.5758 111.852 17.1533ZM113.398 17.0405V17.1533C113.398 17.3968 113.42 17.6242 113.463 17.8354C113.506 18.0467 113.574 18.2329 113.667 18.394C113.764 18.5516 113.889 18.6751 114.043 18.7646C114.197 18.8542 114.385 18.8989 114.607 18.8989C114.822 18.8989 115.006 18.8542 115.16 18.7646C115.314 18.6751 115.438 18.5516 115.531 18.394C115.624 18.2329 115.692 18.0467 115.735 17.8354C115.781 17.6242 115.805 17.3968 115.805 17.1533V17.0405C115.805 16.8042 115.781 16.5822 115.735 16.3745C115.692 16.1632 115.622 15.9771 115.525 15.8159C115.432 15.6512 115.309 15.5223 115.155 15.4292C115.001 15.3361 114.815 15.2896 114.596 15.2896C114.378 15.2896 114.192 15.3361 114.038 15.4292C113.887 15.5223 113.764 15.6512 113.667 15.8159C113.574 15.9771 113.506 16.1632 113.463 16.3745C113.42 16.5822 113.398 16.8042 113.398 17.0405ZM118.061 17.1533V17.0405C118.061 16.6144 118.121 16.2223 118.243 15.8643C118.365 15.5026 118.542 15.1893 118.775 14.9243C119.008 14.6593 119.294 14.4535 119.634 14.3066C119.974 14.1562 120.365 14.0811 120.805 14.0811C121.246 14.0811 121.638 14.1562 121.981 14.3066C122.325 14.4535 122.613 14.6593 122.846 14.9243C123.083 15.1893 123.262 15.5026 123.383 15.8643C123.505 16.2223 123.566 16.6144 123.566 17.0405V17.1533C123.566 17.5758 123.505 17.9679 123.383 18.3296C123.262 18.6877 123.083 19.001 122.846 19.2695C122.613 19.5345 122.327 19.7404 121.987 19.8872C121.647 20.034 121.256 20.1074 120.816 20.1074C120.375 20.1074 119.983 20.034 119.64 19.8872C119.299 19.7404 119.011 19.5345 118.775 19.2695C118.542 19.001 118.365 18.6877 118.243 18.3296C118.121 17.9679 118.061 17.5758 118.061 17.1533ZM119.607 17.0405V17.1533C119.607 17.3968 119.629 17.6242 119.672 17.8354C119.715 18.0467 119.783 18.2329 119.876 18.394C119.973 18.5516 120.098 18.6751 120.252 18.7646C120.406 18.8542 120.594 18.8989 120.816 18.8989C121.031 18.8989 121.215 18.8542 121.369 18.7646C121.523 18.6751 121.647 18.5516 121.74 18.394C121.833 18.2329 121.901 18.0467 121.944 17.8354C121.99 17.6242 122.014 17.3968 122.014 17.1533V17.0405C122.014 16.8042 121.99 16.5822 121.944 16.3745C121.901 16.1632 121.831 15.9771 121.734 15.8159C121.641 15.6512 121.518 15.5223 121.364 15.4292C121.21 15.3361 121.024 15.2896 120.805 15.2896C120.587 15.2896 120.401 15.3361 120.247 15.4292C120.096 15.5223 119.973 15.6512 119.876 15.8159C119.783 15.9771 119.715 16.1632 119.672 16.3745C119.629 16.5822 119.607 16.8042 119.607 17.0405ZM126.063 11.7446V20H124.517V11.7446H126.063ZM129.727 14.1885L127.202 17.0674L125.849 18.437L125.285 17.3198L126.359 15.9556L127.868 14.1885H129.727ZM128.121 20L126.402 17.3145L127.471 16.3799L129.904 20H128.121ZM130.468 19.2534C130.468 19.0243 130.547 18.8327 130.704 18.6787C130.865 18.5247 131.078 18.4478 131.343 18.4478C131.608 18.4478 131.819 18.5247 131.977 18.6787C132.138 18.8327 132.219 19.0243 132.219 19.2534C132.219 19.4826 132.138 19.6742 131.977 19.8281C131.819 19.9821 131.608 20.0591 131.343 20.0591C131.078 20.0591 130.865 19.9821 130.704 19.8281C130.547 19.6742 130.468 19.4826 130.468 19.2534ZM135.984 18.8989C136.174 18.8989 136.342 18.8631 136.489 18.7915C136.636 18.7163 136.75 18.6125 136.833 18.48C136.918 18.3439 136.963 18.1846 136.967 18.002H138.422C138.419 18.4102 138.31 18.7736 138.095 19.0923C137.88 19.4074 137.592 19.6562 137.23 19.8389C136.868 20.0179 136.464 20.1074 136.016 20.1074C135.565 20.1074 135.171 20.0322 134.834 19.8818C134.501 19.7314 134.224 19.5238 134.002 19.2588C133.78 18.9902 133.613 18.6787 133.502 18.3242C133.391 17.9661 133.336 17.583 133.336 17.1748V17.019C133.336 16.6073 133.391 16.2241 133.502 15.8696C133.613 15.5116 133.78 15.2 134.002 14.9351C134.224 14.6665 134.501 14.457 134.834 14.3066C135.167 14.1562 135.558 14.0811 136.005 14.0811C136.482 14.0811 136.899 14.1724 137.257 14.355C137.618 14.5376 137.901 14.799 138.105 15.1392C138.313 15.4757 138.419 15.875 138.422 16.3369H136.967C136.963 16.1436 136.922 15.9681 136.843 15.8105C136.768 15.653 136.657 15.5277 136.51 15.4346C136.367 15.3379 136.19 15.2896 135.979 15.2896C135.753 15.2896 135.569 15.3379 135.425 15.4346C135.282 15.5277 135.171 15.6566 135.092 15.8213C135.014 15.9824 134.958 16.1668 134.926 16.3745C134.897 16.5786 134.883 16.7935 134.883 17.019V17.1748C134.883 17.4004 134.897 17.617 134.926 17.8247C134.954 18.0324 135.008 18.2168 135.087 18.3779C135.169 18.5391 135.282 18.6662 135.425 18.7593C135.569 18.8524 135.755 18.8989 135.984 18.8989ZM139.072 17.1533V17.0405C139.072 16.6144 139.133 16.2223 139.255 15.8643C139.377 15.5026 139.554 15.1893 139.787 14.9243C140.019 14.6593 140.306 14.4535 140.646 14.3066C140.986 14.1562 141.376 14.0811 141.817 14.0811C142.257 14.0811 142.649 14.1562 142.993 14.3066C143.337 14.4535 143.625 14.6593 143.858 14.9243C144.094 15.1893 144.273 15.5026 144.395 15.8643C144.517 16.2223 144.578 16.6144 144.578 17.0405V17.1533C144.578 17.5758 144.517 17.9679 144.395 18.3296C144.273 18.6877 144.094 19.001 143.858 19.2695C143.625 19.5345 143.339 19.7404 142.999 19.8872C142.658 20.034 142.268 20.1074 141.828 20.1074C141.387 20.1074 140.995 20.034 140.651 19.8872C140.311 19.7404 140.023 19.5345 139.787 19.2695C139.554 19.001 139.377 18.6877 139.255 18.3296C139.133 17.9679 139.072 17.5758 139.072 17.1533ZM140.619 17.0405V17.1533C140.619 17.3968 140.641 17.6242 140.684 17.8354C140.727 18.0467 140.795 18.2329 140.888 18.394C140.984 18.5516 141.11 18.6751 141.264 18.7646C141.418 18.8542 141.606 18.8989 141.828 18.8989C142.042 18.8989 142.227 18.8542 142.381 18.7646C142.535 18.6751 142.658 18.5516 142.751 18.394C142.845 18.2329 142.913 18.0467 142.956 17.8354C143.002 17.6242 143.025 17.3968 143.025 17.1533V17.0405C143.025 16.8042 143.002 16.5822 142.956 16.3745C142.913 16.1632 142.843 15.9771 142.746 15.8159C142.653 15.6512 142.529 15.5223 142.375 15.4292C142.222 15.3361 142.035 15.2896 141.817 15.2896C141.598 15.2896 141.412 15.3361 141.258 15.4292C141.108 15.5223 140.984 15.6512 140.888 15.8159C140.795 15.9771 140.727 16.1632 140.684 16.3745C140.641 16.5822 140.619 16.8042 140.619 17.0405ZM147.075 15.3916V20H145.523V14.1885H146.979L147.075 15.3916ZM146.86 16.8901H146.431C146.431 16.4855 146.479 16.1131 146.576 15.7729C146.676 15.4292 146.821 15.132 147.011 14.8813C147.204 14.6271 147.442 14.4302 147.725 14.2905C148.008 14.1509 148.336 14.0811 148.708 14.0811C148.966 14.0811 149.202 14.1204 149.417 14.1992C149.632 14.2744 149.816 14.3944 149.97 14.5591C150.128 14.7202 150.25 14.9315 150.335 15.1929C150.421 15.4507 150.464 15.7604 150.464 16.1221V20H148.917V16.2939C148.917 16.029 148.882 15.8249 148.81 15.6816C148.738 15.5384 148.636 15.4382 148.504 15.3809C148.375 15.3236 148.219 15.2949 148.037 15.2949C147.836 15.2949 147.661 15.3361 147.51 15.4185C147.363 15.5008 147.242 15.6154 147.145 15.7622C147.048 15.9054 146.977 16.0737 146.93 16.2671C146.884 16.4604 146.86 16.6681 146.86 16.8901ZM150.319 16.7129L149.766 16.7827C149.766 16.4032 149.813 16.0505 149.906 15.7246C150.002 15.3988 150.144 15.1123 150.33 14.8652C150.52 14.6182 150.754 14.4266 151.034 14.2905C151.313 14.1509 151.635 14.0811 152 14.0811C152.28 14.0811 152.534 14.1222 152.763 14.2046C152.992 14.2834 153.188 14.4105 153.349 14.5859C153.513 14.7578 153.639 14.9834 153.725 15.2627C153.814 15.542 153.859 15.884 153.859 16.2886V20H152.307V16.2886C152.307 16.02 152.271 15.8159 152.199 15.6763C152.131 15.533 152.031 15.4346 151.898 15.3809C151.77 15.3236 151.616 15.2949 151.437 15.2949C151.25 15.2949 151.087 15.3325 150.948 15.4077C150.808 15.4793 150.692 15.5796 150.599 15.7085C150.506 15.8374 150.436 15.9878 150.389 16.1597C150.343 16.328 150.319 16.5124 150.319 16.7129Z" fill="#C9D1D9"/>
</svg>
