<svg width="163" height="32" viewBox="0 0 163 32" fill="none" xmlns="http://www.w3.org/2000/svg">
<rect width="162.8" height="32" rx="6" fill="#21262D"/>
<rect x="0.5" y="0.5" width="161.8" height="31" rx="5.5" stroke="#F0F6FC" stroke-opacity="0.1"/>
<path d="M25.0314 8.5H18.9686C16.5046 8.5 14.5 10.5046 14.5 12.9686V19.0314C14.5 21.4954 16.5046 23.5 18.9686 23.5H25.0314C27.4954 23.5 29.5 21.4954 29.5 19.0314V12.9686C29.5 10.5046 27.4954 8.5 25.0314 8.5ZM27.991 19.0314C27.991 20.6659 26.6659 21.991 25.0314 21.991H18.9686C17.3341 21.991 16.009 20.6659 16.009 19.0314V12.9686C16.009 11.334 17.3341 10.009 18.9686 10.009H25.0314C26.6659 10.009 27.991 11.334 27.991 12.9686V19.0314Z" fill="#C9D1D9"/>
<path d="M21.9999 12.1205C19.8607 12.1205 18.1204 13.8608 18.1204 16C18.1204 18.1391 19.8607 19.8795 21.9999 19.8795C24.1391 19.8795 25.8794 18.1391 25.8794 16C25.8794 13.8608 24.1391 12.1205 21.9999 12.1205ZM21.9999 18.3705C20.6907 18.3705 19.6294 17.3092 19.6294 16C19.6294 14.6908 20.6907 13.6295 21.9999 13.6295C23.3091 13.6295 24.3704 14.6908 24.3704 16C24.3704 17.3092 23.3091 18.3705 21.9999 18.3705Z" fill="#C9D1D9"/>
<path d="M25.8869 13.0793C26.4003 13.0793 26.8165 12.6631 26.8165 12.1496C26.8165 11.6362 26.4003 11.22 25.8869 11.22C25.3735 11.22 24.9573 11.6362 24.9573 12.1496C24.9573 12.6631 25.3735 13.0793 25.8869 13.0793Z" fill="#C9D1D9"/>
<path d="M46.394 17.1265C46.3797 17.4917 46.326 17.8516 46.2329 18.2061C46.1398 18.5605 45.9984 18.881 45.8086 19.1675C45.6224 19.4539 45.3843 19.6831 45.0942 19.855C44.8042 20.0269 44.4533 20.1128 44.0415 20.1128C43.8088 20.1128 43.5993 20.0716 43.4131 19.9893C43.2269 19.9069 43.0693 19.7905 42.9404 19.6401C42.8115 19.4862 42.7166 19.3018 42.6558 19.0869C42.5949 18.8721 42.5734 18.6304 42.5913 18.3618L42.8652 15.2681H43.9395L43.6709 18.3618C43.6494 18.548 43.6512 18.7002 43.6763 18.8184C43.7049 18.9365 43.7479 19.0278 43.8052 19.0923C43.866 19.1567 43.9341 19.2033 44.0093 19.2319C44.0881 19.257 44.165 19.2695 44.2402 19.2695C44.4121 19.2695 44.5697 19.2158 44.7129 19.1084C44.8561 19.001 44.9797 18.8524 45.0835 18.6626C45.1873 18.4728 45.2697 18.2508 45.3306 17.9966C45.3914 17.7388 45.4255 17.4613 45.4326 17.1641C45.4577 16.6878 45.4344 16.2474 45.3628 15.8428C45.2948 15.4382 45.1766 15.0765 45.0083 14.7578C44.8436 14.4355 44.6287 14.1634 44.3638 13.9414C44.0988 13.7158 43.7837 13.5439 43.4185 13.4258C43.0532 13.304 42.6361 13.2432 42.167 13.2432C41.7266 13.2432 41.3201 13.3112 40.9478 13.4473C40.5789 13.5833 40.2477 13.7785 39.9541 14.0327C39.6641 14.2869 39.4134 14.5913 39.2021 14.9458C38.9945 15.2967 38.8298 15.6888 38.708 16.1221C38.5898 16.5518 38.52 17.0137 38.4985 17.5078C38.4735 18.027 38.5003 18.4997 38.5791 18.9258C38.6615 19.3519 38.7922 19.7261 38.9712 20.0483C39.1538 20.3742 39.3812 20.6463 39.6533 20.8647C39.9255 21.0832 40.2424 21.2479 40.604 21.3589C40.9657 21.4699 41.3685 21.5254 41.8125 21.5254C42.124 21.5254 42.4409 21.4896 42.7632 21.418C43.089 21.3499 43.363 21.2622 43.585 21.1548L43.7891 21.9551C43.5384 22.1162 43.2251 22.2362 42.8491 22.3149C42.4767 22.3937 42.124 22.4331 41.791 22.4331C41.2217 22.4331 40.7025 22.3633 40.2334 22.2236C39.7679 22.0876 39.3561 21.8835 38.998 21.6113C38.64 21.3428 38.341 21.0098 38.1011 20.6123C37.8647 20.2148 37.6893 19.7565 37.5747 19.2373C37.4637 18.7181 37.4207 18.1416 37.4458 17.5078C37.4709 16.9206 37.5622 16.3674 37.7197 15.8481C37.8773 15.3289 38.0921 14.8581 38.3643 14.4355C38.6364 14.013 38.9622 13.6496 39.3418 13.3452C39.7249 13.0373 40.1546 12.8009 40.6309 12.6362C41.1071 12.4715 41.6263 12.3892 42.1885 12.3892C42.7471 12.3892 43.2537 12.4626 43.7085 12.6094C44.1668 12.7562 44.5679 12.9674 44.9116 13.2432C45.2554 13.5153 45.5418 13.8465 45.771 14.2368C46.0002 14.6235 46.1667 15.0604 46.2705 15.5474C46.3743 16.0343 46.4155 16.5607 46.394 17.1265ZM40.9692 17.6904C40.9513 17.9268 40.9531 18.1362 40.9746 18.3188C40.9961 18.5015 41.0373 18.6554 41.0981 18.7808C41.159 18.9061 41.2378 19.001 41.3345 19.0654C41.4347 19.1263 41.5529 19.1567 41.689 19.1567C41.7642 19.1567 41.8465 19.1388 41.936 19.103C42.0256 19.0636 42.1169 18.9992 42.21 18.9097C42.3031 18.8201 42.3908 18.6966 42.4731 18.5391C42.5591 18.3779 42.6307 18.1756 42.688 17.9321L43.1445 18.4746C43.0622 18.7432 42.9601 18.9795 42.8384 19.1836C42.7166 19.3841 42.577 19.5524 42.4194 19.6885C42.2655 19.8245 42.0972 19.9266 41.9146 19.9946C41.7319 20.0627 41.535 20.0967 41.3237 20.0967C41.0623 20.0967 40.8296 20.0412 40.6255 19.9302C40.4214 19.8156 40.2513 19.6527 40.1152 19.4414C39.9792 19.2301 39.8807 18.9777 39.8198 18.6841C39.7625 18.3869 39.7518 18.0557 39.7876 17.6904C39.827 17.3252 39.8986 16.9868 40.0024 16.6753C40.1063 16.3638 40.2352 16.0863 40.3892 15.8428C40.5431 15.5957 40.7186 15.3862 40.9155 15.2144C41.116 15.0389 41.3327 14.9064 41.5654 14.8169C41.7982 14.7274 42.0417 14.6826 42.2959 14.6826C42.7077 14.6826 43.0317 14.7417 43.2681 14.8599C43.5044 14.978 43.7282 15.1141 43.9395 15.2681L43.3916 16.0039C43.2878 15.9108 43.1517 15.8213 42.9834 15.7354C42.8187 15.6458 42.6217 15.6011 42.3926 15.6011C42.1813 15.6011 41.9951 15.6458 41.834 15.7354C41.6764 15.8249 41.5386 15.9591 41.4204 16.1382C41.3058 16.3136 41.2109 16.5321 41.1357 16.7935C41.0605 17.0513 41.005 17.3503 40.9692 17.6904ZM49.0098 15.4561V20H47.4629V14.1885H48.9185L49.0098 15.4561ZM50.7607 14.1509L50.7339 15.585C50.6587 15.5742 50.5674 15.5653 50.46 15.5581C50.3561 15.5474 50.2612 15.542 50.1753 15.542C49.9569 15.542 49.7671 15.5706 49.606 15.6279C49.4484 15.6816 49.3159 15.7622 49.2085 15.8696C49.1047 15.9771 49.0259 16.1077 48.9722 16.2617C48.922 16.4157 48.8934 16.5911 48.8862 16.7881L48.5747 16.6914C48.5747 16.3154 48.6123 15.9699 48.6875 15.6548C48.7627 15.3361 48.8719 15.0586 49.0151 14.8223C49.1619 14.5859 49.341 14.4033 49.5522 14.2744C49.7635 14.1455 50.0052 14.0811 50.2773 14.0811C50.3633 14.0811 50.451 14.0882 50.5405 14.1025C50.63 14.1133 50.7035 14.1294 50.7607 14.1509ZM54.4453 18.6895V16.1006C54.4453 15.9144 54.4149 15.755 54.354 15.6226C54.2931 15.4865 54.1982 15.3809 54.0693 15.3057C53.944 15.2305 53.7811 15.1929 53.5806 15.1929C53.4087 15.1929 53.2601 15.2233 53.1348 15.2842C53.0094 15.3415 52.9128 15.4256 52.8447 15.5366C52.7767 15.644 52.7427 15.7712 52.7427 15.918H51.1958C51.1958 15.6709 51.2531 15.4364 51.3677 15.2144C51.4823 14.9924 51.6488 14.7972 51.8672 14.6289C52.0856 14.457 52.3452 14.3228 52.646 14.2261C52.9504 14.1294 53.2905 14.0811 53.6665 14.0811C54.1177 14.0811 54.5187 14.1562 54.8696 14.3066C55.2205 14.457 55.4963 14.6826 55.6968 14.9834C55.9009 15.2842 56.0029 15.6602 56.0029 16.1113V18.5981C56.0029 18.9168 56.0226 19.1782 56.062 19.3823C56.1014 19.5828 56.1587 19.7583 56.2339 19.9087V20H54.6709C54.5957 19.8424 54.5384 19.6455 54.499 19.4092C54.4632 19.1693 54.4453 18.9294 54.4453 18.6895ZM54.6494 16.4604L54.6602 17.3359H53.7954C53.5913 17.3359 53.4141 17.3592 53.2637 17.4058C53.1133 17.4523 52.9897 17.5186 52.8931 17.6045C52.7964 17.6868 52.7248 17.7835 52.6782 17.8945C52.6353 18.0055 52.6138 18.1273 52.6138 18.2598C52.6138 18.3923 52.6442 18.5122 52.7051 18.6196C52.766 18.7235 52.8537 18.8058 52.9683 18.8667C53.0828 18.924 53.2171 18.9526 53.3711 18.9526C53.6038 18.9526 53.8062 18.9061 53.978 18.813C54.1499 18.7199 54.2824 18.6053 54.3755 18.4692C54.4722 18.3332 54.5223 18.2043 54.5259 18.0825L54.9341 18.7378C54.8768 18.8846 54.798 19.0368 54.6978 19.1943C54.6011 19.3519 54.4775 19.5005 54.3271 19.6401C54.1768 19.7762 53.9959 19.889 53.7847 19.9785C53.5734 20.0645 53.3228 20.1074 53.0327 20.1074C52.6639 20.1074 52.3291 20.034 52.0283 19.8872C51.7311 19.7368 51.4948 19.5309 51.3193 19.2695C51.1475 19.0046 51.0615 18.7038 51.0615 18.3672C51.0615 18.0628 51.1188 17.7925 51.2334 17.5562C51.348 17.3198 51.5163 17.1211 51.7383 16.96C51.9639 16.7952 52.245 16.6717 52.5815 16.5894C52.9181 16.5034 53.3084 16.4604 53.7524 16.4604H54.6494ZM59.1665 20H57.6089V13.6729C57.6089 13.2324 57.6948 12.8618 57.8667 12.561C58.0422 12.2567 58.2874 12.0275 58.6025 11.8735C58.9212 11.716 59.299 11.6372 59.7358 11.6372C59.8791 11.6372 60.0169 11.6479 60.1494 11.6694C60.2819 11.6873 60.4108 11.7106 60.5361 11.7393L60.52 12.9048C60.452 12.8869 60.3804 12.8743 60.3052 12.8672C60.23 12.86 60.1423 12.8564 60.042 12.8564C59.8558 12.8564 59.6965 12.8887 59.564 12.9531C59.4351 13.014 59.3366 13.1053 59.2686 13.2271C59.2005 13.3488 59.1665 13.4974 59.1665 13.6729V20ZM60.3267 14.1885V15.2842H56.7441V14.1885H60.3267ZM64.2744 18.6895V16.1006C64.2744 15.9144 64.244 15.755 64.1831 15.6226C64.1222 15.4865 64.0273 15.3809 63.8984 15.3057C63.7731 15.2305 63.6102 15.1929 63.4097 15.1929C63.2378 15.1929 63.0892 15.2233 62.9639 15.2842C62.8385 15.3415 62.7419 15.4256 62.6738 15.5366C62.6058 15.644 62.5718 15.7712 62.5718 15.918H61.0249C61.0249 15.6709 61.0822 15.4364 61.1968 15.2144C61.3114 14.9924 61.4779 14.7972 61.6963 14.6289C61.9147 14.457 62.1743 14.3228 62.4751 14.2261C62.7795 14.1294 63.1196 14.0811 63.4956 14.0811C63.9468 14.0811 64.3478 14.1562 64.6987 14.3066C65.0496 14.457 65.3254 14.6826 65.5259 14.9834C65.73 15.2842 65.832 15.6602 65.832 16.1113V18.5981C65.832 18.9168 65.8517 19.1782 65.8911 19.3823C65.9305 19.5828 65.9878 19.7583 66.063 19.9087V20H64.5C64.4248 19.8424 64.3675 19.6455 64.3281 19.4092C64.2923 19.1693 64.2744 18.9294 64.2744 18.6895ZM64.4785 16.4604L64.4893 17.3359H63.6245C63.4204 17.3359 63.2432 17.3592 63.0928 17.4058C62.9424 17.4523 62.8188 17.5186 62.7222 17.6045C62.6255 17.6868 62.5539 17.7835 62.5073 17.8945C62.4644 18.0055 62.4429 18.1273 62.4429 18.2598C62.4429 18.3923 62.4733 18.5122 62.5342 18.6196C62.5951 18.7235 62.6828 18.8058 62.7974 18.8667C62.9119 18.924 63.0462 18.9526 63.2002 18.9526C63.4329 18.9526 63.6353 18.9061 63.8071 18.813C63.979 18.7199 64.1115 18.6053 64.2046 18.4692C64.3013 18.3332 64.3514 18.2043 64.355 18.0825L64.7632 18.7378C64.7059 18.8846 64.6271 19.0368 64.5269 19.1943C64.4302 19.3519 64.3066 19.5005 64.1562 19.6401C64.0059 19.7762 63.825 19.889 63.6138 19.9785C63.4025 20.0645 63.1519 20.1074 62.8618 20.1074C62.493 20.1074 62.1582 20.034 61.8574 19.8872C61.5602 19.7368 61.3239 19.5309 61.1484 19.2695C60.9766 19.0046 60.8906 18.7038 60.8906 18.3672C60.8906 18.0628 60.9479 17.7925 61.0625 17.5562C61.1771 17.3198 61.3454 17.1211 61.5674 16.96C61.793 16.7952 62.0741 16.6717 62.4106 16.5894C62.7472 16.5034 63.1375 16.4604 63.5815 16.4604H64.4785ZM69.6992 20.1074C69.248 20.1074 68.8434 20.0358 68.4854 19.8926C68.1273 19.7458 67.8229 19.5435 67.5723 19.2856C67.3252 19.0278 67.1354 18.7288 67.0029 18.3887C66.8704 18.0449 66.8042 17.6797 66.8042 17.293V17.0781C66.8042 16.6377 66.8669 16.2349 66.9922 15.8696C67.1175 15.5044 67.2965 15.1875 67.5293 14.9189C67.7656 14.6504 68.0521 14.4445 68.3887 14.3013C68.7253 14.1545 69.1048 14.0811 69.5273 14.0811C69.9391 14.0811 70.3044 14.1491 70.623 14.2852C70.9417 14.4212 71.2085 14.6146 71.4233 14.8652C71.6418 15.1159 71.8065 15.4167 71.9175 15.7676C72.0285 16.1149 72.084 16.5016 72.084 16.9277V17.5723H67.4648V16.541H70.564V16.4229C70.564 16.208 70.5246 16.0164 70.4458 15.8481C70.3706 15.6763 70.256 15.5402 70.1021 15.4399C69.9481 15.3397 69.7511 15.2896 69.5112 15.2896C69.3071 15.2896 69.1317 15.3343 68.9849 15.4238C68.8381 15.5133 68.7181 15.6387 68.625 15.7998C68.5355 15.9609 68.4674 16.1507 68.4209 16.3691C68.3779 16.584 68.3564 16.8203 68.3564 17.0781V17.293C68.3564 17.5257 68.3887 17.7406 68.4531 17.9375C68.5212 18.1344 68.616 18.3045 68.7378 18.4478C68.8631 18.591 69.0135 18.702 69.189 18.7808C69.368 18.8595 69.5703 18.8989 69.7959 18.8989C70.0752 18.8989 70.3348 18.8452 70.5747 18.7378C70.8182 18.6268 71.0277 18.4603 71.2031 18.2383L71.9551 19.0547C71.8333 19.2301 71.6668 19.3984 71.4556 19.5596C71.2479 19.7207 70.9972 19.8532 70.7036 19.957C70.41 20.0573 70.0752 20.1074 69.6992 20.1074ZM74.5977 11.75V20H73.0454V11.75H74.5977ZM77.8525 18.8721L79.1416 14.1885H80.7583L78.7979 20H77.8203L77.8525 18.8721ZM76.9663 14.1885L78.2607 18.8774L78.2876 20H77.3047L75.3442 14.1885H76.9663ZM83.084 14.1885V20H81.5317V14.1885H83.084ZM81.4351 12.6738C81.4351 12.4482 81.5138 12.262 81.6714 12.1152C81.8289 11.9684 82.0402 11.895 82.3052 11.895C82.5666 11.895 82.776 11.9684 82.9336 12.1152C83.0947 12.262 83.1753 12.4482 83.1753 12.6738C83.1753 12.8994 83.0947 13.0856 82.9336 13.2324C82.776 13.3792 82.5666 13.4526 82.3052 13.4526C82.0402 13.4526 81.8289 13.3792 81.6714 13.2324C81.5138 13.0856 81.4351 12.8994 81.4351 12.6738ZM87.0371 20.1074C86.5859 20.1074 86.1813 20.0358 85.8232 19.8926C85.4652 19.7458 85.1608 19.5435 84.9102 19.2856C84.6631 19.0278 84.4733 18.7288 84.3408 18.3887C84.2083 18.0449 84.1421 17.6797 84.1421 17.293V17.0781C84.1421 16.6377 84.2048 16.2349 84.3301 15.8696C84.4554 15.5044 84.6344 15.1875 84.8672 14.9189C85.1035 14.6504 85.39 14.4445 85.7266 14.3013C86.0632 14.1545 86.4427 14.0811 86.8652 14.0811C87.277 14.0811 87.6423 14.1491 87.9609 14.2852C88.2796 14.4212 88.5464 14.6146 88.7612 14.8652C88.9797 15.1159 89.1444 15.4167 89.2554 15.7676C89.3664 16.1149 89.4219 16.5016 89.4219 16.9277V17.5723H84.8027V16.541H87.9019V16.4229C87.9019 16.208 87.8625 16.0164 87.7837 15.8481C87.7085 15.6763 87.5939 15.5402 87.4399 15.4399C87.286 15.3397 87.089 15.2896 86.8491 15.2896C86.645 15.2896 86.4696 15.3343 86.3228 15.4238C86.1759 15.5133 86.056 15.6387 85.9629 15.7998C85.8734 15.9609 85.8053 16.1507 85.7588 16.3691C85.7158 16.584 85.6943 16.8203 85.6943 17.0781V17.293C85.6943 17.5257 85.7266 17.7406 85.791 17.9375C85.859 18.1344 85.9539 18.3045 86.0757 18.4478C86.201 18.591 86.3514 18.702 86.5269 18.7808C86.7059 18.8595 86.9082 18.8989 87.1338 18.8989C87.4131 18.8989 87.6727 18.8452 87.9126 18.7378C88.1561 18.6268 88.3656 18.4603 88.541 18.2383L89.293 19.0547C89.1712 19.2301 89.0047 19.3984 88.7935 19.5596C88.5858 19.7207 88.3351 19.8532 88.0415 19.957C87.7479 20.0573 87.4131 20.1074 87.0371 20.1074ZM91.9355 14.1885V20H90.3833V14.1885H91.9355ZM90.2866 12.6738C90.2866 12.4482 90.3654 12.262 90.5229 12.1152C90.6805 11.9684 90.8918 11.895 91.1567 11.895C91.4181 11.895 91.6276 11.9684 91.7852 12.1152C91.9463 12.262 92.0269 12.4482 92.0269 12.6738C92.0269 12.8994 91.9463 13.0856 91.7852 13.2324C91.6276 13.3792 91.4181 13.4526 91.1567 13.4526C90.8918 13.4526 90.6805 13.3792 90.5229 13.2324C90.3654 13.0856 90.2866 12.8994 90.2866 12.6738ZM94.8467 14.1885V20H93.2944V14.1885H94.8467ZM93.1978 12.6738C93.1978 12.4482 93.2765 12.262 93.4341 12.1152C93.5916 11.9684 93.8029 11.895 94.0679 11.895C94.3293 11.895 94.5387 11.9684 94.6963 12.1152C94.8574 12.262 94.938 12.4482 94.938 12.6738C94.938 12.8994 94.8574 13.0856 94.6963 13.2324C94.5387 13.3792 94.3293 13.4526 94.0679 13.4526C93.8029 13.4526 93.5916 13.3792 93.4341 13.2324C93.2765 13.0856 93.1978 12.8994 93.1978 12.6738ZM97.6719 15.4561V20H96.125V14.1885H97.5806L97.6719 15.4561ZM99.4229 14.1509L99.396 15.585C99.3208 15.5742 99.2295 15.5653 99.1221 15.5581C99.0182 15.5474 98.9233 15.542 98.8374 15.542C98.619 15.542 98.4292 15.5706 98.2681 15.6279C98.1105 15.6816 97.978 15.7622 97.8706 15.8696C97.7668 15.9771 97.688 16.1077 97.6343 16.2617C97.5841 16.4157 97.5555 16.5911 97.5483 16.7881L97.2368 16.6914C97.2368 16.3154 97.2744 15.9699 97.3496 15.6548C97.4248 15.3361 97.534 15.0586 97.6772 14.8223C97.8241 14.5859 98.0031 14.4033 98.2144 14.2744C98.4256 14.1455 98.6673 14.0811 98.9395 14.0811C99.0254 14.0811 99.1131 14.0882 99.2026 14.1025C99.2922 14.1133 99.3656 14.1294 99.4229 14.1509ZM103.107 18.6895V16.1006C103.107 15.9144 103.077 15.755 103.016 15.6226C102.955 15.4865 102.86 15.3809 102.731 15.3057C102.606 15.2305 102.443 15.1929 102.243 15.1929C102.071 15.1929 101.922 15.2233 101.797 15.2842C101.672 15.3415 101.575 15.4256 101.507 15.5366C101.439 15.644 101.405 15.7712 101.405 15.918H99.8579C99.8579 15.6709 99.9152 15.4364 100.03 15.2144C100.144 14.9924 100.311 14.7972 100.529 14.6289C100.748 14.457 101.007 14.3228 101.308 14.2261C101.612 14.1294 101.953 14.0811 102.329 14.0811C102.78 14.0811 103.181 14.1562 103.532 14.3066C103.883 14.457 104.158 14.6826 104.359 14.9834C104.563 15.2842 104.665 15.6602 104.665 16.1113V18.5981C104.665 18.9168 104.685 19.1782 104.724 19.3823C104.764 19.5828 104.821 19.7583 104.896 19.9087V20H103.333C103.258 19.8424 103.201 19.6455 103.161 19.4092C103.125 19.1693 103.107 18.9294 103.107 18.6895ZM103.312 16.4604L103.322 17.3359H102.458C102.253 17.3359 102.076 17.3592 101.926 17.4058C101.775 17.4523 101.652 17.5186 101.555 17.6045C101.458 17.6868 101.387 17.7835 101.34 17.8945C101.297 18.0055 101.276 18.1273 101.276 18.2598C101.276 18.3923 101.306 18.5122 101.367 18.6196C101.428 18.7235 101.516 18.8058 101.63 18.8667C101.745 18.924 101.879 18.9526 102.033 18.9526C102.266 18.9526 102.468 18.9061 102.64 18.813C102.812 18.7199 102.944 18.6053 103.038 18.4692C103.134 18.3332 103.184 18.2043 103.188 18.0825L103.596 18.7378C103.539 18.8846 103.46 19.0368 103.36 19.1943C103.263 19.3519 103.14 19.5005 102.989 19.6401C102.839 19.7762 102.658 19.889 102.447 19.9785C102.236 20.0645 101.985 20.1074 101.695 20.1074C101.326 20.1074 100.991 20.034 100.69 19.8872C100.393 19.7368 100.157 19.5309 99.9814 19.2695C99.8096 19.0046 99.7236 18.7038 99.7236 18.3672C99.7236 18.0628 99.7809 17.7925 99.8955 17.5562C100.01 17.3198 100.178 17.1211 100.4 16.96C100.626 16.7952 100.907 16.6717 101.244 16.5894C101.58 16.5034 101.971 16.4604 102.415 16.4604H103.312Z" fill="#C9D1D9"/>
</svg>
