<svg width="163" height="32" viewBox="0 0 163 32" fill="none" xmlns="http://www.w3.org/2000/svg">
<rect width="162.8" height="32" rx="6" fill="#21262D"/>
<rect x="0.5" y="0.5" width="161.8" height="31" rx="5.5" stroke="#F0F6FC" stroke-opacity="0.1"/>
<path d="M18.3178 22.6664H15.5535V13.7646H18.3178V22.6664ZM16.9342 12.5503C16.0502 12.5503 15.3333 11.8181 15.3333 10.9342C15.3333 10.05 16.05 9.33328 16.9342 9.33328C17.8183 9.33328 18.5351 10.05 18.5351 10.9342C18.5351 11.8181 17.8178 12.5503 16.9342 12.5503ZM28.6637 22.6664H25.9054V18.3331C25.9054 17.3003 25.8845 15.9759 24.4681 15.9759C23.0309 15.9759 22.8107 17.0979 22.8107 18.2586V22.6664H20.0494V13.7646H22.7006V14.9789H22.7393C23.1083 14.2794 24.0098 13.5413 25.3548 13.5413C28.1524 13.5413 28.6667 15.3836 28.6667 17.7765V22.6664H28.6637Z" fill="#C9D1D9"/>
<path d="M39.1484 15.4561V20H37.6016V14.1885H39.0571L39.1484 15.4561ZM40.8994 14.1509L40.8726 15.585C40.7974 15.5742 40.7061 15.5653 40.5986 15.5581C40.4948 15.5474 40.3999 15.542 40.314 15.542C40.0955 15.542 39.9058 15.5706 39.7446 15.6279C39.5871 15.6816 39.4546 15.7622 39.3472 15.8696C39.2433 15.9771 39.1646 16.1077 39.1108 16.2617C39.0607 16.4157 39.0321 16.5911 39.0249 16.7881L38.7134 16.6914C38.7134 16.3154 38.751 15.9699 38.8262 15.6548C38.9014 15.3361 39.0106 15.0586 39.1538 14.8223C39.3006 14.5859 39.4797 14.4033 39.6909 14.2744C39.9022 14.1455 40.1439 14.0811 40.416 14.0811C40.502 14.0811 40.5897 14.0882 40.6792 14.1025C40.7687 14.1133 40.8421 14.1294 40.8994 14.1509ZM44.584 18.6895V16.1006C44.584 15.9144 44.5535 15.755 44.4927 15.6226C44.4318 15.4865 44.3369 15.3809 44.208 15.3057C44.0827 15.2305 43.9198 15.1929 43.7192 15.1929C43.5474 15.1929 43.3988 15.2233 43.2734 15.2842C43.1481 15.3415 43.0514 15.4256 42.9834 15.5366C42.9154 15.644 42.8813 15.7712 42.8813 15.918H41.3345C41.3345 15.6709 41.3918 15.4364 41.5063 15.2144C41.6209 14.9924 41.7874 14.7972 42.0059 14.6289C42.2243 14.457 42.4839 14.3228 42.7847 14.2261C43.089 14.1294 43.4292 14.0811 43.8052 14.0811C44.2563 14.0811 44.6574 14.1562 45.0083 14.3066C45.3592 14.457 45.6349 14.6826 45.8354 14.9834C46.0396 15.2842 46.1416 15.6602 46.1416 16.1113V18.5981C46.1416 18.9168 46.1613 19.1782 46.2007 19.3823C46.2401 19.5828 46.2974 19.7583 46.3726 19.9087V20H44.8096C44.7344 19.8424 44.6771 19.6455 44.6377 19.4092C44.6019 19.1693 44.584 18.9294 44.584 18.6895ZM44.7881 16.4604L44.7988 17.3359H43.9341C43.73 17.3359 43.5527 17.3592 43.4023 17.4058C43.252 17.4523 43.1284 17.5186 43.0317 17.6045C42.9351 17.6868 42.8634 17.7835 42.8169 17.8945C42.7739 18.0055 42.7524 18.1273 42.7524 18.2598C42.7524 18.3923 42.7829 18.5122 42.8438 18.6196C42.9046 18.7235 42.9924 18.8058 43.1069 18.8667C43.2215 18.924 43.3558 18.9526 43.5098 18.9526C43.7425 18.9526 43.9448 18.9061 44.1167 18.813C44.2886 18.7199 44.4211 18.6053 44.5142 18.4692C44.6108 18.3332 44.661 18.2043 44.6646 18.0825L45.0728 18.7378C45.0155 18.8846 44.9367 19.0368 44.8364 19.1943C44.7397 19.3519 44.6162 19.5005 44.4658 19.6401C44.3154 19.7762 44.1346 19.889 43.9233 19.9785C43.7121 20.0645 43.4614 20.1074 43.1714 20.1074C42.8026 20.1074 42.4678 20.034 42.167 19.8872C41.8698 19.7368 41.6335 19.5309 41.458 19.2695C41.2861 19.0046 41.2002 18.7038 41.2002 18.3672C41.2002 18.0628 41.2575 17.7925 41.3721 17.5562C41.4867 17.3198 41.6549 17.1211 41.877 16.96C42.1025 16.7952 42.3836 16.6717 42.7202 16.5894C43.0568 16.5034 43.4471 16.4604 43.8911 16.4604H44.7881ZM49.3052 20H47.7476V13.6729C47.7476 13.2324 47.8335 12.8618 48.0054 12.561C48.1808 12.2567 48.4261 12.0275 48.7412 11.8735C49.0599 11.716 49.4377 11.6372 49.8745 11.6372C50.0177 11.6372 50.1556 11.6479 50.2881 11.6694C50.4206 11.6873 50.5495 11.7106 50.6748 11.7393L50.6587 12.9048C50.5907 12.8869 50.519 12.8743 50.4438 12.8672C50.3687 12.86 50.2809 12.8564 50.1807 12.8564C49.9945 12.8564 49.8351 12.8887 49.7026 12.9531C49.5737 13.014 49.4753 13.1053 49.4072 13.2271C49.3392 13.3488 49.3052 13.4974 49.3052 13.6729V20ZM50.4653 14.1885V15.2842H46.8828V14.1885H50.4653ZM54.4131 18.6895V16.1006C54.4131 15.9144 54.3826 15.755 54.3218 15.6226C54.2609 15.4865 54.166 15.3809 54.0371 15.3057C53.9118 15.2305 53.7489 15.1929 53.5483 15.1929C53.3765 15.1929 53.2279 15.2233 53.1025 15.2842C52.9772 15.3415 52.8805 15.4256 52.8125 15.5366C52.7445 15.644 52.7104 15.7712 52.7104 15.918H51.1636C51.1636 15.6709 51.2209 15.4364 51.3354 15.2144C51.45 14.9924 51.6165 14.7972 51.835 14.6289C52.0534 14.457 52.313 14.3228 52.6138 14.2261C52.9181 14.1294 53.2583 14.0811 53.6343 14.0811C54.0854 14.0811 54.4865 14.1562 54.8374 14.3066C55.1883 14.457 55.464 14.6826 55.6646 14.9834C55.8687 15.2842 55.9707 15.6602 55.9707 16.1113V18.5981C55.9707 18.9168 55.9904 19.1782 56.0298 19.3823C56.0692 19.5828 56.1265 19.7583 56.2017 19.9087V20H54.6387C54.5635 19.8424 54.5062 19.6455 54.4668 19.4092C54.431 19.1693 54.4131 18.9294 54.4131 18.6895ZM54.6172 16.4604L54.6279 17.3359H53.7632C53.5591 17.3359 53.3818 17.3592 53.2314 17.4058C53.0811 17.4523 52.9575 17.5186 52.8608 17.6045C52.7642 17.6868 52.6925 17.7835 52.646 17.8945C52.603 18.0055 52.5815 18.1273 52.5815 18.2598C52.5815 18.3923 52.612 18.5122 52.6729 18.6196C52.7337 18.7235 52.8215 18.8058 52.936 18.8667C53.0506 18.924 53.1849 18.9526 53.3389 18.9526C53.5716 18.9526 53.7739 18.9061 53.9458 18.813C54.1177 18.7199 54.2502 18.6053 54.3433 18.4692C54.4399 18.3332 54.4901 18.2043 54.4937 18.0825L54.9019 18.7378C54.8446 18.8846 54.7658 19.0368 54.6655 19.1943C54.5688 19.3519 54.4453 19.5005 54.2949 19.6401C54.1445 19.7762 53.9637 19.889 53.7524 19.9785C53.5412 20.0645 53.2905 20.1074 53.0005 20.1074C52.6317 20.1074 52.2969 20.034 51.9961 19.8872C51.6989 19.7368 51.4626 19.5309 51.2871 19.2695C51.1152 19.0046 51.0293 18.7038 51.0293 18.3672C51.0293 18.0628 51.0866 17.7925 51.2012 17.5562C51.3158 17.3198 51.484 17.1211 51.7061 16.96C51.9316 16.7952 52.2127 16.6717 52.5493 16.5894C52.8859 16.5034 53.2762 16.4604 53.7202 16.4604H54.6172ZM59.8379 20.1074C59.3867 20.1074 58.9821 20.0358 58.624 19.8926C58.266 19.7458 57.9616 19.5435 57.7109 19.2856C57.4639 19.0278 57.2741 18.7288 57.1416 18.3887C57.0091 18.0449 56.9429 17.6797 56.9429 17.293V17.0781C56.9429 16.6377 57.0055 16.2349 57.1309 15.8696C57.2562 15.5044 57.4352 15.1875 57.668 14.9189C57.9043 14.6504 58.1908 14.4445 58.5273 14.3013C58.8639 14.1545 59.2435 14.0811 59.666 14.0811C60.0778 14.0811 60.443 14.1491 60.7617 14.2852C61.0804 14.4212 61.3472 14.6146 61.562 14.8652C61.7804 15.1159 61.9451 15.4167 62.0562 15.7676C62.1672 16.1149 62.2227 16.5016 62.2227 16.9277V17.5723H57.6035V16.541H60.7026V16.4229C60.7026 16.208 60.6632 16.0164 60.5845 15.8481C60.5093 15.6763 60.3947 15.5402 60.2407 15.4399C60.0868 15.3397 59.8898 15.2896 59.6499 15.2896C59.4458 15.2896 59.2703 15.3343 59.1235 15.4238C58.9767 15.5133 58.8568 15.6387 58.7637 15.7998C58.6742 15.9609 58.6061 16.1507 58.5596 16.3691C58.5166 16.584 58.4951 16.8203 58.4951 17.0781V17.293C58.4951 17.5257 58.5273 17.7406 58.5918 17.9375C58.6598 18.1344 58.7547 18.3045 58.8765 18.4478C59.0018 18.591 59.1522 18.702 59.3276 18.7808C59.5067 18.8595 59.709 18.8989 59.9346 18.8989C60.2139 18.8989 60.4735 18.8452 60.7134 18.7378C60.9569 18.6268 61.1663 18.4603 61.3418 18.2383L62.0938 19.0547C61.972 19.2301 61.8055 19.3984 61.5942 19.5596C61.3866 19.7207 61.1359 19.8532 60.8423 19.957C60.5487 20.0573 60.2139 20.1074 59.8379 20.1074ZM64.7363 11.75V20H63.1841V11.75H64.7363ZM67.9912 18.8721L69.2803 14.1885H70.897L68.9365 20H67.959L67.9912 18.8721ZM67.105 14.1885L68.3994 18.8774L68.4263 20H67.4434L65.4829 14.1885H67.105ZM73.2227 14.1885V20H71.6704V14.1885H73.2227ZM71.5737 12.6738C71.5737 12.4482 71.6525 12.262 71.8101 12.1152C71.9676 11.9684 72.1789 11.895 72.4438 11.895C72.7052 11.895 72.9147 11.9684 73.0723 12.1152C73.2334 12.262 73.314 12.4482 73.314 12.6738C73.314 12.8994 73.2334 13.0856 73.0723 13.2324C72.9147 13.3792 72.7052 13.4526 72.4438 13.4526C72.1789 13.4526 71.9676 13.3792 71.8101 13.2324C71.6525 13.0856 71.5737 12.8994 71.5737 12.6738ZM77.1758 20.1074C76.7246 20.1074 76.32 20.0358 75.9619 19.8926C75.6038 19.7458 75.2995 19.5435 75.0488 19.2856C74.8018 19.0278 74.612 18.7288 74.4795 18.3887C74.347 18.0449 74.2808 17.6797 74.2808 17.293V17.0781C74.2808 16.6377 74.3434 16.2349 74.4688 15.8696C74.5941 15.5044 74.7731 15.1875 75.0059 14.9189C75.2422 14.6504 75.5286 14.4445 75.8652 14.3013C76.2018 14.1545 76.5814 14.0811 77.0039 14.0811C77.4157 14.0811 77.7809 14.1491 78.0996 14.2852C78.4183 14.4212 78.6851 14.6146 78.8999 14.8652C79.1183 15.1159 79.283 15.4167 79.394 15.7676C79.505 16.1149 79.5605 16.5016 79.5605 16.9277V17.5723H74.9414V16.541H78.0405V16.4229C78.0405 16.208 78.0011 16.0164 77.9224 15.8481C77.8472 15.6763 77.7326 15.5402 77.5786 15.4399C77.4246 15.3397 77.2277 15.2896 76.9878 15.2896C76.7837 15.2896 76.6082 15.3343 76.4614 15.4238C76.3146 15.5133 76.1947 15.6387 76.1016 15.7998C76.012 15.9609 75.944 16.1507 75.8975 16.3691C75.8545 16.584 75.833 16.8203 75.833 17.0781V17.293C75.833 17.5257 75.8652 17.7406 75.9297 17.9375C75.9977 18.1344 76.0926 18.3045 76.2144 18.4478C76.3397 18.591 76.4901 18.702 76.6655 18.7808C76.8446 18.8595 77.0469 18.8989 77.2725 18.8989C77.5518 18.8989 77.8114 18.8452 78.0513 18.7378C78.2948 18.6268 78.5042 18.4603 78.6797 18.2383L79.4316 19.0547C79.3099 19.2301 79.1434 19.3984 78.9321 19.5596C78.7244 19.7207 78.4738 19.8532 78.1802 19.957C77.8866 20.0573 77.5518 20.1074 77.1758 20.1074ZM82.0742 14.1885V20H80.522V14.1885H82.0742ZM80.4253 12.6738C80.4253 12.4482 80.5041 12.262 80.6616 12.1152C80.8192 11.9684 81.0304 11.895 81.2954 11.895C81.5568 11.895 81.7663 11.9684 81.9238 12.1152C82.085 12.262 82.1655 12.4482 82.1655 12.6738C82.1655 12.8994 82.085 13.0856 81.9238 13.2324C81.7663 13.3792 81.5568 13.4526 81.2954 13.4526C81.0304 13.4526 80.8192 13.3792 80.6616 13.2324C80.5041 13.0856 80.4253 12.8994 80.4253 12.6738ZM84.8994 15.4561V20H83.3525V14.1885H84.8081L84.8994 15.4561ZM86.6504 14.1509L86.6235 15.585C86.5483 15.5742 86.457 15.5653 86.3496 15.5581C86.2458 15.5474 86.1509 15.542 86.0649 15.542C85.8465 15.542 85.6567 15.5706 85.4956 15.6279C85.3381 15.6816 85.2056 15.7622 85.0981 15.8696C84.9943 15.9771 84.9155 16.1077 84.8618 16.2617C84.8117 16.4157 84.783 16.5911 84.7759 16.7881L84.4644 16.6914C84.4644 16.3154 84.502 15.9699 84.5771 15.6548C84.6523 15.3361 84.7616 15.0586 84.9048 14.8223C85.0516 14.5859 85.2306 14.4033 85.4419 14.2744C85.6532 14.1455 85.8949 14.0811 86.167 14.0811C86.2529 14.0811 86.3407 14.0882 86.4302 14.1025C86.5197 14.1133 86.5931 14.1294 86.6504 14.1509ZM90.335 18.6895V16.1006C90.335 15.9144 90.3045 15.755 90.2437 15.6226C90.1828 15.4865 90.0879 15.3809 89.959 15.3057C89.8337 15.2305 89.6707 15.1929 89.4702 15.1929C89.2983 15.1929 89.1497 15.2233 89.0244 15.2842C88.8991 15.3415 88.8024 15.4256 88.7344 15.5366C88.6663 15.644 88.6323 15.7712 88.6323 15.918H87.0854C87.0854 15.6709 87.1427 15.4364 87.2573 15.2144C87.3719 14.9924 87.5384 14.7972 87.7568 14.6289C87.9753 14.457 88.2349 14.3228 88.5356 14.2261C88.84 14.1294 89.1802 14.0811 89.5562 14.0811C90.0073 14.0811 90.4084 14.1562 90.7593 14.3066C91.1102 14.457 91.3859 14.6826 91.5864 14.9834C91.7905 15.2842 91.8926 15.6602 91.8926 16.1113V18.5981C91.8926 18.9168 91.9123 19.1782 91.9517 19.3823C91.991 19.5828 92.0483 19.7583 92.1235 19.9087V20H90.5605C90.4854 19.8424 90.4281 19.6455 90.3887 19.4092C90.3529 19.1693 90.335 18.9294 90.335 18.6895ZM90.5391 16.4604L90.5498 17.3359H89.6851C89.481 17.3359 89.3037 17.3592 89.1533 17.4058C89.0029 17.4523 88.8794 17.5186 88.7827 17.6045C88.686 17.6868 88.6144 17.7835 88.5679 17.8945C88.5249 18.0055 88.5034 18.1273 88.5034 18.2598C88.5034 18.3923 88.5339 18.5122 88.5947 18.6196C88.6556 18.7235 88.7433 18.8058 88.8579 18.8667C88.9725 18.924 89.1068 18.9526 89.2607 18.9526C89.4935 18.9526 89.6958 18.9061 89.8677 18.813C90.0396 18.7199 90.172 18.6053 90.2651 18.4692C90.3618 18.3332 90.4119 18.2043 90.4155 18.0825L90.8237 18.7378C90.7664 18.8846 90.6877 19.0368 90.5874 19.1943C90.4907 19.3519 90.3672 19.5005 90.2168 19.6401C90.0664 19.7762 89.8856 19.889 89.6743 19.9785C89.4631 20.0645 89.2124 20.1074 88.9224 20.1074C88.5535 20.1074 88.2188 20.034 87.918 19.8872C87.6208 19.7368 87.3844 19.5309 87.209 19.2695C87.0371 19.0046 86.9512 18.7038 86.9512 18.3672C86.9512 18.0628 87.0085 17.7925 87.123 17.5562C87.2376 17.3198 87.4059 17.1211 87.6279 16.96C87.8535 16.7952 88.1346 16.6717 88.4712 16.5894C88.8078 16.5034 89.1981 16.4604 89.6421 16.4604H90.5391ZM95.4858 18.8989C95.6756 18.8989 95.8439 18.8631 95.9907 18.7915C96.1375 18.7163 96.2521 18.6125 96.3345 18.48C96.4204 18.3439 96.4652 18.1846 96.4688 18.002H97.9243C97.9207 18.4102 97.8115 18.7736 97.5967 19.0923C97.3818 19.4074 97.0936 19.6562 96.7319 19.8389C96.3703 20.0179 95.9657 20.1074 95.5181 20.1074C95.0669 20.1074 94.673 20.0322 94.3364 19.8818C94.0034 19.7314 93.7259 19.5238 93.5039 19.2588C93.2819 18.9902 93.1154 18.6787 93.0044 18.3242C92.8934 17.9661 92.8379 17.583 92.8379 17.1748V17.019C92.8379 16.6073 92.8934 16.2241 93.0044 15.8696C93.1154 15.5116 93.2819 15.2 93.5039 14.9351C93.7259 14.6665 94.0034 14.457 94.3364 14.3066C94.6694 14.1562 95.0597 14.0811 95.5073 14.0811C95.9836 14.0811 96.4007 14.1724 96.7588 14.355C97.1204 14.5376 97.4033 14.799 97.6074 15.1392C97.8151 15.4757 97.9207 15.875 97.9243 16.3369H96.4688C96.4652 16.1436 96.424 15.9681 96.3452 15.8105C96.27 15.653 96.159 15.5277 96.0122 15.4346C95.869 15.3379 95.6917 15.2896 95.4805 15.2896C95.2549 15.2896 95.0705 15.3379 94.9272 15.4346C94.784 15.5277 94.673 15.6566 94.5942 15.8213C94.5155 15.9824 94.46 16.1668 94.4277 16.3745C94.3991 16.5786 94.3848 16.7935 94.3848 17.019V17.1748C94.3848 17.4004 94.3991 17.617 94.4277 17.8247C94.4564 18.0324 94.5101 18.2168 94.5889 18.3779C94.6712 18.5391 94.784 18.6662 94.9272 18.7593C95.0705 18.8524 95.2567 18.8989 95.4858 18.8989ZM98.5742 17.1533V17.0405C98.5742 16.6144 98.6351 16.2223 98.7568 15.8643C98.8786 15.5026 99.0558 15.1893 99.2886 14.9243C99.5213 14.6593 99.8078 14.4535 100.148 14.3066C100.488 14.1562 100.878 14.0811 101.319 14.0811C101.759 14.0811 102.151 14.1562 102.495 14.3066C102.839 14.4535 103.127 14.6593 103.36 14.9243C103.596 15.1893 103.775 15.5026 103.897 15.8643C104.019 16.2223 104.08 16.6144 104.08 17.0405V17.1533C104.08 17.5758 104.019 17.9679 103.897 18.3296C103.775 18.6877 103.596 19.001 103.36 19.2695C103.127 19.5345 102.841 19.7404 102.5 19.8872C102.16 20.034 101.77 20.1074 101.33 20.1074C100.889 20.1074 100.497 20.034 100.153 19.8872C99.8132 19.7404 99.5249 19.5345 99.2886 19.2695C99.0558 19.001 98.8786 18.6877 98.7568 18.3296C98.6351 17.9679 98.5742 17.5758 98.5742 17.1533ZM100.121 17.0405V17.1533C100.121 17.3968 100.143 17.6242 100.186 17.8354C100.229 18.0467 100.297 18.2329 100.39 18.394C100.486 18.5516 100.612 18.6751 100.766 18.7646C100.92 18.8542 101.108 18.8989 101.33 18.8989C101.544 18.8989 101.729 18.8542 101.883 18.7646C102.037 18.6751 102.16 18.5516 102.253 18.394C102.347 18.2329 102.415 18.0467 102.458 17.8354C102.504 17.6242 102.527 17.3968 102.527 17.1533V17.0405C102.527 16.8042 102.504 16.5822 102.458 16.3745C102.415 16.1632 102.345 15.9771 102.248 15.8159C102.155 15.6512 102.031 15.5223 101.877 15.4292C101.723 15.3361 101.537 15.2896 101.319 15.2896C101.1 15.2896 100.914 15.3361 100.76 15.4292C100.61 15.5223 100.486 15.6512 100.39 15.8159C100.297 15.9771 100.229 16.1632 100.186 16.3745C100.143 16.5822 100.121 16.8042 100.121 17.0405ZM108.172 18.394C108.172 18.283 108.14 18.1828 108.076 18.0933C108.011 18.0037 107.891 17.9214 107.716 17.8462C107.544 17.7674 107.295 17.6958 106.969 17.6313C106.676 17.5669 106.402 17.4863 106.147 17.3896C105.897 17.2894 105.678 17.1694 105.492 17.0298C105.31 16.8901 105.166 16.7254 105.062 16.5356C104.959 16.3423 104.907 16.1221 104.907 15.875C104.907 15.6315 104.959 15.4023 105.062 15.1875C105.17 14.9727 105.322 14.7829 105.519 14.6182C105.72 14.4499 105.963 14.3192 106.25 14.2261C106.54 14.1294 106.865 14.0811 107.227 14.0811C107.732 14.0811 108.165 14.1616 108.527 14.3228C108.892 14.4839 109.171 14.7059 109.365 14.9888C109.562 15.2681 109.66 15.5868 109.66 15.9448H108.113C108.113 15.7944 108.081 15.6602 108.017 15.542C107.956 15.4202 107.859 15.3254 107.727 15.2573C107.598 15.1857 107.429 15.1499 107.222 15.1499C107.05 15.1499 106.901 15.1803 106.776 15.2412C106.651 15.2985 106.554 15.3773 106.486 15.4775C106.421 15.5742 106.389 15.6816 106.389 15.7998C106.389 15.8893 106.407 15.9699 106.443 16.0415C106.482 16.1095 106.545 16.1722 106.631 16.2295C106.717 16.2868 106.828 16.3405 106.964 16.3906C107.104 16.4372 107.275 16.4801 107.479 16.5195C107.898 16.6055 108.273 16.7183 108.602 16.8579C108.931 16.994 109.193 17.1802 109.386 17.4165C109.58 17.6493 109.676 17.9554 109.676 18.335C109.676 18.5928 109.619 18.8291 109.504 19.0439C109.39 19.2588 109.225 19.4468 109.01 19.6079C108.795 19.7655 108.538 19.889 108.237 19.9785C107.94 20.0645 107.605 20.1074 107.232 20.1074C106.692 20.1074 106.233 20.0107 105.857 19.8174C105.485 19.624 105.202 19.3787 105.009 19.0815C104.819 18.7808 104.724 18.4728 104.724 18.1577H106.19C106.198 18.369 106.251 18.5391 106.352 18.668C106.455 18.7969 106.586 18.89 106.744 18.9473C106.905 19.0046 107.078 19.0332 107.265 19.0332C107.465 19.0332 107.632 19.0063 107.764 18.9526C107.897 18.8953 107.997 18.8201 108.065 18.7271C108.137 18.6304 108.172 18.5194 108.172 18.394ZM113.527 14.1885V15.2842H110.144V14.1885H113.527ZM110.981 12.7544H112.528V18.249C112.528 18.4173 112.55 18.5462 112.593 18.6357C112.639 18.7253 112.707 18.7879 112.797 18.8237C112.886 18.856 112.999 18.8721 113.135 18.8721C113.232 18.8721 113.318 18.8685 113.393 18.8613C113.472 18.8506 113.538 18.8398 113.592 18.8291L113.597 19.9678C113.465 20.0107 113.321 20.0448 113.167 20.0698C113.014 20.0949 112.843 20.1074 112.657 20.1074C112.317 20.1074 112.02 20.0519 111.766 19.9409C111.515 19.8263 111.322 19.6437 111.186 19.3931C111.049 19.1424 110.981 18.813 110.981 18.4048V12.7544ZM117.545 18.6895V16.1006C117.545 15.9144 117.514 15.755 117.454 15.6226C117.393 15.4865 117.298 15.3809 117.169 15.3057C117.044 15.2305 116.881 15.1929 116.68 15.1929C116.508 15.1929 116.36 15.2233 116.234 15.2842C116.109 15.3415 116.012 15.4256 115.944 15.5366C115.876 15.644 115.842 15.7712 115.842 15.918H114.295C114.295 15.6709 114.353 15.4364 114.467 15.2144C114.582 14.9924 114.748 14.7972 114.967 14.6289C115.185 14.457 115.445 14.3228 115.746 14.2261C116.05 14.1294 116.39 14.0811 116.766 14.0811C117.217 14.0811 117.618 14.1562 117.969 14.3066C118.32 14.457 118.596 14.6826 118.796 14.9834C119 15.2842 119.103 15.6602 119.103 16.1113V18.5981C119.103 18.9168 119.122 19.1782 119.162 19.3823C119.201 19.5828 119.258 19.7583 119.333 19.9087V20H117.771C117.695 19.8424 117.638 19.6455 117.599 19.4092C117.563 19.1693 117.545 18.9294 117.545 18.6895ZM117.749 16.4604L117.76 17.3359H116.895C116.691 17.3359 116.514 17.3592 116.363 17.4058C116.213 17.4523 116.089 17.5186 115.993 17.6045C115.896 17.6868 115.824 17.7835 115.778 17.8945C115.735 18.0055 115.713 18.1273 115.713 18.2598C115.713 18.3923 115.744 18.5122 115.805 18.6196C115.866 18.7235 115.953 18.8058 116.068 18.8667C116.182 18.924 116.317 18.9526 116.471 18.9526C116.703 18.9526 116.906 18.9061 117.078 18.813C117.25 18.7199 117.382 18.6053 117.475 18.4692C117.572 18.3332 117.622 18.2043 117.625 18.0825L118.034 18.7378C117.976 18.8846 117.898 19.0368 117.797 19.1943C117.701 19.3519 117.577 19.5005 117.427 19.6401C117.276 19.7762 117.096 19.889 116.884 19.9785C116.673 20.0645 116.422 20.1074 116.132 20.1074C115.764 20.1074 115.429 20.034 115.128 19.8872C114.831 19.7368 114.594 19.5309 114.419 19.2695C114.247 19.0046 114.161 18.7038 114.161 18.3672C114.161 18.0628 114.218 17.7925 114.333 17.5562C114.448 17.3198 114.616 17.1211 114.838 16.96C115.063 16.7952 115.345 16.6717 115.681 16.5894C116.018 16.5034 116.408 16.4604 116.852 16.4604H117.749Z" fill="#C9D1D9"/>
</svg>
