<svg width="163" height="32" viewBox="0 0 163 32" fill="none" xmlns="http://www.w3.org/2000/svg">
<rect width="162.8" height="32" rx="6" fill="#21262D"/>
<rect x="0.5" y="0.5" width="161.8" height="31" rx="5.5" stroke="#F0F6FC" stroke-opacity="0.1"/>
<path d="M27.2962 13.2843C27.3046 13.4027 27.3046 13.5212 27.3046 13.6396C27.3046 17.2521 24.5551 21.4146 19.5297 21.4146C17.9814 21.4146 16.5432 20.9662 15.3334 20.1879C15.5533 20.2132 15.7648 20.2217 15.9933 20.2217C17.2708 20.2217 18.4467 19.7902 19.3858 19.0542C18.1845 19.0288 17.1777 18.242 16.8308 17.1591C17 17.1844 17.1692 17.2014 17.3469 17.2014C17.5923 17.2014 17.8376 17.1675 18.066 17.1083C16.8139 16.8545 15.8748 15.7547 15.8748 14.4264V14.3926C16.2386 14.5956 16.6616 14.7225 17.11 14.7394C16.374 14.2487 15.8917 13.4112 15.8917 12.4636C15.8917 11.956 16.0271 11.4907 16.264 11.0846C17.6092 12.7428 19.6312 13.8257 21.8985 13.9442C21.8562 13.7411 21.8308 13.5296 21.8308 13.3181C21.8308 11.8122 23.0491 10.5854 24.5635 10.5854C25.3503 10.5854 26.0609 10.9154 26.5601 11.4484C27.1777 11.33 27.7699 11.1015 28.2945 10.7885C28.0914 11.423 27.6599 11.956 27.0931 12.2944C27.643 12.2352 28.176 12.0829 28.6667 11.8714C28.2945 12.4129 27.8292 12.8951 27.2962 13.2843Z" fill="#C9D1D9"/>
<path d="M46.394 17.1265C46.3797 17.4917 46.326 17.8516 46.2329 18.2061C46.1398 18.5605 45.9984 18.881 45.8086 19.1675C45.6224 19.4539 45.3843 19.6831 45.0942 19.855C44.8042 20.0269 44.4533 20.1128 44.0415 20.1128C43.8088 20.1128 43.5993 20.0716 43.4131 19.9893C43.2269 19.9069 43.0693 19.7905 42.9404 19.6401C42.8115 19.4862 42.7166 19.3018 42.6558 19.0869C42.5949 18.8721 42.5734 18.6304 42.5913 18.3618L42.8652 15.2681H43.9395L43.6709 18.3618C43.6494 18.548 43.6512 18.7002 43.6763 18.8184C43.7049 18.9365 43.7479 19.0278 43.8052 19.0923C43.866 19.1567 43.9341 19.2033 44.0093 19.2319C44.0881 19.257 44.165 19.2695 44.2402 19.2695C44.4121 19.2695 44.5697 19.2158 44.7129 19.1084C44.8561 19.001 44.9797 18.8524 45.0835 18.6626C45.1873 18.4728 45.2697 18.2508 45.3306 17.9966C45.3914 17.7388 45.4255 17.4613 45.4326 17.1641C45.4577 16.6878 45.4344 16.2474 45.3628 15.8428C45.2948 15.4382 45.1766 15.0765 45.0083 14.7578C44.8436 14.4355 44.6287 14.1634 44.3638 13.9414C44.0988 13.7158 43.7837 13.5439 43.4185 13.4258C43.0532 13.304 42.6361 13.2432 42.167 13.2432C41.7266 13.2432 41.3201 13.3112 40.9478 13.4473C40.5789 13.5833 40.2477 13.7785 39.9541 14.0327C39.6641 14.2869 39.4134 14.5913 39.2021 14.9458C38.9945 15.2967 38.8298 15.6888 38.708 16.1221C38.5898 16.5518 38.52 17.0137 38.4985 17.5078C38.4735 18.027 38.5003 18.4997 38.5791 18.9258C38.6615 19.3519 38.7922 19.7261 38.9712 20.0483C39.1538 20.3742 39.3812 20.6463 39.6533 20.8647C39.9255 21.0832 40.2424 21.2479 40.604 21.3589C40.9657 21.4699 41.3685 21.5254 41.8125 21.5254C42.124 21.5254 42.4409 21.4896 42.7632 21.418C43.089 21.3499 43.363 21.2622 43.585 21.1548L43.7891 21.9551C43.5384 22.1162 43.2251 22.2362 42.8491 22.3149C42.4767 22.3937 42.124 22.4331 41.791 22.4331C41.2217 22.4331 40.7025 22.3633 40.2334 22.2236C39.7679 22.0876 39.3561 21.8835 38.998 21.6113C38.64 21.3428 38.341 21.0098 38.1011 20.6123C37.8647 20.2148 37.6893 19.7565 37.5747 19.2373C37.4637 18.7181 37.4207 18.1416 37.4458 17.5078C37.4709 16.9206 37.5622 16.3674 37.7197 15.8481C37.8773 15.3289 38.0921 14.8581 38.3643 14.4355C38.6364 14.013 38.9622 13.6496 39.3418 13.3452C39.7249 13.0373 40.1546 12.8009 40.6309 12.6362C41.1071 12.4715 41.6263 12.3892 42.1885 12.3892C42.7471 12.3892 43.2537 12.4626 43.7085 12.6094C44.1668 12.7562 44.5679 12.9674 44.9116 13.2432C45.2554 13.5153 45.5418 13.8465 45.771 14.2368C46.0002 14.6235 46.1667 15.0604 46.2705 15.5474C46.3743 16.0343 46.4155 16.5607 46.394 17.1265ZM40.9692 17.6904C40.9513 17.9268 40.9531 18.1362 40.9746 18.3188C40.9961 18.5015 41.0373 18.6554 41.0981 18.7808C41.159 18.9061 41.2378 19.001 41.3345 19.0654C41.4347 19.1263 41.5529 19.1567 41.689 19.1567C41.7642 19.1567 41.8465 19.1388 41.936 19.103C42.0256 19.0636 42.1169 18.9992 42.21 18.9097C42.3031 18.8201 42.3908 18.6966 42.4731 18.5391C42.5591 18.3779 42.6307 18.1756 42.688 17.9321L43.1445 18.4746C43.0622 18.7432 42.9601 18.9795 42.8384 19.1836C42.7166 19.3841 42.577 19.5524 42.4194 19.6885C42.2655 19.8245 42.0972 19.9266 41.9146 19.9946C41.7319 20.0627 41.535 20.0967 41.3237 20.0967C41.0623 20.0967 40.8296 20.0412 40.6255 19.9302C40.4214 19.8156 40.2513 19.6527 40.1152 19.4414C39.9792 19.2301 39.8807 18.9777 39.8198 18.6841C39.7625 18.3869 39.7518 18.0557 39.7876 17.6904C39.827 17.3252 39.8986 16.9868 40.0024 16.6753C40.1063 16.3638 40.2352 16.0863 40.3892 15.8428C40.5431 15.5957 40.7186 15.3862 40.9155 15.2144C41.116 15.0389 41.3327 14.9064 41.5654 14.8169C41.7982 14.7274 42.0417 14.6826 42.2959 14.6826C42.7077 14.6826 43.0317 14.7417 43.2681 14.8599C43.5044 14.978 43.7282 15.1141 43.9395 15.2681L43.3916 16.0039C43.2878 15.9108 43.1517 15.8213 42.9834 15.7354C42.8187 15.6458 42.6217 15.6011 42.3926 15.6011C42.1813 15.6011 41.9951 15.6458 41.834 15.7354C41.6764 15.8249 41.5386 15.9591 41.4204 16.1382C41.3058 16.3136 41.2109 16.5321 41.1357 16.7935C41.0605 17.0513 41.005 17.3503 40.9692 17.6904ZM49.0098 15.4561V20H47.4629V14.1885H48.9185L49.0098 15.4561ZM50.7607 14.1509L50.7339 15.585C50.6587 15.5742 50.5674 15.5653 50.46 15.5581C50.3561 15.5474 50.2612 15.542 50.1753 15.542C49.9569 15.542 49.7671 15.5706 49.606 15.6279C49.4484 15.6816 49.3159 15.7622 49.2085 15.8696C49.1047 15.9771 49.0259 16.1077 48.9722 16.2617C48.922 16.4157 48.8934 16.5911 48.8862 16.7881L48.5747 16.6914C48.5747 16.3154 48.6123 15.9699 48.6875 15.6548C48.7627 15.3361 48.8719 15.0586 49.0151 14.8223C49.1619 14.5859 49.341 14.4033 49.5522 14.2744C49.7635 14.1455 50.0052 14.0811 50.2773 14.0811C50.3633 14.0811 50.451 14.0882 50.5405 14.1025C50.63 14.1133 50.7035 14.1294 50.7607 14.1509ZM53.5645 18.8721L54.8535 14.1885H56.4702L54.5098 20H53.5322L53.5645 18.8721ZM52.6782 14.1885L53.9727 18.8774L53.9995 20H53.0166L51.0562 14.1885H52.6782ZM59.4888 18.8989C59.6785 18.8989 59.8468 18.8631 59.9937 18.7915C60.1405 18.7163 60.255 18.6125 60.3374 18.48C60.4233 18.3439 60.4681 18.1846 60.4717 18.002H61.9272C61.9237 18.4102 61.8145 18.7736 61.5996 19.0923C61.3848 19.4074 61.0965 19.6562 60.7349 19.8389C60.3732 20.0179 59.9686 20.1074 59.521 20.1074C59.0698 20.1074 58.6759 20.0322 58.3394 19.8818C58.0063 19.7314 57.7288 19.5238 57.5068 19.2588C57.2848 18.9902 57.1183 18.6787 57.0073 18.3242C56.8963 17.9661 56.8408 17.583 56.8408 17.1748V17.019C56.8408 16.6073 56.8963 16.2241 57.0073 15.8696C57.1183 15.5116 57.2848 15.2 57.5068 14.9351C57.7288 14.6665 58.0063 14.457 58.3394 14.3066C58.6724 14.1562 59.0627 14.0811 59.5103 14.0811C59.9865 14.0811 60.4036 14.1724 60.7617 14.355C61.1234 14.5376 61.4062 14.799 61.6104 15.1392C61.818 15.4757 61.9237 15.875 61.9272 16.3369H60.4717C60.4681 16.1436 60.4269 15.9681 60.3481 15.8105C60.2729 15.653 60.1619 15.5277 60.0151 15.4346C59.8719 15.3379 59.6947 15.2896 59.4834 15.2896C59.2578 15.2896 59.0734 15.3379 58.9302 15.4346C58.7869 15.5277 58.6759 15.6566 58.5972 15.8213C58.5184 15.9824 58.4629 16.1668 58.4307 16.3745C58.402 16.5786 58.3877 16.7935 58.3877 17.019V17.1748C58.3877 17.4004 58.402 17.617 58.4307 17.8247C58.4593 18.0324 58.513 18.2168 58.5918 18.3779C58.6742 18.5391 58.7869 18.6662 58.9302 18.7593C59.0734 18.8524 59.2596 18.8989 59.4888 18.8989ZM67.105 20V21.1763H62.228V20H67.105ZM69.6992 18.8721L70.9883 14.1885H72.605L70.6445 20H69.667L69.6992 18.8721ZM68.813 14.1885L70.1074 18.8774L70.1343 20H69.1514L67.1909 14.1885H68.813ZM74.9307 14.1885V20H73.3784V14.1885H74.9307ZM73.2817 12.6738C73.2817 12.4482 73.3605 12.262 73.5181 12.1152C73.6756 11.9684 73.8869 11.895 74.1519 11.895C74.4132 11.895 74.6227 11.9684 74.7803 12.1152C74.9414 12.262 75.022 12.4482 75.022 12.6738C75.022 12.8994 74.9414 13.0856 74.7803 13.2324C74.6227 13.3792 74.4132 13.4526 74.1519 13.4526C73.8869 13.4526 73.6756 13.3792 73.5181 13.2324C73.3605 13.0856 73.2817 12.8994 73.2817 12.6738ZM78.8838 20.1074C78.4326 20.1074 78.028 20.0358 77.6699 19.8926C77.3118 19.7458 77.0075 19.5435 76.7568 19.2856C76.5098 19.0278 76.32 18.7288 76.1875 18.3887C76.055 18.0449 75.9888 17.6797 75.9888 17.293V17.0781C75.9888 16.6377 76.0514 16.2349 76.1768 15.8696C76.3021 15.5044 76.4811 15.1875 76.7139 14.9189C76.9502 14.6504 77.2367 14.4445 77.5732 14.3013C77.9098 14.1545 78.2894 14.0811 78.7119 14.0811C79.1237 14.0811 79.4889 14.1491 79.8076 14.2852C80.1263 14.4212 80.3931 14.6146 80.6079 14.8652C80.8263 15.1159 80.991 15.4167 81.1021 15.7676C81.2131 16.1149 81.2686 16.5016 81.2686 16.9277V17.5723H76.6494V16.541H79.7485V16.4229C79.7485 16.208 79.7091 16.0164 79.6304 15.8481C79.5552 15.6763 79.4406 15.5402 79.2866 15.4399C79.1326 15.3397 78.9357 15.2896 78.6958 15.2896C78.4917 15.2896 78.3162 15.3343 78.1694 15.4238C78.0226 15.5133 77.9027 15.6387 77.8096 15.7998C77.7201 15.9609 77.652 16.1507 77.6055 16.3691C77.5625 16.584 77.541 16.8203 77.541 17.0781V17.293C77.541 17.5257 77.5732 17.7406 77.6377 17.9375C77.7057 18.1344 77.8006 18.3045 77.9224 18.4478C78.0477 18.591 78.1981 18.702 78.3735 18.7808C78.5526 18.8595 78.7549 18.8989 78.9805 18.8989C79.2598 18.8989 79.5194 18.8452 79.7593 18.7378C80.0028 18.6268 80.2122 18.4603 80.3877 18.2383L81.1396 19.0547C81.0179 19.2301 80.8514 19.3984 80.6401 19.5596C80.4325 19.7207 80.1818 19.8532 79.8882 19.957C79.5946 20.0573 79.2598 20.1074 78.8838 20.1074ZM83.7822 14.1885V20H82.23V14.1885H83.7822ZM82.1333 12.6738C82.1333 12.4482 82.2121 12.262 82.3696 12.1152C82.5272 11.9684 82.7384 11.895 83.0034 11.895C83.2648 11.895 83.4743 11.9684 83.6318 12.1152C83.793 12.262 83.8735 12.4482 83.8735 12.6738C83.8735 12.8994 83.793 13.0856 83.6318 13.2324C83.4743 13.3792 83.2648 13.4526 83.0034 13.4526C82.7384 13.4526 82.5272 13.3792 82.3696 13.2324C82.2121 13.0856 82.1333 12.8994 82.1333 12.6738ZM86.6074 15.4561V20H85.0605V14.1885H86.5161L86.6074 15.4561ZM88.3584 14.1509L88.3315 15.585C88.2563 15.5742 88.165 15.5653 88.0576 15.5581C87.9538 15.5474 87.8589 15.542 87.7729 15.542C87.5545 15.542 87.3647 15.5706 87.2036 15.6279C87.0461 15.6816 86.9136 15.7622 86.8062 15.8696C86.7023 15.9771 86.6235 16.1077 86.5698 16.2617C86.5197 16.4157 86.491 16.5911 86.4839 16.7881L86.1724 16.6914C86.1724 16.3154 86.21 15.9699 86.2852 15.6548C86.3604 15.3361 86.4696 15.0586 86.6128 14.8223C86.7596 14.5859 86.9386 14.4033 87.1499 14.2744C87.3612 14.1455 87.6029 14.0811 87.875 14.0811C87.9609 14.0811 88.0487 14.0882 88.1382 14.1025C88.2277 14.1133 88.3011 14.1294 88.3584 14.1509ZM92.043 18.6895V16.1006C92.043 15.9144 92.0125 15.755 91.9517 15.6226C91.8908 15.4865 91.7959 15.3809 91.667 15.3057C91.5417 15.2305 91.3787 15.1929 91.1782 15.1929C91.0063 15.1929 90.8577 15.2233 90.7324 15.2842C90.6071 15.3415 90.5104 15.4256 90.4424 15.5366C90.3743 15.644 90.3403 15.7712 90.3403 15.918H88.7935C88.7935 15.6709 88.8507 15.4364 88.9653 15.2144C89.0799 14.9924 89.2464 14.7972 89.4648 14.6289C89.6833 14.457 89.9429 14.3228 90.2437 14.2261C90.548 14.1294 90.8882 14.0811 91.2642 14.0811C91.7153 14.0811 92.1164 14.1562 92.4673 14.3066C92.8182 14.457 93.0939 14.6826 93.2944 14.9834C93.4985 15.2842 93.6006 15.6602 93.6006 16.1113V18.5981C93.6006 18.9168 93.6203 19.1782 93.6597 19.3823C93.6991 19.5828 93.7563 19.7583 93.8315 19.9087V20H92.2686C92.1934 19.8424 92.1361 19.6455 92.0967 19.4092C92.0609 19.1693 92.043 18.9294 92.043 18.6895ZM92.2471 16.4604L92.2578 17.3359H91.3931C91.189 17.3359 91.0117 17.3592 90.8613 17.4058C90.7109 17.4523 90.5874 17.5186 90.4907 17.6045C90.394 17.6868 90.3224 17.7835 90.2759 17.8945C90.2329 18.0055 90.2114 18.1273 90.2114 18.2598C90.2114 18.3923 90.2419 18.5122 90.3027 18.6196C90.3636 18.7235 90.4513 18.8058 90.5659 18.8667C90.6805 18.924 90.8148 18.9526 90.9688 18.9526C91.2015 18.9526 91.4038 18.9061 91.5757 18.813C91.7476 18.7199 91.88 18.6053 91.9731 18.4692C92.0698 18.3332 92.12 18.2043 92.1235 18.0825L92.5317 18.7378C92.4744 18.8846 92.3957 19.0368 92.2954 19.1943C92.1987 19.3519 92.0752 19.5005 91.9248 19.6401C91.7744 19.7762 91.5936 19.889 91.3823 19.9785C91.1711 20.0645 90.9204 20.1074 90.6304 20.1074C90.2616 20.1074 89.9268 20.034 89.626 19.8872C89.3288 19.7368 89.0924 19.5309 88.917 19.2695C88.7451 19.0046 88.6592 18.7038 88.6592 18.3672C88.6592 18.0628 88.7165 17.7925 88.8311 17.5562C88.9456 17.3198 89.1139 17.1211 89.3359 16.96C89.5615 16.7952 89.8426 16.6717 90.1792 16.5894C90.5158 16.5034 90.9061 16.4604 91.3501 16.4604H92.2471Z" fill="#C9D1D9"/>
</svg>
